<svg width="32" height="32" viewBox="0 0 32 32" fill="none" xmlns="http://www.w3.org/2000/svg">
<circle cx="16" cy="16" r="15" fill="black" stroke="#FECF06" stroke-width="2"/>
<path d="M13.7467 5C11.6627 6.31342 10.8904 8.02897 10.065 10.01C9.22354 12.0295 8.33856 14.3061 6 16.4037C6.26511 16.878 6.86289 17.3374 7.71938 17.7279C8.18886 17.3211 8.65991 16.8652 9.10765 16.4079L7.68876 16.6917L7.53488 15.9226C8.51923 15.6914 9.56407 15.5168 10.4709 15.3354C10.5363 14.8018 10.6336 14.3665 10.7906 13.8957C12.5128 13.5022 14.4087 12.8096 15.9767 12.7933C18.1297 12.989 19.5623 13.4385 21.1817 13.9011C21.3053 14.3836 21.4033 14.9034 21.4548 15.3298C22.391 15.4558 23.4108 15.7211 24.4186 15.9226L24.2647 16.6917L22.8458 16.4079C23.2936 16.8652 23.7646 17.3211 24.2341 17.728C25.0906 17.3374 25.6884 16.878 25.9535 16.4037C23.6149 14.3062 22.7299 12.0295 21.8884 10.01C21.063 8.02897 20.2908 6.31342 18.2069 5C17.7298 5.76613 16.893 6.9235 15.9767 6.94018C14.9167 6.81353 14.2555 5.83279 13.7466 5H13.7467ZM12.2735 7.07088H13.0577V7.80456L14.3314 8.49924C14.7069 7.92803 15.2915 7.55012 15.9767 7.55012C16.662 7.55012 17.2465 7.92803 17.6221 8.49924L18.8957 7.80456V7.07088H19.68V7.72439H20.3335V8.5086H19.2425L17.9505 9.21344C18.0692 9.66645 18.0982 10.0872 18.0281 10.5157L20.2592 11.7326H21.2048V12.5168H20.5513V13.1703H19.7671V12.3574L17.7869 11.2773C17.4325 12.0075 16.7724 12.5168 15.9767 12.5168C15.1811 12.5168 14.5209 12.0075 14.1666 11.2773L12.1864 12.3575V13.1703H11.4022V12.5168H10.7487V11.7326H11.6943L13.9254 10.5157C13.8548 10.079 13.8898 9.6062 14.003 9.21348L12.7109 8.50865H11.62V7.72444H12.2735V7.07088ZM15.9767 8.33434C15.2991 8.33434 14.6697 9.05067 14.6697 10.0335C14.6697 11.0163 15.2991 11.7326 15.9767 11.7326C16.6543 11.7326 17.2838 11.0163 17.2838 10.0335C17.2838 9.05067 16.6543 8.33434 15.9767 8.33434V8.33434ZM14.8876 9.33638H15.6718V10.0335H14.8876V9.33638ZM16.2817 9.33638H17.0659V10.0335H16.2817V9.33638ZM15.2797 10.3384H16.6738V11.1226H15.2797V10.3384ZM11.4165 14.5329C11.3629 14.7301 11.3207 14.9501 11.2882 15.1868C14.6767 14.4686 17.1843 14.4527 20.6393 15.1831C20.6079 14.9609 20.5698 14.7424 20.5228 14.5289C16.9711 13.273 14.9729 13.2804 11.4165 14.5329V14.5329ZM11.2177 15.989C11.1992 16.4011 11.2031 16.8463 11.2254 17.3099C11.4325 17.3116 11.6326 17.3113 11.8278 17.3095C12.1149 16.745 14.1717 16.2686 15.1212 17.0309C16.4728 16.7685 17.4624 16.319 18.4425 15.6705C15.9671 15.2276 13.1462 15.7135 11.2177 15.989V15.989ZM15.4385 17.7488C15.3182 18.9735 14.4769 19.7925 13.1884 19.7925C12.4299 19.7925 11.9665 19.1243 11.834 18.0925C11.6529 18.0945 11.469 18.0956 11.279 18.0944C11.421 19.478 11.6725 20.9604 11.9417 22.1815C12.5006 22.1347 13.2651 21.838 13.9565 21.4539C14.6177 21.0865 15.2271 20.6413 15.5709 20.3334C15.2603 20.3066 14.9548 20.2513 14.6555 20.1713L14.8582 19.4138C15.5863 19.6086 16.3152 19.6336 17.0903 19.4151L17.303 20.1699C17.0029 20.2545 16.6953 20.3098 16.3845 20.3351C16.7287 20.6429 17.337 21.0872 17.997 21.4539C18.6908 21.8393 19.4582 22.1368 20.0176 22.1821C20.4747 20.194 20.847 17.9757 20.7206 15.9868L19.766 15.8505C18.9716 16.2853 17.1331 17.3873 15.4385 17.7488V17.7488ZM21.5221 16.1432C21.5415 16.5269 21.5453 16.9148 21.5333 17.3054C21.864 17.6976 22.2453 18.0867 22.6766 18.4736C22.5445 18.3997 22.3952 18.3548 22.2335 18.3548C21.4574 18.4445 21.1338 19.1512 21.1274 19.7925C21.1523 20.4894 21.5584 21.2151 22.2335 21.2303C22.3084 21.2303 22.3805 21.2202 22.4497 21.2026C22.6797 22.121 23.0401 22.7859 23.771 23.3533C22.8378 24.0334 21.0028 24.0985 20.0231 23.9863C19.7932 24.2164 19.5568 24.4399 19.3141 24.6565C21.3516 24.9109 24.1168 24.9228 24.8506 23.1369C23.9911 22.639 23.4011 21.8114 23.2247 21.0958C24.4147 21.3586 25.4127 20.6659 25.4308 19.5827C23.9466 19.0955 22.2504 16.7992 21.5221 16.1432V16.1432ZM10.419 16.1456C9.13231 17.5366 7.80264 18.7294 6.29931 19.7316C7.17867 20.6897 8.62863 20.7902 9.57535 20.5314C8.42269 22.3093 7.56925 23.0674 6.03028 24.0935C8.17566 24.7046 10.7461 25.1307 12.6521 24.6679C12.4142 24.456 12.1823 24.2373 11.9568 24.0122C10.5768 24.1848 9.0911 24.0912 7.80639 23.8117C9.43768 22.5397 10.1165 21.2354 10.7292 20.0109C10.6892 19.756 10.6523 19.5007 10.6186 19.2449L10.2248 19.4418C9.20564 19.9514 8.24141 20.0174 7.62297 19.7776C8.78957 18.9566 9.72797 18.1298 10.4342 17.2888C10.4143 16.8952 10.4091 16.5134 10.4191 16.1456H10.419ZM19.4463 17.0042L20.0007 17.5587C19.7218 17.8378 19.3823 18.0213 19.0264 18.1421V18.8776H17.6323V18.3659C17.362 18.3751 17.1203 18.3707 16.9352 18.3707V17.5865C17.6323 17.5865 18.9341 17.5164 19.4463 17.0042V17.0042ZM23.0137 18.7664C23.4894 19.1683 24.0188 19.5682 24.6027 19.9668C24.3295 20.4552 23.6579 20.4162 23.2713 20.3C23.4036 19.7931 23.2931 19.147 23.0137 18.7664V18.7664ZM22.2335 19.139C22.4776 19.2223 22.553 19.5724 22.5554 19.7925C22.5364 19.9694 22.488 20.4404 22.2335 20.446C21.9894 20.3627 21.914 20.0126 21.9116 19.7925C21.9306 19.6156 21.979 19.1447 22.2335 19.139ZM15.9767 21.2351C15.7036 21.609 15.3608 21.9599 14.9799 22.2752C15.3701 22.1351 15.6604 22.0556 15.9777 22.0564C16.2963 22.0573 16.5862 22.1384 16.9775 22.2785C16.595 21.9624 16.2508 21.6103 15.9767 21.2351V21.2351ZM17.448 22.6361L17.2336 23.2095C16.7022 23.0108 16.3959 22.9015 16.1695 22.8602L17.596 25C18.2407 24.572 18.8036 24.0854 19.342 23.5581C18.6153 23.3201 17.9915 23.0161 17.448 22.6362V22.6361ZM14.5046 22.6367C13.9103 23.0206 13.2203 23.3946 12.6116 23.5581C13.1827 24.1084 13.7316 24.589 14.3574 25L15.785 22.8586C15.5591 22.8983 15.2543 23.0069 14.7216 23.2089L14.5046 22.6367Z" fill="#FECF06"/>
</svg>
