<svg width="26" height="22" viewBox="0 0 26 22" fill="none" xmlns="http://www.w3.org/2000/svg">
<path fill-rule="evenodd" clip-rule="evenodd" d="M15.3682 19.8225L15.3821 19.8047C15.3849 19.8011 15.3875 19.7975 15.3904 19.7939C15.395 19.7872 15.3994 19.7805 15.4038 19.7737C15.4058 19.7704 15.4082 19.767 15.4102 19.7637L15.4113 19.7621L18.1174 15.2545C18.1579 15.1869 18.1827 15.1108 18.1891 15.0321L19.0158 5.22199C19.016 5.21993 19.016 5.21786 19.016 5.21554C19.0168 5.20651 19.0171 5.19748 19.0173 5.18844C19.0173 5.18483 19.0176 5.18122 19.0176 5.1776C19.0176 5.16676 19.0173 5.15566 19.0165 5.14482L19.0163 5.14095C19.0155 5.13115 19.0145 5.12108 19.0132 5.11127L19.0124 5.10688C19.0119 5.10276 19.0111 5.09863 19.0104 5.0945C19.0091 5.08675 19.0078 5.07901 19.006 5.07153C19.0033 5.05892 19.0001 5.04643 18.9964 5.0341C18.9956 5.03101 18.9949 5.02791 18.9938 5.02481C18.9905 5.01371 18.9866 5.00287 18.9825 4.99203C18.9814 4.9892 18.9802 4.98661 18.9791 4.98403C18.9758 4.97577 18.9722 4.96777 18.9685 4.95977C18.967 4.95642 18.9652 4.9528 18.9636 4.94945C18.9598 4.94196 18.9559 4.93448 18.9518 4.92699C18.9502 4.9239 18.9484 4.92106 18.9469 4.91796C18.9409 4.9079 18.935 4.89809 18.9283 4.88854L18.9262 4.88544C18.9203 4.87693 18.9141 4.86867 18.9076 4.86041C18.9053 4.85731 18.9027 4.85447 18.9004 4.85137C18.8952 4.84518 18.8901 4.83899 18.8847 4.83305C18.8821 4.82995 18.8792 4.82711 18.8767 4.82427C18.8702 4.81731 18.8635 4.81085 18.8568 4.80414C18.855 4.80259 18.8534 4.80079 18.8519 4.79924C18.8434 4.7915 18.8349 4.78401 18.8258 4.77679C18.8227 4.77446 18.8199 4.77214 18.8168 4.76982C18.8103 4.76491 18.8036 4.76001 18.7969 4.75536C18.7936 4.75304 18.7899 4.75046 18.7863 4.74814C18.7788 4.74323 18.7714 4.73859 18.7636 4.73394C18.761 4.73239 18.7585 4.73059 18.7556 4.72904L18.7536 4.72775L12.2199 1.06594C12.1212 1.01056 12.007 0.989196 11.8949 1.00515C11.7828 1.0211 11.6791 1.07348 11.5998 1.1542L10.9522 1.81208C10.7522 2.0152 11.2966 2.30024 11.5 2.5C11.7031 2.70002 11.488 2.73941 11.688 2.53603L12.0592 2.15896L17.6456 5.29039L13.7164 9.11067L8.29463 5.9844L11.688 2.53603C11.888 2.33291 11.7034 2.19976 11.5 2C11.2969 1.79998 11.152 1.6087 10.9522 1.81208L7.09063 5.73637L7.08753 5.73973C7.08521 5.74205 7.08288 5.74463 7.08056 5.74721C7.07437 5.75392 7.06843 5.76063 7.0625 5.7676C7.06017 5.77044 7.05759 5.77328 7.05527 5.77638C7.04804 5.78541 7.04081 5.7947 7.03436 5.80425L7.03178 5.80812C7.02585 5.8169 7.02017 5.82593 7.01475 5.83496C7.01268 5.83832 7.01088 5.84193 7.00881 5.84529C7.00468 5.85277 7.00055 5.86051 6.99668 5.86826L6.99204 5.87755C6.98713 5.88813 6.98249 5.89871 6.9781 5.90955C6.97707 5.91187 6.97629 5.9142 6.97552 5.91652C6.97216 5.92555 6.96907 5.93459 6.96623 5.94362L6.96313 5.95394C6.96055 5.96323 6.95797 5.97227 6.9559 5.98156C6.95539 5.98388 6.95461 5.98621 6.9541 5.98879C6.95091 6.00319 6.94849 6.01775 6.94687 6.0324C6.94584 6.04144 6.9448 6.05047 6.94403 6.05976L6.94326 6.07086C6.94274 6.08067 6.94248 6.09022 6.94248 6.10002V6.10699C6.94274 6.11861 6.94326 6.13022 6.94429 6.14183C6.94455 6.14571 6.94506 6.14958 6.94558 6.15371C6.9461 6.15835 6.94635 6.163 6.94713 6.16764C6.94764 6.17126 6.94842 6.17487 6.94893 6.17848C6.94971 6.18261 6.95022 6.18674 6.951 6.19087C6.95306 6.20145 6.95513 6.21229 6.95771 6.22262L6.95848 6.22597C6.96158 6.23759 6.96494 6.2492 6.96881 6.26056C6.96984 6.26365 6.97113 6.26701 6.97216 6.27011C6.97552 6.27966 6.97913 6.28895 6.983 6.29824L6.98507 6.3034L11.862 17.5433C11.8948 17.6187 11.9448 17.685 12.0083 17.7371L14.6414 19.8953L14.6429 19.8966C14.654 19.9056 14.6654 19.9141 14.6772 19.9224L14.6816 19.9252C14.692 19.9322 14.7025 19.9387 14.7131 19.9449L14.7263 19.9518C14.7343 19.9562 14.7425 19.9603 14.7508 19.9642C14.756 19.9665 14.7614 19.9689 14.7668 19.9712C14.7745 19.9745 14.782 19.9776 14.7898 19.9805C14.7957 19.9825 14.8016 19.9846 14.8076 19.9864L14.83 19.9934C14.8362 19.9952 14.8427 19.9967 14.8489 19.9983C14.8527 19.9993 14.8566 20.0003 14.8605 20.0011C14.8659 20.0024 14.8713 20.0032 14.8767 20.0042C14.8791 20.0047 14.8811 20.005 14.8835 20.0055C14.8964 20.0076 14.909 20.0094 14.9219 20.0104C14.9242 20.0107 14.9263 20.0107 14.9286 20.0109C14.942 20.012 14.9552 20.0127 14.9686 20.0127C14.9766 20.0127 14.9849 20.0122 14.9929 20.012C14.9955 20.012 14.9981 20.012 15.0006 20.0117C15.0068 20.0112 15.013 20.0107 15.0195 20.0099C15.0241 20.0094 15.0288 20.0091 15.0334 20.0086C15.0388 20.0078 15.0443 20.0068 15.0499 20.006C15.0554 20.0053 15.0605 20.0045 15.0659 20.0034C15.0708 20.0024 15.0757 20.0014 15.0806 20.0001L15.0979 19.9962C15.1026 19.9949 15.1072 19.9936 15.1116 19.9923C15.1176 19.9905 15.1235 19.989 15.1292 19.9872C15.1338 19.9856 15.1382 19.9838 15.1428 19.9823L15.1599 19.9761C15.1648 19.9743 15.1694 19.972 15.1741 19.9699C15.1792 19.9676 15.1847 19.9655 15.1898 19.9629C15.195 19.9606 15.1999 19.9578 15.2048 19.9552C15.2087 19.9531 15.2128 19.9513 15.2169 19.949L15.2187 19.948C15.2293 19.942 15.2399 19.9358 15.2502 19.9291L15.2538 19.9265C15.2626 19.9206 15.2714 19.9147 15.2796 19.9082C15.283 19.9056 15.2861 19.903 15.2892 19.9005C15.2954 19.8956 15.3016 19.8904 15.3075 19.8852C15.3111 19.8821 15.3145 19.879 15.3178 19.8759L15.3341 19.8605C15.3374 19.8571 15.3408 19.8538 15.3439 19.8501C15.3491 19.8447 15.354 19.8393 15.3586 19.8336L15.3682 19.8225ZM17.1702 14.8256L15.3011 17.9392L14.3394 9.94482L17.8709 6.51116L17.1702 14.8256ZM8.55375 7.32545L13.3148 10.0708L14.3025 18.2827L12.7591 17.0178L8.55375 7.32545Z" fill="#33FF7A"/>
<path fill-rule="evenodd" clip-rule="evenodd" d="M11.6638 18.2285C11.663 18.1439 11.6416 18.0608 11.601 17.9867L7.42021 10.2976L7.41815 10.294C7.41092 10.2809 7.40292 10.268 7.3944 10.2553C7.39259 10.2527 7.39079 10.2501 7.38898 10.2478C7.38588 10.2434 7.38279 10.2388 7.37969 10.2344C7.37479 10.2279 7.36962 10.2215 7.36446 10.2153C7.3624 10.213 7.36059 10.2104 7.35853 10.2081C7.35001 10.1983 7.34123 10.1887 7.33194 10.1797C7.32885 10.1766 7.32575 10.1732 7.32239 10.1701C7.31284 10.1611 7.30304 10.1523 7.29271 10.1441C7.2891 10.1412 7.28574 10.1384 7.28213 10.1358C7.27181 10.1278 7.26123 10.1201 7.25039 10.1128C7.24806 10.1113 7.24574 10.1097 7.24316 10.1085C7.23232 10.1017 7.22122 10.0953 7.21012 10.0894L7.20161 10.0847C7.18896 10.0783 7.17631 10.0723 7.16315 10.0672C7.16057 10.0661 7.15773 10.0651 7.15515 10.0641C7.14147 10.0586 7.12753 10.0537 7.11334 10.0496L7.11153 10.0491C7.0976 10.045 7.08366 10.0416 7.06946 10.0388L7.06198 10.0372C7.04804 10.0346 7.0341 10.0326 7.01991 10.031C7.01655 10.0308 7.01294 10.0305 7.00959 10.03C6.99642 10.029 6.983 10.0282 6.96958 10.0282H6.9639L2.51233 10.0395C2.27953 10.0401 2.07616 10.1965 2.01525 10.421L1.01746 14.1128C1.01436 14.1241 1.01178 14.1355 1.00972 14.1468C1.00894 14.1504 1.00843 14.154 1.00791 14.1577C1.00636 14.1662 1.00507 14.1747 1.00404 14.1832C1.00352 14.1871 1.00301 14.191 1.00275 14.1946C1.00172 14.2057 1.00069 14.2168 1.00043 14.2276L1.00017 14.2315C0.999911 14.2426 0.999911 14.2537 1.00043 14.2648C1.00043 14.2684 1.00069 14.2723 1.00094 14.2759C1.00146 14.2844 1.00223 14.2929 1.00301 14.3017C1.00327 14.305 1.00378 14.3086 1.00404 14.312C1.00559 14.3236 1.00714 14.3352 1.00946 14.3466L1.01024 14.3497C1.0123 14.3603 1.01488 14.3708 1.01772 14.3812C1.01875 14.3845 1.01953 14.3879 1.02056 14.3912C1.02314 14.3997 1.02572 14.4083 1.02856 14.4165L1.03166 14.4258C1.03579 14.4369 1.03992 14.4478 1.04482 14.4583L1.04714 14.463C1.05127 14.472 1.05566 14.481 1.06056 14.4898C1.06237 14.4934 1.06443 14.4968 1.06624 14.5004C1.07037 14.5076 1.0745 14.5146 1.07889 14.5216L1.08508 14.5316C1.09128 14.5409 1.09773 14.5502 1.1047 14.5595C1.10625 14.5616 1.10831 14.5642 1.10986 14.5662C1.11579 14.5737 1.12173 14.5809 1.12793 14.5879C1.13051 14.591 1.13335 14.5938 1.13593 14.5969C1.14186 14.6036 1.14831 14.6098 1.15451 14.6163C1.16536 14.627 1.17673 14.6372 1.18858 14.6467L1.19013 14.648L8.22985 20.3808C8.31011 20.4461 8.40793 20.4858 8.51091 20.4949L11.1207 20.7227C11.1352 20.724 11.1496 20.7246 11.1641 20.7246H11.1669C11.1809 20.7246 11.1945 20.7238 11.2085 20.7227C11.2129 20.7225 11.217 20.722 11.2214 20.7215C11.2317 20.7204 11.242 20.7189 11.2524 20.7171L11.2653 20.7147C11.2784 20.7122 11.2916 20.7091 11.3045 20.7057L11.3071 20.7049C11.321 20.7011 11.335 20.6962 11.3484 20.691L11.3525 20.6897C11.3556 20.6884 11.3584 20.6871 11.3613 20.6858C11.3685 20.683 11.3755 20.6799 11.3824 20.6768C11.3873 20.6745 11.392 20.6722 11.3969 20.6698C11.4033 20.6667 11.4095 20.6634 11.4157 20.6598C11.4206 20.6569 11.4255 20.6544 11.4304 20.6515C11.4364 20.6479 11.4421 20.6443 11.4477 20.6407C11.4524 20.6376 11.4573 20.6345 11.4619 20.6314C11.4676 20.6273 11.4733 20.6231 11.479 20.6187C11.4834 20.6154 11.4875 20.6123 11.4916 20.6089C11.4978 20.604 11.5037 20.5986 11.5094 20.5934C11.5128 20.5906 11.5161 20.5878 11.5195 20.5847C11.5283 20.5764 11.5365 20.5682 11.5448 20.5594L11.5456 20.5586C11.5541 20.5493 11.5623 20.5398 11.5701 20.53C11.5716 20.5279 11.5732 20.5256 11.575 20.5235C11.5809 20.5158 11.5869 20.508 11.5923 20.5C11.5949 20.4964 11.5972 20.4923 11.5995 20.4887C11.6039 20.4819 11.608 20.4755 11.6121 20.4685C11.615 20.4639 11.6173 20.459 11.6199 20.4541C11.6225 20.4492 11.6253 20.4445 11.6279 20.4396L11.6297 20.4357C11.6328 20.4293 11.6356 20.4228 11.6385 20.4164C11.6408 20.411 11.6434 20.4056 11.6457 20.4001C11.6483 20.3939 11.6503 20.3875 11.6527 20.381C11.6547 20.3751 11.6568 20.3694 11.6589 20.3635C11.6607 20.3573 11.6625 20.3511 11.664 20.3449C11.6658 20.3387 11.6676 20.3323 11.6689 20.3261C11.6702 20.3201 11.6715 20.3142 11.6725 20.308C11.6738 20.3013 11.6754 20.2946 11.6764 20.2876C11.6772 20.2819 11.678 20.276 11.6785 20.2703C11.6792 20.2631 11.6803 20.2561 11.6808 20.2489C11.6813 20.2432 11.6813 20.2375 11.6816 20.2319L11.6823 20.2097C11.6823 20.2097 11.6826 20.206 11.6826 20.204L11.6638 18.2285ZM10.6368 18.8438L6.44204 14.1584L7.10973 11.888L10.6327 18.3666L10.6368 18.8438ZM2.90954 11.0709L6.27635 11.0624L5.48065 13.7687L2.18843 13.7377L2.90954 11.0709ZM2.98412 14.7773L5.63292 14.8024L9.91028 19.5804L8.75816 19.4798L2.98412 14.7773Z" fill="#33FF7A"/>
<path fill-rule="evenodd" clip-rule="evenodd" d="M24.8889 15.1451C24.8964 15.1358 24.9036 15.126 24.9103 15.1162C24.9116 15.1141 24.9129 15.1121 24.9145 15.11C24.9196 15.102 24.9248 15.094 24.9297 15.0858L24.9359 15.0749C24.9374 15.0723 24.939 15.0698 24.9403 15.0672C24.9431 15.062 24.9454 15.0566 24.948 15.0512C24.9496 15.0483 24.9509 15.0452 24.9524 15.0424C24.9573 15.0318 24.9617 15.0212 24.9658 15.0104C24.9671 15.0073 24.9682 15.0042 24.9692 15.0008C24.9723 14.9926 24.9751 14.9841 24.9777 14.9756L24.9808 14.965C24.9836 14.9546 24.9862 14.9443 24.9885 14.934L24.9893 14.9304C24.9916 14.9188 24.9937 14.9072 24.9953 14.8955C24.9958 14.8922 24.996 14.8888 24.9965 14.8855C24.9976 14.8764 24.9983 14.8677 24.9989 14.8586C24.9991 14.8553 24.9994 14.8519 24.9994 14.8486C24.9999 14.837 25.0002 14.8251 24.9999 14.8135C24.9999 14.8114 24.9996 14.8091 24.9996 14.807C24.9994 14.7972 24.9986 14.7877 24.9978 14.7779C24.9976 14.774 24.9971 14.7701 24.9965 14.766C24.9955 14.7572 24.9942 14.7484 24.9927 14.7394C24.9922 14.7363 24.9916 14.7332 24.9911 14.7298C24.9891 14.7185 24.9865 14.7071 24.9836 14.696C24.9829 14.6927 24.9818 14.6893 24.9808 14.6857C24.9785 14.6772 24.9759 14.6687 24.9731 14.6604C24.9718 14.6568 24.9707 14.6532 24.9692 14.6496C24.9651 14.6382 24.9609 14.6271 24.956 14.6163L23.8509 12.1198C23.7623 11.9197 23.5574 11.7974 23.3391 11.8139L20.7393 12.0147C20.7354 12.015 20.7311 12.0155 20.7269 12.016C20.7197 12.0168 20.7125 12.0176 20.7052 12.0186C20.7003 12.0194 20.6954 12.0201 20.6905 12.0212C20.6843 12.0222 20.6781 12.0235 20.6717 12.0248C20.6668 12.0258 20.6619 12.0269 20.657 12.0281C20.6508 12.0297 20.6443 12.0315 20.6381 12.033L20.6247 12.0369C20.617 12.0392 20.6095 12.0421 20.602 12.0447C20.5992 12.0457 20.5961 12.0467 20.5932 12.0478C20.5832 12.0516 20.5731 12.056 20.5633 12.0604C20.5599 12.062 20.5566 12.0638 20.553 12.0653C20.5463 12.0687 20.5398 12.0718 20.5331 12.0754C20.5292 12.0774 20.5256 12.0795 20.5217 12.0818C20.5155 12.0854 20.5096 12.0891 20.5037 12.0927L20.4928 12.0996C20.4864 12.1038 20.4804 12.1082 20.4743 12.1128C20.4714 12.1149 20.4683 12.1169 20.4655 12.1192C20.4567 12.126 20.4482 12.1329 20.4399 12.1402C20.4381 12.1417 20.4366 12.1433 20.4348 12.1448C20.4281 12.1507 20.4216 12.1567 20.4154 12.1631C20.4126 12.166 20.4097 12.1691 20.4069 12.1719C20.4017 12.1771 20.3968 12.1825 20.3919 12.1879C20.3891 12.1913 20.3862 12.1944 20.3834 12.1977C20.3785 12.2034 20.3739 12.2093 20.3695 12.2153C20.3671 12.2184 20.3646 12.2215 20.3622 12.2248C20.3566 12.2328 20.3509 12.2408 20.3455 12.2491L20.3429 12.2529C20.3367 12.2625 20.3308 12.2731 20.3253 12.2831L20.324 12.2852L17.062 18.3486C17.0207 18.4252 16.9996 18.5109 17.0003 18.5981L17.0166 20.3095C17.0166 20.316 17.0171 20.3224 17.0176 20.3292C17.0179 20.3356 17.0179 20.3421 17.0187 20.3485C17.0194 20.3565 17.0205 20.3643 17.0215 20.372C17.0223 20.3774 17.0225 20.3828 17.0236 20.3883C17.0254 20.3999 17.0279 20.4115 17.0305 20.4228C17.031 20.4252 17.0316 20.4277 17.0323 20.4301C17.0354 20.4422 17.0388 20.4541 17.0427 20.4659C17.044 20.4703 17.0458 20.4745 17.0473 20.4786C17.0504 20.4869 17.0532 20.4954 17.0566 20.5034C17.0587 20.508 17.061 20.5127 17.063 20.5173C17.0664 20.5248 17.07 20.5325 17.0736 20.5398C17.076 20.5444 17.0788 20.5491 17.0814 20.5537C17.0852 20.5609 17.0894 20.5679 17.0935 20.5751L17.0961 20.5798C17.0992 20.5847 17.1025 20.5893 17.1059 20.5942C17.1082 20.5976 17.1105 20.6012 17.1129 20.6045C17.1193 20.6136 17.1258 20.6221 17.1327 20.6306L17.1348 20.6332C17.1425 20.6427 17.1508 20.6518 17.1591 20.6605C17.1609 20.6626 17.1629 20.6644 17.165 20.6665C17.1714 20.6732 17.1782 20.6796 17.1849 20.6858C17.1877 20.6884 17.1908 20.6913 17.1939 20.6938C17.2001 20.6993 17.2063 20.7044 17.2125 20.7093C17.2158 20.7122 17.2195 20.7147 17.2228 20.7173C17.2293 20.7222 17.2357 20.7266 17.2422 20.7313C17.2458 20.7336 17.2491 20.7362 17.2527 20.7385C17.2607 20.7437 17.2687 20.7483 17.2768 20.7529C17.2791 20.7542 17.2814 20.7558 17.2837 20.7571C17.2943 20.7628 17.3051 20.7682 17.316 20.7733C17.3191 20.7746 17.3222 20.7759 17.3253 20.7775C17.3335 20.7811 17.3418 20.7844 17.35 20.7875L17.355 20.7896C17.357 20.7904 17.3609 20.7914 17.3609 20.7914C17.3715 20.795 17.3821 20.7986 17.3929 20.8015L17.4009 20.8038C17.4138 20.8071 17.4267 20.81 17.4399 20.8126L17.4497 20.8141C17.46 20.8157 17.4703 20.8172 17.4809 20.8182C17.4848 20.8185 17.4884 20.819 17.4923 20.8193C17.5057 20.8203 17.5188 20.8211 17.5323 20.8211H17.5348C17.5441 20.8211 17.5537 20.8208 17.563 20.82L17.5738 20.8193C17.5805 20.8188 17.5875 20.818 17.5942 20.8172L17.6058 20.8157C17.6128 20.8146 17.6195 20.8136 17.6265 20.8123C17.6301 20.8115 17.6334 20.811 17.637 20.8102C17.6463 20.8084 17.6556 20.8061 17.6647 20.8038L17.6672 20.8033L20.0706 20.1521C20.1627 20.1271 20.2461 20.0773 20.3114 20.0078L24.859 15.1797C24.859 15.1797 24.8616 15.1769 24.8629 15.1753C24.8696 15.1681 24.876 15.1606 24.8825 15.1529C24.885 15.15 24.8871 15.1474 24.8889 15.1451ZM23.7466 14.4346L22.172 14.7203L21.5089 12.9911L23.0547 12.8718L23.7466 14.4346ZM20.7003 13.7656L21.2509 15.2014L18.0363 18.9303L18.0343 18.7207L20.7003 13.7656ZM19.6605 19.1933L19.0235 19.366L22.1149 15.7798L23.0325 15.6133L19.6605 19.1933Z" fill="#33FF7A"/>
<path d="M10.9522 1.81208L11.5998 1.1542C11.6791 1.07348 11.7828 1.0211 11.8949 1.00515C12.007 0.989196 12.1212 1.01056 12.2199 1.06594L18.7536 4.72775L18.7556 4.72904C18.7585 4.73059 18.761 4.73239 18.7636 4.73394C18.7714 4.73859 18.7788 4.74323 18.7863 4.74814C18.7899 4.75046 18.7936 4.75304 18.7969 4.75536C18.8036 4.76001 18.8103 4.76491 18.8168 4.76982C18.8199 4.77214 18.8227 4.77446 18.8258 4.77679C18.8349 4.78401 18.8434 4.7915 18.8519 4.79924C18.8534 4.80079 18.855 4.80259 18.8568 4.80414C18.8635 4.81085 18.8702 4.81731 18.8767 4.82427C18.8792 4.82711 18.8821 4.82995 18.8847 4.83305C18.8901 4.83899 18.8952 4.84518 18.9004 4.85137C18.9027 4.85447 18.9053 4.85731 18.9076 4.86041C18.9141 4.86867 18.9203 4.87693 18.9262 4.88544L18.9283 4.88854C18.935 4.89809 18.9409 4.9079 18.9469 4.91796C18.9484 4.92106 18.9502 4.9239 18.9518 4.92699C18.9559 4.93448 18.9598 4.94196 18.9636 4.94945C18.9652 4.9528 18.967 4.95642 18.9685 4.95977C18.9722 4.96777 18.9758 4.97577 18.9791 4.98403C18.9802 4.98661 18.9814 4.9892 18.9825 4.99203C18.9866 5.00287 18.9905 5.01371 18.9938 5.02481C18.9949 5.02791 18.9956 5.03101 18.9964 5.0341C19.0001 5.04643 19.0033 5.05892 19.006 5.07153C19.0078 5.07901 19.0091 5.08675 19.0104 5.0945C19.0111 5.09863 19.0119 5.10276 19.0124 5.10688L19.0132 5.11127C19.0145 5.12108 19.0155 5.13115 19.0163 5.14095L19.0165 5.14482C19.0173 5.15566 19.0176 5.16676 19.0176 5.1776C19.0176 5.18122 19.0173 5.18483 19.0173 5.18844C19.0171 5.19748 19.0168 5.20651 19.016 5.21554C19.016 5.21787 19.016 5.21993 19.0158 5.22199L18.1891 15.0321C18.1827 15.1108 18.1579 15.1869 18.1174 15.2545L15.4113 19.7621L15.4102 19.7637C15.4082 19.767 15.4058 19.7704 15.4038 19.7737C15.3994 19.7805 15.395 19.7872 15.3904 19.7939C15.3875 19.7975 15.3849 19.8011 15.3821 19.8047L15.3682 19.8225L15.3586 19.8336C15.354 19.8393 15.3491 19.8447 15.3439 19.8501C15.3408 19.8538 15.3374 19.8571 15.3341 19.8605L15.3178 19.8759C15.3145 19.879 15.3111 19.8821 15.3075 19.8852C15.3016 19.8904 15.2954 19.8956 15.2892 19.9005C15.2861 19.903 15.283 19.9056 15.2796 19.9082C15.2714 19.9147 15.2626 19.9206 15.2538 19.9265L15.2502 19.9291C15.2399 19.9358 15.2293 19.942 15.2187 19.948L15.2169 19.949C15.2128 19.9513 15.2087 19.9531 15.2048 19.9552C15.1999 19.9578 15.195 19.9606 15.1898 19.9629C15.1847 19.9655 15.1792 19.9676 15.1741 19.9699C15.1694 19.972 15.1648 19.9743 15.1599 19.9761L15.1428 19.9823C15.1382 19.9838 15.1338 19.9856 15.1292 19.9872C15.1235 19.989 15.1176 19.9905 15.1116 19.9923C15.1072 19.9936 15.1026 19.9949 15.0979 19.9962L15.0806 20.0001C15.0757 20.0014 15.0708 20.0024 15.0659 20.0034C15.0605 20.0045 15.0554 20.0053 15.0499 20.006C15.0443 20.0068 15.0388 20.0078 15.0334 20.0086C15.0288 20.0091 15.0241 20.0094 15.0195 20.0099C15.013 20.0107 15.0068 20.0112 15.0006 20.0117C14.9981 20.012 14.9955 20.012 14.9929 20.012C14.9849 20.0122 14.9766 20.0127 14.9686 20.0127C14.9552 20.0127 14.942 20.012 14.9286 20.0109C14.9263 20.0107 14.9242 20.0107 14.9219 20.0104C14.909 20.0094 14.8964 20.0076 14.8835 20.0055C14.8811 20.005 14.8791 20.0047 14.8767 20.0042C14.8713 20.0032 14.8659 20.0024 14.8605 20.0011C14.8566 20.0003 14.8527 19.9993 14.8489 19.9983C14.8427 19.9967 14.8362 19.9952 14.83 19.9934L14.8076 19.9864C14.8016 19.9846 14.7957 19.9825 14.7898 19.9805C14.782 19.9776 14.7745 19.9745 14.7668 19.9712C14.7614 19.9689 14.756 19.9665 14.7508 19.9642C14.7425 19.9603 14.7343 19.9562 14.7263 19.9518L14.7131 19.9449C14.7025 19.9387 14.692 19.9322 14.6816 19.9252L14.6772 19.9224C14.6654 19.9141 14.654 19.9056 14.6429 19.8966L14.6414 19.8953L12.0083 17.7371C11.9448 17.685 11.8948 17.6187 11.862 17.5433L6.98507 6.3034L6.983 6.29824C6.97913 6.28895 6.97552 6.27966 6.97216 6.27011C6.97113 6.26701 6.96984 6.26365 6.96881 6.26056C6.96494 6.2492 6.96158 6.23759 6.95848 6.22597L6.95771 6.22262C6.95513 6.21229 6.95306 6.20145 6.951 6.19087C6.95022 6.18674 6.94971 6.18261 6.94893 6.17848C6.94842 6.17487 6.94764 6.17126 6.94713 6.16764C6.94635 6.163 6.9461 6.15835 6.94558 6.15371C6.94506 6.14958 6.94455 6.14571 6.94429 6.14183C6.94326 6.13022 6.94274 6.11861 6.94248 6.10699V6.10002C6.94248 6.09022 6.94274 6.08067 6.94326 6.07086L6.94403 6.05976C6.9448 6.05047 6.94584 6.04144 6.94687 6.0324C6.94849 6.01775 6.95091 6.00319 6.9541 5.98879C6.95461 5.98621 6.95539 5.98388 6.9559 5.98156C6.95797 5.97227 6.96055 5.96323 6.96313 5.95394L6.96623 5.94362C6.96907 5.93459 6.97216 5.92555 6.97552 5.91652C6.97629 5.9142 6.97707 5.91187 6.9781 5.90955C6.98249 5.89871 6.98713 5.88813 6.99204 5.87755L6.99668 5.86826C7.00055 5.86051 7.00468 5.85277 7.00881 5.84529C7.01088 5.84193 7.01268 5.83832 7.01475 5.83496C7.02017 5.82593 7.02585 5.8169 7.03178 5.80812L7.03436 5.80425C7.04082 5.7947 7.04804 5.78541 7.05527 5.77638C7.05759 5.77328 7.06017 5.77044 7.0625 5.7676C7.06843 5.76063 7.07437 5.75392 7.08056 5.74721C7.08288 5.74463 7.08521 5.74205 7.08753 5.73973L7.09063 5.73637L10.9522 1.81208ZM10.9522 1.81208C10.7522 2.0152 11.2966 2.30024 11.5 2.5C11.7031 2.70002 11.488 2.73941 11.688 2.53603M10.9522 1.81208C11.152 1.6087 11.2969 1.79998 11.5 2C11.7034 2.19976 11.888 2.33291 11.688 2.53603M11.688 2.53603L12.0592 2.15896L17.6456 5.29039L13.7164 9.11067L8.29463 5.9844L11.688 2.53603ZM17.1702 14.8256L15.3011 17.9392L14.3394 9.94482L17.8709 6.51116L17.1702 14.8256ZM8.55375 7.32545L12.7591 17.0178L14.3025 18.2827L13.3148 10.0708L8.55375 7.32545ZM11.6638 18.2285C11.663 18.1439 11.6416 18.0608 11.601 17.9867L7.42021 10.2976L7.41815 10.294C7.41092 10.2809 7.40292 10.268 7.3944 10.2553C7.39259 10.2527 7.39079 10.2501 7.38898 10.2478C7.38588 10.2434 7.38279 10.2388 7.37969 10.2344C7.37479 10.2279 7.36962 10.2215 7.36446 10.2153C7.3624 10.213 7.36059 10.2104 7.35853 10.2081C7.35001 10.1983 7.34123 10.1887 7.33194 10.1797C7.32885 10.1766 7.32575 10.1732 7.32239 10.1701C7.31284 10.1611 7.30304 10.1523 7.29271 10.1441C7.2891 10.1412 7.28574 10.1384 7.28213 10.1358C7.27181 10.1278 7.26123 10.1201 7.25039 10.1128C7.24806 10.1113 7.24574 10.1097 7.24316 10.1085C7.23232 10.1017 7.22122 10.0953 7.21012 10.0894L7.20161 10.0847C7.18896 10.0783 7.17631 10.0723 7.16315 10.0672C7.16057 10.0661 7.15773 10.0651 7.15515 10.0641C7.14147 10.0586 7.12753 10.0537 7.11334 10.0496L7.11153 10.0491C7.0976 10.045 7.08366 10.0416 7.06946 10.0388L7.06198 10.0372C7.04804 10.0346 7.0341 10.0326 7.01991 10.031C7.01655 10.0308 7.01294 10.0305 7.00959 10.03C6.99642 10.029 6.983 10.0282 6.96958 10.0282H6.9639L2.51233 10.0395C2.27953 10.0401 2.07616 10.1965 2.01525 10.421L1.01746 14.1128C1.01436 14.1241 1.01178 14.1355 1.00972 14.1468C1.00894 14.1504 1.00843 14.154 1.00791 14.1577C1.00636 14.1662 1.00507 14.1747 1.00404 14.1832C1.00352 14.1871 1.00301 14.191 1.00275 14.1946C1.00172 14.2057 1.00069 14.2168 1.00043 14.2276L1.00017 14.2315C0.999911 14.2426 0.999911 14.2537 1.00043 14.2648C1.00043 14.2684 1.00069 14.2723 1.00094 14.2759C1.00146 14.2844 1.00223 14.2929 1.00301 14.3017C1.00327 14.305 1.00378 14.3086 1.00404 14.312C1.00559 14.3236 1.00714 14.3352 1.00946 14.3466L1.01024 14.3497C1.0123 14.3603 1.01488 14.3708 1.01772 14.3812C1.01875 14.3845 1.01953 14.3879 1.02056 14.3912C1.02314 14.3997 1.02572 14.4083 1.02856 14.4165L1.03166 14.4258C1.03579 14.4369 1.03992 14.4478 1.04482 14.4583L1.04714 14.463C1.05127 14.472 1.05566 14.481 1.06056 14.4898C1.06237 14.4934 1.06443 14.4968 1.06624 14.5004C1.07037 14.5076 1.0745 14.5146 1.07889 14.5216L1.08508 14.5316C1.09128 14.5409 1.09773 14.5502 1.1047 14.5595C1.10625 14.5616 1.10831 14.5642 1.10986 14.5662C1.11579 14.5737 1.12173 14.5809 1.12793 14.5879C1.13051 14.591 1.13335 14.5938 1.13593 14.5969C1.14186 14.6036 1.14831 14.6098 1.15451 14.6163C1.16536 14.627 1.17673 14.6372 1.18858 14.6467L1.19013 14.648L8.22985 20.3808C8.31011 20.4461 8.40793 20.4858 8.51091 20.4949L11.1207 20.7227C11.1352 20.724 11.1496 20.7246 11.1641 20.7246H11.1669C11.1809 20.7246 11.1945 20.7238 11.2085 20.7227C11.2129 20.7225 11.217 20.722 11.2214 20.7215C11.2317 20.7204 11.242 20.7189 11.2524 20.7171L11.2653 20.7147C11.2784 20.7122 11.2916 20.7091 11.3045 20.7057L11.3071 20.7049C11.321 20.7011 11.335 20.6962 11.3484 20.691L11.3525 20.6897C11.3556 20.6884 11.3584 20.6871 11.3613 20.6858C11.3685 20.683 11.3755 20.6799 11.3824 20.6768C11.3873 20.6745 11.392 20.6722 11.3969 20.6698C11.4033 20.6667 11.4095 20.6634 11.4157 20.6598C11.4206 20.6569 11.4255 20.6544 11.4304 20.6515C11.4364 20.6479 11.4421 20.6443 11.4477 20.6407C11.4524 20.6376 11.4573 20.6345 11.4619 20.6314C11.4676 20.6273 11.4733 20.6231 11.479 20.6187C11.4834 20.6154 11.4875 20.6123 11.4916 20.6089C11.4978 20.604 11.5037 20.5986 11.5094 20.5934C11.5128 20.5906 11.5161 20.5878 11.5195 20.5847C11.5283 20.5764 11.5365 20.5682 11.5448 20.5594L11.5456 20.5586C11.5541 20.5493 11.5623 20.5398 11.5701 20.53C11.5716 20.5279 11.5732 20.5256 11.575 20.5235C11.5809 20.5158 11.5868 20.508 11.5923 20.5C11.5949 20.4964 11.5972 20.4923 11.5995 20.4887C11.6039 20.4819 11.608 20.4755 11.6121 20.4685C11.615 20.4639 11.6173 20.459 11.6199 20.4541C11.6225 20.4492 11.6253 20.4445 11.6279 20.4396L11.6297 20.4357C11.6328 20.4293 11.6356 20.4228 11.6385 20.4164C11.6408 20.411 11.6434 20.4056 11.6457 20.4001C11.6483 20.3939 11.6503 20.3875 11.6527 20.381C11.6547 20.3751 11.6568 20.3694 11.6589 20.3635C11.6607 20.3573 11.6625 20.3511 11.664 20.3449C11.6658 20.3387 11.6676 20.3323 11.6689 20.3261C11.6702 20.3201 11.6715 20.3142 11.6725 20.308C11.6738 20.3013 11.6754 20.2946 11.6764 20.2876C11.6772 20.2819 11.678 20.276 11.6785 20.2703C11.6792 20.2631 11.6803 20.2561 11.6808 20.2489C11.6813 20.2432 11.6813 20.2375 11.6816 20.2319L11.6823 20.2097C11.6823 20.2097 11.6826 20.206 11.6826 20.204L11.6638 18.2285ZM10.6368 18.8438L10.6327 18.3666L7.10973 11.888L6.44204 14.1584L10.6368 18.8438ZM2.90954 11.0709L6.27635 11.0624L5.48065 13.7687L2.18843 13.7377L2.90954 11.0709ZM2.98412 14.7773L8.75816 19.4798L9.91028 19.5804L5.63292 14.8024L2.98412 14.7773ZM24.8889 15.1451C24.8964 15.1358 24.9036 15.126 24.9103 15.1162C24.9116 15.1141 24.9129 15.1121 24.9145 15.11C24.9196 15.102 24.9248 15.094 24.9297 15.0858L24.9359 15.0749C24.9374 15.0723 24.939 15.0698 24.9403 15.0672C24.9431 15.062 24.9454 15.0566 24.948 15.0512C24.9496 15.0483 24.9509 15.0452 24.9524 15.0424C24.9573 15.0318 24.9617 15.0212 24.9658 15.0104C24.9671 15.0073 24.9682 15.0042 24.9692 15.0008C24.9723 14.9926 24.9751 14.9841 24.9777 14.9756L24.9808 14.965C24.9836 14.9546 24.9862 14.9443 24.9885 14.934L24.9893 14.9304C24.9916 14.9188 24.9937 14.9072 24.9953 14.8955C24.9958 14.8922 24.996 14.8888 24.9965 14.8855C24.9976 14.8764 24.9983 14.8677 24.9989 14.8586C24.9991 14.8553 24.9994 14.8519 24.9994 14.8486C24.9999 14.837 25.0002 14.8251 24.9999 14.8135C24.9999 14.8114 24.9996 14.8091 24.9996 14.807C24.9994 14.7972 24.9986 14.7877 24.9978 14.7779C24.9976 14.774 24.9971 14.7701 24.9965 14.766C24.9955 14.7572 24.9942 14.7484 24.9927 14.7394C24.9922 14.7363 24.9916 14.7332 24.9911 14.7298C24.9891 14.7185 24.9865 14.7071 24.9836 14.696C24.9829 14.6927 24.9818 14.6893 24.9808 14.6857C24.9785 14.6772 24.9759 14.6687 24.9731 14.6604C24.9718 14.6568 24.9707 14.6532 24.9692 14.6496C24.9651 14.6382 24.9609 14.6271 24.956 14.6163L23.8509 12.1198C23.7623 11.9197 23.5574 11.7974 23.3391 11.8139L20.7393 12.0147C20.7354 12.015 20.7311 12.0155 20.7269 12.016C20.7197 12.0168 20.7125 12.0176 20.7052 12.0186C20.7003 12.0194 20.6954 12.0201 20.6905 12.0212C20.6843 12.0222 20.6781 12.0235 20.6717 12.0248C20.6668 12.0258 20.6619 12.0269 20.657 12.0281C20.6508 12.0297 20.6443 12.0315 20.6381 12.033L20.6247 12.0369C20.617 12.0392 20.6095 12.0421 20.602 12.0447C20.5992 12.0457 20.5961 12.0467 20.5932 12.0478C20.5832 12.0516 20.5731 12.056 20.5633 12.0604C20.5599 12.062 20.5566 12.0638 20.553 12.0653C20.5463 12.0687 20.5398 12.0718 20.5331 12.0754C20.5292 12.0774 20.5256 12.0795 20.5217 12.0818C20.5155 12.0854 20.5096 12.0891 20.5037 12.0927L20.4928 12.0996C20.4864 12.1038 20.4804 12.1082 20.4743 12.1128C20.4714 12.1149 20.4683 12.1169 20.4655 12.1192C20.4567 12.126 20.4482 12.1329 20.4399 12.1402C20.4381 12.1417 20.4366 12.1433 20.4348 12.1448C20.4281 12.1507 20.4216 12.1567 20.4154 12.1631C20.4126 12.166 20.4097 12.1691 20.4069 12.1719C20.4017 12.1771 20.3968 12.1825 20.3919 12.1879C20.3891 12.1913 20.3862 12.1944 20.3834 12.1977C20.3785 12.2034 20.3739 12.2093 20.3695 12.2153C20.3671 12.2184 20.3646 12.2215 20.3622 12.2248C20.3566 12.2328 20.3509 12.2408 20.3455 12.2491L20.3429 12.2529C20.3367 12.2625 20.3308 12.2731 20.3253 12.2831L20.324 12.2852L17.062 18.3486C17.0207 18.4252 16.9996 18.5109 17.0003 18.5981L17.0166 20.3095C17.0166 20.316 17.0171 20.3224 17.0176 20.3292C17.0179 20.3356 17.0179 20.3421 17.0187 20.3485C17.0194 20.3565 17.0205 20.3643 17.0215 20.372C17.0223 20.3774 17.0225 20.3828 17.0236 20.3883C17.0254 20.3999 17.0279 20.4115 17.0305 20.4228C17.031 20.4252 17.0316 20.4277 17.0323 20.4301C17.0354 20.4422 17.0388 20.4541 17.0427 20.4659C17.044 20.4703 17.0458 20.4745 17.0473 20.4786C17.0504 20.4869 17.0532 20.4954 17.0566 20.5034C17.0587 20.508 17.061 20.5127 17.063 20.5173C17.0664 20.5248 17.07 20.5325 17.0736 20.5398C17.076 20.5444 17.0788 20.5491 17.0814 20.5537C17.0852 20.5609 17.0894 20.5679 17.0935 20.5751L17.0961 20.5798C17.0992 20.5847 17.1025 20.5893 17.1059 20.5942C17.1082 20.5976 17.1105 20.6012 17.1129 20.6045C17.1193 20.6136 17.1258 20.6221 17.1327 20.6306L17.1348 20.6332C17.1425 20.6427 17.1508 20.6518 17.1591 20.6605C17.1609 20.6626 17.1629 20.6644 17.165 20.6665C17.1714 20.6732 17.1782 20.6796 17.1849 20.6858C17.1877 20.6884 17.1908 20.6913 17.1939 20.6938C17.2001 20.6993 17.2063 20.7044 17.2125 20.7093C17.2158 20.7122 17.2195 20.7147 17.2228 20.7173C17.2293 20.7222 17.2357 20.7266 17.2422 20.7313C17.2458 20.7336 17.2491 20.7362 17.2527 20.7385C17.2607 20.7437 17.2687 20.7483 17.2768 20.7529C17.2791 20.7542 17.2814 20.7558 17.2837 20.7571C17.2943 20.7628 17.3051 20.7682 17.316 20.7733C17.3191 20.7746 17.3222 20.7759 17.3253 20.7775C17.3335 20.7811 17.3418 20.7844 17.35 20.7875L17.355 20.7896C17.357 20.7904 17.3609 20.7914 17.3609 20.7914C17.3715 20.795 17.3821 20.7986 17.3929 20.8015L17.4009 20.8038C17.4138 20.8071 17.4267 20.81 17.4399 20.8126L17.4497 20.8141C17.46 20.8157 17.4703 20.8172 17.4809 20.8182C17.4848 20.8185 17.4884 20.819 17.4923 20.8193C17.5057 20.8203 17.5188 20.8211 17.5323 20.8211H17.5348C17.5441 20.8211 17.5537 20.8208 17.563 20.82L17.5738 20.8193C17.5805 20.8188 17.5875 20.818 17.5942 20.8172L17.6058 20.8157C17.6128 20.8146 17.6195 20.8136 17.6265 20.8123C17.6301 20.8115 17.6334 20.811 17.637 20.8102C17.6463 20.8084 17.6556 20.8061 17.6647 20.8038L17.6672 20.8033L20.0706 20.1521C20.1627 20.1271 20.2461 20.0773 20.3114 20.0078L24.859 15.1797C24.859 15.1797 24.8616 15.1769 24.8629 15.1753C24.8696 15.1681 24.876 15.1606 24.8825 15.1529C24.885 15.15 24.8871 15.1474 24.8889 15.1451ZM23.7466 14.4346L22.172 14.7203L21.5089 12.9911L23.0547 12.8718L23.7466 14.4346ZM20.7003 13.7656L21.2509 15.2014L18.0363 18.9303L18.0343 18.7207L20.7003 13.7656ZM19.6605 19.1933L19.0235 19.366L22.1149 15.7798L23.0325 15.6133L19.6605 19.1933Z" stroke="#33FF7A" stroke-width="0.5"/>
</svg>
