<svg width="28" height="28" viewBox="0 0 28 28" fill="none" xmlns="http://www.w3.org/2000/svg">
<path d="M12.1069 4H10.1265L9.13634 5.79104L7.48603 8.77611L6.49586 10.5671L6.42549 10.6944L5.56797 12.2455L7.05323 13.1411L8.30717 13.8971L4.7636 22.2089L4 24H16.7459L15.854 22.2089L14.1244 18.7354L15.0517 16.5602L15.3874 15.773C15.7643 15.88 16.1592 15.9403 16.5682 15.9403C18.8959 15.9403 20.8192 14.1134 21.1019 11.7612H24V4.00003L12.1069 4ZM16.5682 14.1492C16.4078 14.1492 16.2518 14.1316 16.0987 14.1046L17.0978 11.7612H19.369C19.1034 13.122 17.9486 14.1492 16.5682 14.1492ZM22.285 9.97016H15.984L15.7295 10.5672L15.2204 11.7612L14.3137 13.8881L13.5623 15.6504L13.113 16.7044L12.2213 18.7958L13.2327 20.8269L13.9209 22.209H6.64091L9.80063 14.7976L10.502 13.1523L9.00857 12.252L7.91077 11.59L8.47623 10.5672L9.4664 8.77614L11.1167 5.79107H22.285V9.97016Z" fill="#00DEFF"/>
</svg>
