<svg width="28" height="28" viewBox="0 0 28 28" fill="none" xmlns="http://www.w3.org/2000/svg">
<path d="M13.931 2L23.1073 5.024C23.3271 5.09638 23.5183 5.23533 23.6538 5.42114C23.7893 5.60696 23.8621 5.83022 23.8621 6.05927V14C23.8621 18.4182 20.5517 22.4185 13.931 26C7.31034 22.4185 4 18.4182 4 14V6.05818C4.00018 5.82932 4.07315 5.6063 4.20861 5.4207C4.34406 5.2351 4.53512 5.09632 4.75476 5.024L13.931 2ZM13.931 4.29964L6.2069 6.84582V14L6.21462 14.324C6.29517 15.9385 6.97821 17.4669 8.18979 18.932C9.51724 20.5345 11.4406 22.0433 13.931 23.492C16.4226 22.0433 18.3448 20.5335 19.6712 18.932C20.9644 17.3709 21.6552 15.7356 21.6552 14V6.84582L13.931 4.29964V4.29964Z" fill="#FECF06"/>
</svg>
