<svg width="25" height="25" viewBox="0 0 25 25" fill="none" xmlns="http://www.w3.org/2000/svg">
<path fill-rule="evenodd" clip-rule="evenodd" d="M0.299805 12.2511C0.299805 5.58586 5.64885 0.185547 12.2508 0.185547C18.8528 0.185547 24.2018 5.58586 24.2018 12.2511C24.2018 18.9164 18.8528 24.3167 12.2508 24.3167C5.64885 24.3167 0.299805 18.9164 0.299805 12.2511ZM15.6095 17.3033C15.6095 17.3033 15.1902 16.8141 14.8757 16.3947C16.3433 15.9754 16.9024 15.0669 16.9024 15.0669C16.4482 15.3814 15.9939 15.591 15.6095 15.7308C15.0504 15.9754 14.5263 16.1152 14.0021 16.22C12.9189 16.4297 11.9404 16.3598 11.1018 16.22C10.4728 16.0803 9.9137 15.9055 9.45943 15.7308C9.41712 15.7127 9.37377 15.6946 9.32956 15.6761C9.11813 15.5876 8.88692 15.4909 8.65572 15.3464C8.63825 15.329 8.62078 15.3202 8.60331 15.3115C8.58584 15.3028 8.56836 15.294 8.55089 15.2766C8.51595 15.2766 8.51595 15.2416 8.51595 15.2416C8.30629 15.1368 8.20146 15.0669 8.20146 15.0669C8.20146 15.0669 8.72561 15.9754 10.1583 16.3947C9.80887 16.8141 9.42449 17.3382 9.42449 17.3382C6.94348 17.2683 6 15.626 6 15.626C6 12.0268 7.60741 9.09151 7.60741 9.09151C9.21482 7.86848 10.7523 7.90342 10.7523 7.90342L10.8572 8.0432C8.83044 8.63724 7.88696 9.51083 7.88696 9.51083C7.88696 9.51083 8.13157 9.37106 8.55089 9.19634C9.73898 8.67218 10.6825 8.53241 11.1018 8.49747C11.1427 8.49747 11.1837 8.48548 11.2176 8.47554L11.2176 8.47554C11.2416 8.46852 11.262 8.46252 11.2765 8.46252C11.9754 8.35769 12.7441 8.35769 13.5478 8.42758C14.5962 8.56735 15.7493 8.8469 16.9024 9.51083C16.9024 9.51083 16.0289 8.67218 14.1069 8.07814L14.2467 7.90342C14.2467 7.90342 15.7842 7.86848 17.3917 9.09151C17.3917 9.09151 18.9991 12.0268 18.9991 15.626C19.034 15.591 18.0905 17.2334 15.6095 17.3033ZM14.4913 12.0616C13.8623 12.0616 13.3381 12.6207 13.3381 13.3196C13.3381 14.0185 13.8623 14.5776 14.4913 14.5776C15.1202 14.5776 15.6444 14.0185 15.6444 13.3196C15.6444 12.6207 15.1202 12.0616 14.4913 12.0616ZM10.4028 12.0616C9.77385 12.0616 9.2497 12.6207 9.2497 13.3196C9.2497 14.0185 9.77385 14.5776 10.4028 14.5776C11.0318 14.5776 11.556 14.0185 11.556 13.3196C11.556 12.6207 11.0318 12.0616 10.4028 12.0616Z" fill="white"/>
</svg>
