<svg width="20" height="20" viewBox="0 0 20 20" fill="none" xmlns="http://www.w3.org/2000/svg">
<rect width="20" height="20" fill="black" fill-opacity="0.5"/>
<rect x="0.5" y="0.5" width="19" height="19" stroke="white" stroke-opacity="0.36"/>
<path d="M15.599 16.303V15.1887L16.9315 13.7584V12.6762L16.6232 12.3494H15.8774L15.5691 12.6762V13.2869H14.167V11.9369L15.1913 10.8334H17.3094L18.3337 11.9369V14.3959L17.0061 15.8316V16.303H15.599ZM16.2006 17.6477H16.4393V17.4977H16.2006V17.6477ZM15.5642 18.3334V16.8173H17.0608V18.3334H15.5642ZM16.2503 15.7405H16.3895V15.5691L17.7022 14.1119V12.2852L16.9862 11.5137H15.5542L14.8382 12.2852V12.6441H14.9775V12.328L15.6039 11.6637H16.9365L17.563 12.328V14.0691L16.2503 15.5262V15.7405Z" fill="white" fill-opacity="0.36"/>
<path d="M5.17115 17.037H7.32327C7.57777 17.037 7.82396 16.9256 8.001 16.7308L13.0231 11.2045C13.2859 10.9159 13.3592 10.4925 13.2112 10.1233C13.0841 9.80759 12.8154 9.58691 12.5029 9.53079H10.2695C10.1865 9.79605 10.2116 10.0903 10.3454 10.3387C10.5127 10.6493 10.8253 10.8412 11.1628 10.8412H11.6165L7.19188 15.7111H5.64141L7.58192 10.9057C7.7064 10.5965 7.67597 10.2449 7.5017 9.96508C7.32742 9.68379 7.03282 9.51677 6.71609 9.51677H5.18775L7.57638 5.22705H9.7823V3.90116H7.39935C7.0674 3.90116 6.7562 4.09016 6.58884 4.39196L3.83368 9.34096C3.66218 9.64862 3.65941 10.0325 3.82677 10.3416C3.99412 10.6522 4.30671 10.8441 4.64419 10.8441H6.24583L4.30532 15.6495C4.18084 15.9587 4.21127 16.3103 4.38554 16.5901C4.5612 16.8699 4.85442 17.037 5.17115 17.037Z" fill="#33FF7A"/>
<path d="M11.085 5.01003H16.2957V6.54538H11.085V5.01003Z" fill="#33FF7A"/>
<path d="M14.4009 2.96289V8.59252H12.9798V2.96289L14.4009 2.96289Z" fill="#33FF7A"/>
</svg>
