<svg width="15" height="15" viewBox="0 0 15 15" fill="none" xmlns="http://www.w3.org/2000/svg">
<path d="M1.69039 15H4.1685C4.46154 15 4.74502 14.8813 4.94888 14.6737L10.7317 8.78385C11.0342 8.47624 11.1187 8.02498 10.9482 7.6315C10.8019 7.29501 10.4925 7.05981 10.1327 7H7.56102C7.46542 7.28271 7.49426 7.59633 7.64835 7.86103C7.84106 8.19206 8.20099 8.39661 8.58959 8.39661H9.11197L4.0172 13.5869H2.23188L4.46631 8.46531C4.60965 8.13585 4.57461 7.7611 4.37394 7.46286C4.17327 7.16306 3.83405 6.98505 3.46934 6.98505H1.7095L4.45994 2.41312H6.99999V1H4.25609C3.87386 1 3.51552 1.20143 3.32282 1.52309L0.150333 6.79768C-0.0471513 7.12559 -0.0503365 7.53469 0.14237 7.86415C0.335076 8.19518 0.695006 8.39973 1.0836 8.39973H2.92785L0.693414 13.5213C0.550079 13.8508 0.585116 14.2255 0.785785 14.5238C0.988047 14.822 1.32568 15 1.69039 15Z" fill="#33FF7A"/>
<path d="M8.5 2.18182H14.5V3.81818H8.5V2.18182Z" fill="#33FF7A"/>
<path d="M12.3182 7.1529e-08V6H10.6818V0L12.3182 7.1529e-08Z" fill="#33FF7A"/>
</svg>
