<svg width="13" height="16" viewBox="0 0 13 16" fill="none" xmlns="http://www.w3.org/2000/svg">
<path d="M4.26327 6.4034H2.12314V3.90658C2.12314 3.36306 2.23072 2.85633 2.44586 2.38641C2.66101 1.91649 2.95824 1.50318 3.33758 1.1465C3.71691 0.789809 4.16419 0.509554 4.6794 0.305732C5.19462 0.101911 5.75796 -1.10691e-08 6.36943 0C6.91295 0 7.43666 0.101911 7.94055 0.305732C8.44444 0.509554 8.89172 0.789809 9.28238 1.1465C9.67304 1.50318 9.98443 1.91649 10.2166 2.38641C10.4487 2.85633 10.5648 3.36306 10.5648 3.90658V6.4034H8.50955V4.38217C8.50955 3.66879 8.31139 3.11677 7.91507 2.72611C7.51875 2.33546 6.98089 2.14013 6.30149 2.14013C5.69002 2.14013 5.19745 2.33546 4.82378 2.72611C4.45011 3.11677 4.26327 3.66879 4.26327 4.38217V6.4034ZM11.5839 7.4225C11.8896 7.4225 12.1529 7.53291 12.3737 7.75372C12.5945 7.97452 12.7049 8.23779 12.7049 8.54352V13.8089C12.7049 14.1146 12.6511 14.4006 12.5435 14.6667C12.436 14.9328 12.2887 15.1649 12.1019 15.3631C11.9151 15.5612 11.6943 15.7169 11.4395 15.8301C11.1847 15.9434 10.9045 16 10.5987 16H2.02123C1.7155 16 1.43807 15.9434 1.18896 15.8301C0.939844 15.7169 0.72753 15.5669 0.552017 15.38C0.376504 15.1932 0.240623 14.9752 0.144374 14.7261C0.0481244 14.477 0 14.2109 0 13.9278V8.54352C0 8.23779 0.107572 7.97452 0.322717 7.75372C0.537863 7.53291 0.798301 7.4225 1.10403 7.4225H2.12314H4.26327H8.50955H10.5648H11.5839Z" fill="white"/>
</svg>
