<svg width="25" height="24" viewBox="0 0 25 24" fill="none" xmlns="http://www.w3.org/2000/svg">
<path d="M12.1274 0C11.3082 0 10.4777 0.190064 9.67246 0.521784C9.56413 0.854268 9.47491 1.27389 9.42395 1.73218C9.3572 2.33294 9.3358 2.99108 9.32866 3.60831C11.0542 3.41957 13.2006 3.41957 14.9261 3.60831C14.919 2.99108 14.8976 2.33289 14.8308 1.73213C14.7799 1.27394 14.6907 0.854268 14.5823 0.521784C13.7771 0.190064 12.9465 0 12.1274 0ZM17.2517 0.98507C17.7263 1.34451 18.1743 1.74318 18.5909 2.16897C18.6688 1.83011 18.8299 1.52204 19.051 1.26731L17.2517 0.98507ZM8.58772 1.06099C6.82084 2.09131 5.27322 3.74706 4.38125 5.46018C2.69564 8.69768 2.35883 13.4579 4.35424 16.4054C5.84897 18.6129 9.28795 19.465 12.1274 19.465C14.9669 19.465 18.4059 18.613 19.9005 16.4053C21.896 13.4579 21.5591 8.69768 19.8735 5.46013C18.9816 3.74701 17.4339 2.09136 15.6671 1.06099C15.6966 1.24698 15.721 1.43745 15.7424 1.63088C15.82 2.32866 15.8398 3.06767 15.845 3.73366C16.7982 3.89437 17.5287 4.12739 17.8344 4.43312C19.465 6.06369 21.6834 11.2966 18.6497 15.8471C16.731 18.7251 7.52377 18.7251 5.6051 15.8471C2.57136 11.2966 4.78981 6.06369 6.42038 4.43312C6.72611 4.12739 7.45656 3.89437 8.40968 3.73366C8.41493 3.06767 8.4348 2.32866 8.51236 1.63088C8.53376 1.43745 8.55822 1.24698 8.58767 1.06099H8.58772ZM2.34395 1.27389C1.89366 1.27389 1.52866 1.63888 1.52866 2.08917C1.52868 2.22208 1.56118 2.35297 1.62335 2.47044C1.68552 2.58791 1.77546 2.6884 1.88535 2.76316V6.24204L2.80255 5.55414V2.76229C2.91231 2.68762 3.00218 2.58726 3.06434 2.46995C3.12651 2.35265 3.15908 2.22193 3.15924 2.08917C3.15924 1.63888 2.79424 1.27389 2.34395 1.27389ZM20.6273 1.4614C19.9745 1.4614 19.4553 1.98064 19.4553 2.63338C19.4553 3.28611 19.9745 3.80535 20.6273 3.80535C21.28 3.80535 21.7992 3.28611 21.7992 2.63338C21.7992 1.98064 21.28 1.4614 20.6273 1.4614ZM21.915 4.27439C21.5593 4.5545 21.1121 4.72255 20.6274 4.72255C20.5894 4.72255 20.5519 4.72117 20.5145 4.71913C20.5558 4.79289 20.5963 4.86712 20.6358 4.94181L22.1569 6.0827L21.915 4.27439ZM9.74573 4.40178C8.86639 4.40637 7.84734 4.59322 7.03322 5.22318C5.67608 6.27327 4.84041 11.071 5.32673 12.7016C6.17177 9.55419 6.95694 6.38206 10.8258 4.48377C10.4686 4.42775 10.1074 4.40031 9.74573 4.40173V4.40178ZM2.86395 6.65452L1.12866 7.95608L0.390828 11.6457L2.33631 13.9801C1.7785 11.6095 2.04199 8.94966 2.86395 6.65457V6.65452ZM21.3908 6.65452C22.2127 8.94966 22.4763 11.6095 21.9185 13.9801L23.8639 11.6456L23.1261 7.95597L21.3908 6.65452ZM4.51694 17.9837C4.33437 18.0433 4.14741 18.1572 3.99302 18.3116C3.78227 18.5223 3.65264 18.7921 3.62797 19.0303C3.63867 19.0488 3.6587 19.0892 3.71613 19.1404C3.84112 19.2519 4.05717 19.4039 4.33406 19.5663C4.8878 19.8914 5.68693 20.2673 6.58655 20.6172C7.66563 21.0369 8.89738 21.4174 10.0382 21.6556V20.2488C8.02695 19.9879 5.96698 19.315 4.51689 17.9837H4.51694ZM19.7378 17.9837C18.2877 19.3149 16.2278 19.9878 14.2166 20.2487V21.6555C15.3573 21.4173 16.589 21.0368 17.6682 20.6171C18.5678 20.2673 19.3669 19.8913 19.9207 19.5663C20.1976 19.4037 20.4136 19.2519 20.5386 19.1403C20.596 19.0891 20.6161 19.0487 20.6268 19.0302C20.6022 18.792 20.4725 18.5222 20.2618 18.3115C20.1074 18.1571 19.9204 18.0433 19.7378 17.9836V17.9837ZM3.02278 19.7504L0 21.7656V24H1.88535V23.0828H2.80255V24H21.4522V23.0828H22.3694V24H24.2548V21.7656L21.232 19.7504C21.2046 19.7753 21.177 19.7998 21.1493 19.8247C20.9495 20.0029 20.6942 20.1757 20.3851 20.3572C19.7668 20.7201 18.9354 21.1085 18.0006 21.472C16.1311 22.199 13.8726 22.828 12.1274 22.828C10.3822 22.828 8.12372 22.1991 6.25417 21.4721C5.31939 21.1085 4.48795 20.7202 3.86971 20.3573C3.56061 20.1759 3.30532 20.0029 3.10548 19.8247C3.07781 19.7998 3.05014 19.7752 3.02278 19.7504V19.7504ZM10.9554 20.3406V21.8179C11.3751 21.8771 11.7713 21.9108 12.1274 21.9108C12.4835 21.9108 12.8797 21.8771 13.2994 21.8179V20.3406C12.9009 20.3689 12.5084 20.3822 12.1274 20.3822C11.7464 20.3822 11.3539 20.3689 10.9554 20.3406Z" fill="white"/>
</svg>
