<svg width="50" height="706" viewBox="0 0 50 706" fill="none" xmlns="http://www.w3.org/2000/svg">
<path fill-rule="evenodd" clip-rule="evenodd" d="M0.250001 360L13 352.639L0.250001 345.278L0.250001 348.164L8 352.639L0.250001 357.113L0.250001 360Z" fill="white"/>
<path fill-rule="evenodd" clip-rule="evenodd" d="M20 -1.31134e-06L40 0L40 1L20 0.999999L20 -1.31134e-06ZM20 15L50 15L50 16L20 16L20 15ZM20 30L40 30L40 31L20 31L20 30ZM20 45L50 45L50 46L20 46L20 45ZM20 60L40 60L40 61L20 61L20 60ZM20 75L50 75L50 76L20 76L20 75ZM20 90L40 90L40 91L20 91L20 90ZM20 105L50 105L50 106L20 106L20 105ZM20 120L40 120L40 121L20 121L20 120ZM20 135L50 135L50 136L20 136L20 135ZM20 150L40 150L40 151L20 151L20 150ZM20 165L50 165L50 166L20 166L20 165ZM20 180L40 180L40 181L20 181L20 180ZM20 195L50 195L50 196L20 196L20 195ZM20 210L40 210L40 211L20 211L20 210ZM20 225L50 225L50 226L20 226L20 225ZM20 240L40 240L40 241L20 241L20 240ZM20 255L50 255L50 256L20 256L20 255ZM20 270L40 270L40 271L20 271L20 270ZM20 285L50 285L50 286L20 286L20 285ZM20 300L40 300L40 301L20 301L20 300ZM20 315L50 315L50 316L20 316L20 315ZM20 330L40 330L40 331L20 331L20 330ZM20 345L50 345L50 346L20 346L20 345ZM20 360L40 360L40 361L20 361L20 360ZM20 375L50 375L50 376L20 376L20 375ZM20 390L40 390L40 391L20 391L20 390ZM20 405L50 405L50 406L20 406L20 405ZM20 420L40 420L40 421L20 421L20 420ZM20 435L50 435L50 436L20 436L20 435ZM20 450L40 450L40 451L20 451L20 450ZM20 465L50 465L50 466L20 466L20 465ZM20 480L40 480L40 481L20 481L20 480ZM20 495L50 495L50 496L20 496L20 495ZM20 510L40 510L40 511L20 511L20 510ZM20 525L50 525L50 526L20 526L20 525ZM20 540L40 540L40 541L20 541L20 540ZM20 555L50 555L50 556L20 556L20 555ZM20 570L40 570L40 571L20 571L20 570ZM20 585L50 585L50 586L20 586L20 585ZM20 600L40 600L40 601L20 601L20 600ZM20 615L50 615L50 616L20 616L20 615ZM20 630L40 630L40 631L20 631L20 630ZM20 645L50 645L50 646L20 646L20 645ZM20 660L40 660L40 661L20 661L20 660ZM20 675L50 675L50 676L20 676L20 675ZM20 690L40 690L40 691L20 691L20 690ZM20 705L50 705L50 706L20 706L20 705Z" fill="url(#paint0_linear)"/>
<defs>
<linearGradient id="paint0_linear" x1="34.9999" y1="705.5" x2="34.9999" y2="-0.500005" gradientUnits="userSpaceOnUse">
<stop stop-color="white" stop-opacity="0"/>
<stop offset="0.489583" stop-color="white"/>
<stop offset="1" stop-color="white" stop-opacity="0"/>
</linearGradient>
</defs>
</svg>
