<svg width="25" height="25" viewBox="0 0 25 25" fill="none" xmlns="http://www.w3.org/2000/svg">
<path d="M24.0203 7.649C22.8173 4.79203 20.5956 2.484 17.7866 1.17296C14.9776 -0.13808 11.7816 -0.358583 8.81911 0.554257C5.85664 1.4671 3.33905 3.44815 1.75507 6.11283C0.171095 8.77751 -0.366245 11.9357 0.247365 14.9743C0.860975 18.0129 2.58176 20.715 5.07565 22.5562C7.56954 24.3974 10.6586 25.2463 13.7432 24.938C16.8277 24.6297 19.6877 23.1863 21.7678 20.8879C23.848 18.5895 24.9999 15.6002 25 12.5003C25.0022 10.8339 24.669 9.18401 24.0203 7.649V7.649ZM12.5376 23.181C6.64841 23.181 1.85693 18.3898 1.85693 12.5003C1.85693 6.61086 6.64813 1.81967 12.5376 1.81967C18.4271 1.81967 23.2183 6.61086 23.2183 12.5003C23.2183 18.3898 18.4268 23.181 12.5376 23.181V23.181Z" fill="#00DEFF"/>
<path d="M12.5372 6.50952C12.7479 6.50952 12.95 6.42581 13.099 6.2768C13.248 6.12779 13.3317 5.9257 13.3317 5.71497V4.46776C13.3317 4.25703 13.248 4.05494 13.099 3.90593C12.95 3.75693 12.7479 3.67322 12.5372 3.67322C12.3264 3.67322 12.1243 3.75693 11.9753 3.90593C11.8263 4.05494 11.7426 4.25703 11.7426 4.46776V5.71497C11.7426 5.9257 11.8263 6.12779 11.9753 6.2768C12.1243 6.42581 12.3264 6.50952 12.5372 6.50952V6.50952ZM10.4882 6.87087C10.5862 6.83519 10.6763 6.78055 10.7532 6.71006C10.8302 6.63957 10.8924 6.55462 10.9366 6.46005C10.9807 6.36549 11.0057 6.26316 11.0103 6.15892C11.0148 6.05467 10.9988 5.95055 10.9631 5.8525L10.5366 4.68073C10.5009 4.58268 10.4463 4.49261 10.3758 4.41568C10.3053 4.33874 10.2203 4.27645 10.1258 4.23234C10.0312 4.18824 9.92889 4.16319 9.82465 4.15864C9.7204 4.15408 9.61628 4.1701 9.51823 4.20579C9.42018 4.24147 9.33011 4.29611 9.25318 4.3666C9.17624 4.43709 9.11394 4.52204 9.06984 4.61661C9.02574 4.71117 9.00069 4.8135 8.99614 4.91774C8.99158 5.02199 9.0076 5.12611 9.04329 5.22416L9.46979 6.39593C9.50547 6.49398 9.56011 6.58405 9.6306 6.66099C9.70109 6.73792 9.78604 6.80022 9.88061 6.84432C9.97517 6.88842 10.0775 6.91347 10.1817 6.91802C10.286 6.92258 10.3901 6.90656 10.4882 6.87087ZM7.9826 5.83635C7.91553 5.75641 7.83338 5.69046 7.74082 5.64227C7.64827 5.59408 7.54713 5.5646 7.44318 5.5555C7.33923 5.5464 7.23451 5.55786 7.13499 5.58924C7.03547 5.62061 6.9431 5.67129 6.86317 5.73836C6.70188 5.87396 6.60107 6.06808 6.5829 6.27801C6.56473 6.48794 6.6307 6.69649 6.76629 6.85779L7.56779 7.81297C7.63485 7.89291 7.71701 7.95886 7.80956 8.00705C7.90212 8.05524 8.00326 8.08472 8.10721 8.09382C8.21116 8.10292 8.31588 8.09146 8.4154 8.06008C8.51492 8.02871 8.60728 7.97803 8.68722 7.91096C8.76716 7.8439 8.83311 7.76174 8.8813 7.66919C8.92949 7.57663 8.95898 7.47549 8.96808 7.37154C8.97718 7.26759 8.96571 7.16287 8.93433 7.06335C8.90296 6.96383 8.85229 6.87147 8.78521 6.79153L7.9826 5.83635ZM7.05805 8.41931L5.97815 7.79571C5.88776 7.74348 5.78797 7.70958 5.68448 7.69593C5.58099 7.68229 5.47582 7.68917 5.37499 7.71619C5.27416 7.74321 5.17964 7.78983 5.09684 7.85339C5.01403 7.91695 4.94457 7.99621 4.8924 8.08663C4.84018 8.17701 4.80627 8.2768 4.79263 8.38029C4.77899 8.48379 4.78587 8.58895 4.81289 8.68978C4.83991 8.79061 4.88653 8.88513 4.95009 8.96794C5.01365 9.05074 5.09291 9.12021 5.18333 9.17237L6.26322 9.79598C6.3536 9.84815 6.45337 9.88201 6.55683 9.89562C6.66029 9.90924 6.76542 9.90234 6.86621 9.87533C6.96701 9.84831 7.06149 9.80171 7.14428 9.73818C7.22706 9.67465 7.29652 9.59543 7.34869 9.50506C7.40086 9.41468 7.43472 9.31492 7.44833 9.21145C7.46195 9.10799 7.45505 9.00287 7.42804 8.90207C7.40102 8.80128 7.35442 8.70679 7.29089 8.62401C7.22736 8.54122 7.14814 8.47176 7.05777 8.41959L7.05805 8.41931ZM4.48873 11.8878L5.71673 12.1044C5.8195 12.1226 5.92484 12.1203 6.02673 12.0977C6.12863 12.0752 6.22507 12.0328 6.31057 11.9729C6.39606 11.9131 6.46893 11.837 6.52501 11.7489C6.58108 11.6609 6.61927 11.5627 6.63739 11.46C6.67396 11.2524 6.62661 11.0389 6.50575 10.8663C6.38488 10.6937 6.20041 10.5762 5.9929 10.5396L4.7649 10.323C4.66205 10.3047 4.55659 10.3068 4.45457 10.3293C4.35255 10.3518 4.25597 10.3942 4.17035 10.4541C4.08474 10.5139 4.01177 10.5901 3.95562 10.6782C3.89947 10.7663 3.86124 10.8646 3.84313 10.9675C3.82503 11.0703 3.82738 11.1757 3.85004 11.2776C3.87269 11.3795 3.91522 11.476 3.97517 11.5615C4.03513 11.6469 4.11135 11.7198 4.19947 11.7758C4.28759 11.8318 4.38588 11.8699 4.48873 11.8878ZM6.63739 13.5404C6.61927 13.4376 6.58108 13.3394 6.52501 13.2514C6.46893 13.1634 6.39606 13.0873 6.31057 13.0274C6.22507 12.9676 6.12863 12.9252 6.02673 12.9026C5.92484 12.88 5.8195 12.8778 5.71673 12.8959L4.48873 13.1125C4.38585 13.1305 4.28753 13.1686 4.19939 13.2246C4.11125 13.2806 4.03502 13.3535 3.97506 13.439C3.9151 13.5245 3.87258 13.621 3.84995 13.7229C3.82731 13.8249 3.82499 13.9303 3.84313 14.0332C3.86125 14.1359 3.89944 14.2341 3.95551 14.3222C4.01159 14.4102 4.08446 14.4863 4.16995 14.5461C4.25545 14.606 4.35189 14.6484 4.45378 14.671C4.55567 14.6935 4.66101 14.6958 4.76378 14.6777L5.99179 14.4611C6.09466 14.4431 6.19298 14.405 6.28112 14.349C6.36926 14.2929 6.4455 14.2201 6.50546 14.1346C6.56542 14.0491 6.60793 13.9526 6.63057 13.8506C6.65321 13.7487 6.65553 13.6433 6.63739 13.5404V13.5404ZM7.34897 15.495C7.29681 15.4046 7.22734 15.3253 7.14453 15.2618C7.06173 15.1982 6.96721 15.1516 6.86638 15.1246C6.76555 15.0976 6.66038 15.0907 6.55689 15.1043C6.4534 15.118 6.35361 15.1519 6.26322 15.2041L5.18361 15.8291C5.09318 15.8813 5.01393 15.9507 4.95037 16.0335C4.88681 16.1163 4.84018 16.2109 4.81317 16.3117C4.78615 16.4125 4.77927 16.5177 4.79291 16.6212C4.80655 16.7247 4.84046 16.8245 4.89268 16.9148C4.94484 17.0053 5.01431 17.0845 5.09712 17.1481C5.17992 17.2116 5.27444 17.2583 5.37527 17.2853C5.4761 17.3123 5.58127 17.3192 5.68476 17.3055C5.78825 17.2919 5.88804 17.258 5.97843 17.2058L7.05805 16.5808C7.14847 16.5286 7.22772 16.4591 7.29128 16.3763C7.35484 16.2935 7.40147 16.199 7.42848 16.0982C7.4555 15.9973 7.46239 15.8922 7.44874 15.7887C7.4351 15.6852 7.40119 15.5854 7.34897 15.495ZM19.8907 15.8291L18.8108 15.2055C18.7204 15.1533 18.6206 15.1194 18.5171 15.1057C18.4137 15.0921 18.3085 15.099 18.2077 15.126C18.1068 15.153 18.0123 15.1996 17.9295 15.2632C17.8467 15.3267 17.7772 15.406 17.7251 15.4964C17.6728 15.5868 17.6389 15.6866 17.6253 15.7901C17.6117 15.8936 17.6185 15.9987 17.6455 16.0996C17.6726 16.2004 17.7192 16.2949 17.7828 16.3777C17.8463 16.4605 17.9256 16.53 18.016 16.5822L19.0959 17.2058C19.1863 17.258 19.2861 17.2919 19.3896 17.3055C19.493 17.3192 19.5982 17.3123 19.699 17.2853C19.7999 17.2583 19.8944 17.2116 19.9772 17.1481C20.06 17.0845 20.1295 17.0053 20.1816 16.9148C20.2339 16.8245 20.2678 16.7247 20.2814 16.6212C20.295 16.5177 20.2882 16.4125 20.2611 16.3117C20.2341 16.2109 20.1875 16.1163 20.1239 16.0335C20.0604 15.9507 19.9811 15.8813 19.8907 15.8291V15.8291ZM20.5856 13.1125L19.3576 12.8959C19.2548 12.8778 19.1495 12.88 19.0476 12.9026C18.9457 12.9252 18.8492 12.9676 18.7637 13.0274C18.6783 13.0873 18.6054 13.1634 18.5493 13.2514C18.4932 13.3394 18.455 13.4376 18.4369 13.5404C18.4188 13.6432 18.421 13.7485 18.4436 13.8504C18.4662 13.9523 18.5086 14.0487 18.5685 14.1342C18.6283 14.2197 18.7044 14.2926 18.7924 14.3487C18.8804 14.4048 18.9786 14.4429 19.0814 14.4611L20.3094 14.6777C20.4122 14.6958 20.5175 14.6935 20.6194 14.671C20.7213 14.6484 20.8178 14.606 20.9032 14.5461C20.9887 14.4863 21.0616 14.4102 21.1177 14.3222C21.1738 14.2341 21.212 14.1359 21.2301 14.0332C21.2482 13.9304 21.2459 13.8251 21.2234 13.7232C21.2008 13.6213 21.1584 13.5248 21.0985 13.4393C21.0387 13.3538 20.9626 13.281 20.8746 13.2249C20.7866 13.1688 20.6884 13.1306 20.5856 13.1125ZM18.4369 11.46C18.455 11.5627 18.4932 11.6609 18.5493 11.7489C18.6054 11.837 18.6783 11.9131 18.7637 11.9729C18.8492 12.0328 18.9457 12.0752 19.0476 12.0977C19.1495 12.1203 19.2548 12.1226 19.3576 12.1044L20.5856 11.8878C20.6884 11.8697 20.7866 11.8315 20.8746 11.7755C20.9626 11.7194 21.0387 11.6465 21.0985 11.561C21.1584 11.4755 21.2008 11.3791 21.2234 11.2772C21.2459 11.1753 21.2482 11.07 21.2301 10.9672C21.212 10.8644 21.1738 10.7662 21.1177 10.6782C21.0616 10.5902 20.9887 10.5141 20.9032 10.4542C20.8178 10.3944 20.7213 10.352 20.6194 10.3294C20.5175 10.3068 20.4122 10.3046 20.3094 10.3227L19.0814 10.5396C18.8739 10.5762 18.6894 10.6937 18.5686 10.8663C18.4477 11.0389 18.4004 11.2524 18.4369 11.46V11.46ZM19.0962 7.79598L18.0163 8.41959C17.9258 8.47175 17.8466 8.54122 17.783 8.62403C17.7195 8.70683 17.6728 8.80135 17.6458 8.90218C17.6188 9.00301 17.6119 9.10818 17.6256 9.21167C17.6392 9.31516 17.6731 9.41495 17.7253 9.50533C17.7775 9.59576 17.847 9.67501 17.9298 9.73857C18.0126 9.80213 18.1071 9.84876 18.2079 9.87577C18.3088 9.90279 18.4139 9.90967 18.5174 9.89603C18.6209 9.88239 18.7207 9.84848 18.8111 9.79626L19.891 9.17265C19.9814 9.12048 20.0606 9.05102 20.1241 8.96824C20.1876 8.88545 20.2342 8.79097 20.2613 8.69017C20.2883 8.58938 20.2952 8.48425 20.2816 8.38079C20.2679 8.27733 20.2341 8.17756 20.1819 8.08719C20.1297 7.99681 20.0603 7.9176 19.9775 7.85407C19.8947 7.79053 19.8002 7.74393 19.6994 7.71692C19.5986 7.6899 19.4935 7.683 19.39 7.69662C19.2866 7.71023 19.1868 7.74409 19.0964 7.79626L19.0962 7.79598ZM14.5862 6.87087C14.6842 6.90656 14.7883 6.92258 14.8926 6.91802C14.9968 6.91347 15.0991 6.88842 15.1937 6.84432C15.2883 6.80022 15.3732 6.73792 15.4437 6.66099C15.5142 6.58405 15.5688 6.49398 15.6045 6.39593L16.031 5.22416C16.0667 5.12611 16.0827 5.02199 16.0782 4.91774C16.0736 4.8135 16.0486 4.71117 16.0045 4.61661C15.9604 4.52204 15.8981 4.43709 15.8211 4.3666C15.7442 4.29611 15.6541 4.24147 15.5561 4.20579C15.458 4.1701 15.3539 4.15408 15.2497 4.15864C15.1454 4.16319 15.0431 4.18824 14.9485 4.23234C14.854 4.27645 14.769 4.33874 14.6985 4.41568C14.628 4.49261 14.5734 4.58268 14.5377 4.68073L14.1112 5.8525C14.0755 5.95055 14.0595 6.05467 14.0641 6.15892C14.0686 6.26316 14.0937 6.36549 14.1378 6.46005C14.1819 6.55462 14.2442 6.63957 14.3211 6.71006C14.398 6.78055 14.4881 6.83519 14.5862 6.87087V6.87087Z" fill="#00DEFF"/>
<path d="M19.4808 6.33406L18.6935 5.54675L18.3508 5.89029C18.3111 5.8341 18.2643 5.78329 18.2116 5.73912C18.1317 5.67205 18.0393 5.62138 17.9398 5.59C17.8403 5.55863 17.7355 5.54716 17.6316 5.55626C17.5276 5.56536 17.4265 5.59485 17.3339 5.64304C17.2414 5.69123 17.1592 5.75718 17.0922 5.83712L16.2907 6.7923C16.1598 6.94813 16.0938 7.14821 16.1061 7.3513C16.1184 7.5544 16.2082 7.74502 16.3569 7.88389L14.0418 10.199C13.4578 9.83167 12.7583 9.69421 12.0787 9.81332C11.3992 9.93242 10.7881 10.2996 10.3639 10.8437C9.93968 11.3877 9.73259 12.0699 9.78277 12.758C9.83295 13.446 10.1368 14.091 10.6355 14.5677C11.1341 15.0445 11.792 15.3191 12.4817 15.3384C13.1713 15.3576 13.8435 15.1201 14.368 14.6719C14.8925 14.2237 15.2318 13.5967 15.3203 12.9125C15.4088 12.2284 15.2401 11.5357 14.8469 10.9688L19.4808 6.33406ZM14.0643 12.5548C14.0643 12.894 13.9548 13.224 13.752 13.4958C13.5492 13.7677 13.264 13.9667 12.9389 14.0633C12.6138 14.1599 12.2662 14.149 11.9479 14.032C11.6295 13.9151 11.3575 13.6984 11.1723 13.4143C10.987 13.1303 10.8985 12.7939 10.9199 12.4555C10.9413 12.117 11.0715 11.7945 11.291 11.536C11.5105 11.2775 11.8077 11.0969 12.1382 11.0209C12.4688 10.945 12.815 10.9779 13.1253 11.1147L12.6442 11.5957C12.4363 11.5676 12.2249 11.6067 12.0408 11.7074C11.8567 11.808 11.7096 11.9649 11.6211 12.1551C11.5325 12.3453 11.5071 12.5588 11.5486 12.7645C11.59 12.9701 11.6962 13.1571 11.8515 13.2982C12.0068 13.4392 12.2032 13.5268 12.4119 13.5483C12.6206 13.5698 12.8307 13.5239 13.0114 13.4174C13.1922 13.311 13.3342 13.1495 13.4167 12.9566C13.4991 12.7636 13.5177 12.5494 13.4697 12.3452L13.9196 11.8953C14.0152 12.102 14.0646 12.3271 14.0643 12.5548Z" fill="#00DEFF"/>
</svg>
