<svg width="24" height="24" viewBox="0 0 24 24" fill="none" xmlns="http://www.w3.org/2000/svg">
<path d="M12.0007 0C5.38016 0 0 5.37856 0 11.9993C0 18.6198 5.38016 24 12.0007 24C18.6213 24 24 18.6198 24 11.9993C24 5.37856 18.6213 0 12.0007 0ZM11.532 1.16243V2.06702C11.6875 2.05972 11.8437 2.05602 12.0008 2.05602C12.1569 2.05602 12.3121 2.05982 12.4664 2.06702V1.16233C13.1197 1.18983 13.7573 1.27447 14.3756 1.41231L14.1413 2.28876C14.4466 2.35635 14.7471 2.43725 15.0412 2.53249L15.277 1.6544C15.8953 1.84968 16.489 2.09917 17.0535 2.39655L16.5957 3.1888C16.8717 3.33429 17.1405 3.49203 17.4003 3.66227L17.8597 2.86532C18.4011 3.2131 18.9088 3.60777 19.3783 4.04345L18.7221 4.69966C18.9501 4.91184 19.1681 5.13553 19.3751 5.36831L20.0361 4.70736C20.4651 5.18023 20.8528 5.69199 21.1938 6.23546L20.3767 6.70728C20.5412 6.97101 20.6934 7.24325 20.8329 7.52288L21.6563 7.04791C21.9453 7.61117 22.1856 8.20434 22.3735 8.81965L21.4471 9.06813C21.5367 9.36512 21.6134 9.6676 21.675 9.97583L22.6079 9.72584C22.7382 10.3387 22.8165 10.97 22.8391 11.6164H21.8626C21.8657 11.7181 21.8673 11.8201 21.8673 11.9226C21.8673 12.1336 21.86 12.3429 21.847 12.5507H22.8329C22.8007 13.1941 22.7127 13.8229 22.5734 14.4318L21.6095 14.174C21.5384 14.4788 21.452 14.7791 21.3533 15.0723L22.325 15.3333C22.1294 15.9408 21.882 16.5248 21.5875 17.08L20.7064 16.5707C20.559 16.8463 20.3989 17.113 20.2268 17.3721L21.1157 17.8847C20.7722 18.4163 20.3836 18.9162 19.9549 19.3783L19.2221 18.6455C19.0097 18.8738 18.7865 19.0914 18.5534 19.2986L19.2909 20.0361C18.8251 20.4587 18.3221 20.8408 17.7878 21.1781L17.2643 20.2704C17.002 20.4362 16.7319 20.5904 16.4535 20.7314L16.9785 21.6406C16.4237 21.9273 15.8421 22.1691 15.2363 22.3578L14.9629 21.3375C14.6679 21.4303 14.3661 21.51 14.0599 21.575L14.3333 22.5952C13.7282 22.7275 13.1047 22.809 12.4662 22.8359V21.7796C12.3118 21.7868 12.1567 21.7906 12.0005 21.7906C11.8434 21.7905 11.6872 21.7869 11.5318 21.7796V22.8358C10.8939 22.8087 10.2711 22.7259 9.66645 22.5936L9.93993 21.5752C9.63365 21.5102 9.33187 21.4304 9.03683 21.3377L8.76335 22.3564C8.15824 22.1679 7.57568 21.9272 7.02131 21.6407L7.54628 20.7315C7.2673 20.5902 6.99681 20.4352 6.73383 20.269L6.21046 21.1767C5.6765 20.8395 5.17438 20.4572 4.70906 20.0347L5.44486 19.2987C5.21172 19.0914 4.99039 18.8725 4.77775 18.6441L4.04495 19.3768C3.61657 18.915 3.2276 18.4161 2.88412 17.8848L3.77316 17.3707C3.60148 17.112 3.44069 16.8458 3.29349 16.5708L2.4123 17.0801C2.11792 16.525 1.87043 15.9407 1.67485 15.3333L2.64668 15.0724C2.54799 14.7792 2.4632 14.4789 2.392 14.1741L1.42636 14.4318C1.28717 13.8227 1.19922 13.1942 1.16703 12.5507H2.15287C2.13977 12.3429 2.13252 12.1337 2.13252 11.9226C2.13252 11.8201 2.13417 11.7181 2.13727 11.6163H1.16083C1.18313 10.9703 1.26012 10.3384 1.39046 9.72589L2.32475 9.97588C2.3864 9.66765 2.46325 9.36521 2.55289 9.06813L1.62635 8.81965C1.81449 8.20404 2.05432 7.61152 2.3435 7.04796L3.16695 7.52293C3.30644 7.24325 3.45853 6.97106 3.62312 6.70733L2.80602 6.23546C3.147 5.69229 3.53483 5.18168 3.96375 4.70906L4.62471 5.36991C4.8318 5.13693 5.04818 4.91204 5.27617 4.69966L4.62151 4.04495C5.09073 3.60957 5.59775 3.2145 6.13862 2.86687L6.59799 3.66372C6.85832 3.49308 7.12745 3.33464 7.40419 3.18875L6.94637 2.3966C7.51023 2.09962 8.10389 1.85113 8.72125 1.65605L8.95714 2.53409C9.25187 2.4386 9.5526 2.3566 9.85868 2.28881L9.62435 1.41386C10.2422 1.27607 10.8791 1.19003 11.532 1.16243Z" fill="white"/>
<path d="M9.73141 8V9.50072H8.2602V16H6.47121V9.50072H5V8H9.73141Z" fill="white"/>
<path d="M13.6049 8H15.441L13.8874 16H11.4275L9.8504 8H11.6512C12.1063 10.5474 12.3691 12.0866 12.4397 12.6176C12.5103 13.1486 12.5888 13.7759 12.6751 14.4993C12.8242 13.1217 12.9537 12.0904 13.0635 11.4055L13.6049 8Z" fill="white"/>
<path d="M16.0336 8H17.8226V14.5455H20V16H16.0336V8Z" fill="white"/>
</svg>
