<svg width="33" height="34" viewBox="0 0 33 34" fill="none" xmlns="http://www.w3.org/2000/svg">
<path d="M-1.4324e-06 1.23062L3.29272 4.82826L7.36644 6.39005C8.46603 8.85599 9.10656 9.80415 12.697 10.7663L11.4399 7.94962L13.7249 8.08311L14.7461 5.42458L13.0019 3.87612L15.8183 2.62132C12.7949 0.875644 11.316 0.794273 8.92815 2.31647L4.85443 0.754761L-1.43239e-06 1.23083L-1.4324e-06 1.23062ZM15.5471 7.8607C17.3383 9.0233 19.0049 10.5673 20.4037 12.3504C20.405 12.352 20.4069 12.3531 20.4082 12.3547C22.095 15.0104 22.4826 18.283 21.5251 20.7623C22.597 19.6064 22.9991 18.0829 22.8889 16.5508C23.9478 20.0685 23.538 23.8353 21.8722 26.4912C23.2487 25.4843 24.0949 24.0355 24.4773 22.4352C24.7143 26.6307 23.0683 30.8286 18.4971 34L30.4598 33.9999C32.4995 29.3075 31.8566 24.3781 29.6368 20.0303L32.1841 21.2385L26.1305 14.9644L26.1305 14.9711C26.0026 14.8287 25.8742 14.6882 25.7433 14.5484L28.8714 15.3515L21.792 11.0933C19.8299 9.69302 17.7066 8.58346 15.547 7.86063L15.5471 7.8607Z" fill="#00DEFF"/>
</svg>
