<svg width="100" height="100" viewBox="0 0 100 100" fill="none" xmlns="http://www.w3.org/2000/svg">
<path d="M50 24C39.737 24 28.7503 30.4831 21.3923 37.1148C15.4422 42.4775 11.3896 47.6458 10 49.5C11.3896 51.3542 15.4422 56.5225 21.3923 61.8852C28.7501 68.5169 39.737 75 50 75C60.263 75 71.2497 68.5169 78.6077 61.8852C84.5578 56.5225 88.6104 51.3542 90 49.5C88.6104 47.6458 84.5578 42.4775 78.6077 37.1148C71.2499 30.4831 60.263 24 50 24ZM50 27.8841C53.7948 27.89 57.5224 28.8778 60.8142 30.7497C59.2425 31.3206 57.8855 32.356 56.9264 33.7159C55.9672 35.0759 55.4522 36.6949 55.4509 38.3543C55.452 38.3798 55.4534 38.4053 55.4548 38.4308C54.222 37.8297 52.8964 37.4372 51.5331 37.2695V33.2881H48.4669V37.2695C42.8399 37.961 38.3607 42.4015 37.6633 47.9801H33.6474V51.0199H37.6633C38.3609 56.5985 42.8399 61.0392 48.4669 61.7305V65.7119H51.5331V61.7305C57.16 61.039 61.6393 56.5985 62.3367 51.0199H66.3526V47.9801H62.3367C62.2646 47.4093 62.1519 46.8441 61.9994 46.289C62.5348 46.3999 63.0802 46.4573 63.6272 46.4603C65.0334 46.4582 66.4153 46.0966 67.6393 45.4105C68.8634 44.7243 69.8883 43.7368 70.615 42.5432C71.3928 44.782 71.7943 47.1322 71.8035 49.5C71.8035 55.2329 69.5063 60.731 65.4174 64.7847C61.3284 68.8385 55.7826 71.1159 50 71.1159C44.2174 71.1159 38.6716 68.8385 34.5826 64.7847C30.4937 60.731 28.1965 55.2329 28.1965 49.5C28.1965 43.7671 30.4937 38.269 34.5826 34.2153C38.6716 30.1615 44.2174 27.8841 50 27.8841ZM48.4669 40.3366V44.096H51.5331V40.3366C55.4912 40.9769 58.597 44.056 59.243 47.9801H55.4509V51.0199H59.243C58.597 54.944 55.4912 58.0231 51.5331 58.6634V54.904H48.4669V58.6634C44.5088 58.0231 41.403 54.944 40.757 51.0199H44.5491V47.9801H40.757C41.403 44.056 44.5088 40.9769 48.4669 40.3366Z" fill="white"/>
</svg>
