<svg width="100" height="100" viewBox="0 0 100 100" fill="none" xmlns="http://www.w3.org/2000/svg">
<path d="M11.9982 12.0002V17.5707L23.3015 24.9745L16.4904 34.203L29.448 29.8227L30.571 34.6997L39.5366 35.5401L41.1239 42.4515L35.4274 45.1594L28.9833 40.3965L17.7764 50.3893L29.3568 46.5602L32.9993 53.6582L40.1889 51.3598L45.338 42.4179C43.7008 38.612 43.7907 34.1153 46.0069 30.2653C47.1595 28.2616 48.739 26.6667 50.5874 25.536C50.96 25.428 51.9802 24.6537 52.45 24.6082C54.2914 23.8438 56.285 23.4749 58.2927 23.5633C59.1943 23.603 60.0978 23.7317 60.9893 23.9524L62.9223 24.4305L56.4715 35.5443C55.9188 36.5041 56.2676 37.7974 57.0943 38.2764L57.0946 38.2767C57.9172 38.7526 59.0723 38.4006 59.6554 37.3876L59.657 37.3854L66.1094 26.2687L67.4834 27.7031C71.5542 31.9519 72.5997 38.5354 69.5138 43.8956C67.2853 47.7663 63.4244 50.0221 59.3313 50.4904L54.5484 58.7957L58.8687 62.5304L55.6833 69.5445L69.4217 80.3679L62.4456 68.4942L68.4878 63.1836L76.1459 67.3867L67.8789 56.7079L64.7803 61.8842L60.9232 54.8721L70.916 49.642L73.7177 55.9927L78.5742 51.7903L83.8041 59.9153L79.9752 45.7201L75.2117 49.642L74.4646 38.9957L86.512 31.2445L73.4334 30.5105L78.0094 21.5843L83.7909 25.8355L88.0022 23.2225V12H87.5816L82.1227 17.1421L75.4916 13.5004L68.2796 23.3553L62.7515 20.7708L65.415 12.3774L52.8933 20.9476L49.0238 12.0006H38.5044L37.6687 12.1014L45.9802 17.4248L43.9258 27.2305L35.8008 28.6314L24.2349 12.0006H11.998L11.9982 12.0002ZM57.7655 26.54C55.7826 26.5269 53.8265 27.0617 52.1465 28.088L52.1302 28.0976C50.706 28.9728 49.5022 30.1833 48.5973 31.756V31.7563C46.743 34.9774 46.7756 38.7518 48.3386 41.8435L48.7027 42.5637L34.8397 66.6388L34.0293 66.682C30.8336 66.8515 27.7448 68.4954 25.8338 71.3066C24.6542 73.0165 23.9608 75.0856 23.9608 77.3116C23.9608 83.1557 28.7306 87.9255 34.5749 87.9255C40.419 87.9255 45.1888 83.1557 45.1888 77.3114C45.1888 76.5027 45.0945 75.716 44.9218 74.9585C44.9058 74.8854 44.8886 74.813 44.8712 74.7402C44.8632 74.7082 44.856 74.6762 44.8477 74.6442C44.6561 73.8811 44.3813 73.142 44.0253 72.4434L43.6575 71.7217L57.5214 47.6439L58.3322 47.6008C61.7999 47.4164 65.0644 45.6348 66.9242 42.405H66.9237C68.9722 38.8469 68.6667 34.6311 66.5855 31.4015L62.2455 38.8789C60.9167 41.1871 57.9538 42.2271 55.5972 40.8629H55.5971C53.2443 39.5002 52.522 36.4155 53.8812 34.0535L53.8828 34.0509L58.2334 26.5562C58.2094 26.5551 58.1857 26.5506 58.1619 26.5498C58.0295 26.5439 57.8972 26.5405 57.7653 26.5397L57.7655 26.54ZM34.5752 69.684C38.8048 69.684 42.2023 73.0811 42.2023 77.3112C42.2023 81.5409 38.8052 84.9383 34.575 84.9383C30.3448 84.9383 26.9479 81.541 26.9479 77.3111C26.9479 73.0808 30.3449 69.6837 34.5749 69.6837L34.5752 69.684Z" fill="white"/>
</svg>
