<svg width="100" height="100" viewBox="0 0 100 100" fill="none" xmlns="http://www.w3.org/2000/svg">
<path d="M59.7312 14.0002L22.4081 57.0324L33.317 72.9588C48.3539 61.6327 63.6159 43.3521 75.72 23.7337L59.7311 14L59.7312 14.0002ZM61.2495 18.9968C61.6918 19.0018 62.0507 19.1321 62.3414 19.3296C62.9227 19.7249 63.4126 20.5625 63.4126 22.0544C63.4126 25.0374 61.0083 28.8783 58.478 30.0617C57.2129 30.6532 56.3662 30.5349 55.7848 30.1399C55.2035 29.7444 54.7083 28.9066 54.7083 27.4151C54.7083 24.4317 57.1176 20.5908 59.648 19.4075C60.2808 19.1118 60.8073 18.9915 61.2495 18.9968ZM78.3771 25.3509C66.0843 45.2816 50.6323 63.8474 35.0744 75.5277L42.1509 85.8646C57.7857 74.5239 78.64 52.1542 89 31.8141L78.3769 25.3507L78.3771 25.3509ZM19.9123 58.894C16.9452 61.7426 13.9749 64.3369 11 66.6883V86.7531C15.6223 81.1568 20.5514 74.1924 25.6006 67.1974L19.9123 58.8937V58.894Z" fill="white"/>
</svg>
