<svg width="100" height="100" viewBox="0 0 100 100" fill="none" xmlns="http://www.w3.org/2000/svg">
<path d="M17.0117 14L14 16.9325V24.4695L24.7526 14H17.0117ZM35.2861 14L20.6111 28.2889C21.9368 28.2169 23.2691 28.147 24.6921 28.0839L39.1564 14H35.2864H35.2861ZM51.4512 14L44.2579 21.0039C46.0174 19.9254 47.9605 18.8234 49.9559 17.7857C52.6518 16.3838 55.406 15.1373 57.8769 14.3322C58.2468 14.2116 58.6067 14.1027 58.962 14H51.4512ZM67.2952 14L66.6517 14.5148C75.1933 17.9655 81.2947 24.0671 84.7458 32.6088L85.9698 31.0788C82.9508 22.976 77.6762 17.3534 69.9393 14H67.2948H67.2952ZM75.6793 14C79.9787 16.7321 83.4323 20.3477 85.9997 24.804V21.1373C84.266 18.371 82.0352 15.9851 79.3229 14H75.6794H75.6793ZM83.5057 14C84.3909 14.8193 85.2239 15.6934 85.9997 16.617V14H83.5057ZM62.7972 16.1399C61.8786 16.1237 60.4002 16.3499 58.7133 16.8995C56.4642 17.6324 53.8089 18.8255 51.2016 20.1815C50.2435 20.6809 49.296 21.2002 48.3595 21.7391C52.4222 22.5173 56.5179 24.419 60.32 27.034L70.7473 19.586C68.5843 18.2375 66.1776 17.1207 63.5163 16.2335C63.3474 16.1774 63.1035 16.1453 62.7972 16.1399ZM73.1041 21.2204L62.6056 28.7196C64.0783 29.8806 65.481 31.1275 66.8067 32.4538C68.1333 33.7792 69.3806 35.1817 70.542 36.6541L78.0401 26.1562C76.6131 24.3061 74.954 22.6473 73.1036 21.2205L73.1041 21.2204ZM44.0927 23.9324C41.1836 23.9567 38.588 24.8222 36.6843 26.7262C36.2958 27.1148 35.9446 27.539 35.6355 27.9933C36.796 28.045 37.9358 28.123 39.0401 28.2342C40.3301 27.1804 42.083 26.6352 44.1791 26.6277C45.5885 26.6226 47.1521 26.8602 48.8329 27.348C53.3148 28.6492 58.4442 31.7274 62.9886 36.2718C67.533 40.8163 70.6116 45.9461 71.9127 50.4278C73.2137 54.9093 72.7337 58.5585 70.6254 60.6668C70.3042 60.987 69.9482 61.2702 69.564 61.5112C69.3517 62.6288 69.0854 63.7354 68.766 64.8271C70.1937 64.3771 71.472 63.6387 72.5345 62.5762C75.581 59.5298 75.9685 54.7133 74.5055 49.6748C73.1016 44.8376 69.9876 39.6259 65.4688 34.9449L65.4553 34.9309L65.4468 34.9225C65.2654 34.7345 65.0824 34.548 64.8978 34.363H64.8975C64.7127 34.1784 64.5264 33.9954 64.3386 33.814L64.3296 33.805C64.3245 33.8005 64.3195 33.796 64.3146 33.7911C59.6339 29.2731 54.4227 26.1591 49.5858 24.7551C47.6965 24.2064 45.8381 23.9181 44.0929 23.9327L44.0927 23.9324ZM79.6742 28.5139L72.2265 38.9411C74.842 42.7442 76.7414 46.8416 77.5192 50.9054C78.0589 49.9676 78.579 49.0187 79.0792 48.0593C80.4352 45.452 81.628 42.7967 82.3607 40.5476C83.0936 38.2987 83.2517 36.4203 83.0267 35.7451C82.1396 33.0838 81.0227 30.6774 79.6742 28.5141V28.5139ZM32.3095 30.6598C28.6459 30.6444 24.8816 30.8209 21.3926 30.9924C22.5461 31.3059 23.6321 31.5868 24.8234 31.9438C29.2768 33.2788 33.7768 34.8706 36.0358 37.9763L37.9056 40.5469L34.7574 40.1074C27.8721 39.1459 23.6019 40.864 19.5369 42.4613C24.6024 43.5545 28.3128 44.7485 32.6893 47.9708L34.7833 49.5125L32.3173 50.3381C23.384 53.3291 18.7175 58.8569 14 65.2749V68.5963C15.437 67.8358 16.8924 67.0069 18.3585 66.2062C22.4315 63.9814 26.736 61.9543 31.1838 63.2704L32.3598 63.6184L32.1258 64.8226C31.1053 70.0741 27.9217 78.5393 24.9246 85.9998H27.2428C33.8533 78.3847 41.2423 68.9289 43.5919 64.0105L44.6659 61.7629L45.9625 63.8896C46.8301 65.3122 46.5125 66.8545 46.1084 68.6482C45.7043 70.4419 45.0164 72.5017 44.2817 74.6302C43.3481 77.3338 42.4013 80.1367 41.7989 82.4587C43.6796 80.5867 45.6386 78.0742 47.3252 75.4219C49.8452 71.4589 51.8081 67.1569 52.3631 64.5447L53.1153 61.0028L54.8655 64.1728C56.7189 67.5306 56.5106 72.0178 55.9149 76.8812C55.5594 79.7831 55.0419 82.8269 54.5868 85.8291C56.8173 82.4827 59.4723 78.5752 61.8328 74.2252C65.5593 67.3567 68.3221 59.6928 67.0513 52.6439C66.6429 50.3778 65.0794 47.5435 62.8023 44.7194C59.6276 45.6893 56.4363 47.8532 53.3711 50.8427C55.9346 46.3502 56.8961 43.3481 58.9485 41.059C55.2618 42.6613 50.3721 45.4948 45.2591 50.4737C48.2072 46.685 51.2733 40.8632 53.3493 36.7521C50.2935 39.098 45.6319 41.4586 42.6679 43.3235C44.1379 41.057 47.2384 36.7716 48.1454 33.28C46.498 32.5336 44.8817 31.9768 43.3649 31.6653L43.3427 31.6605L43.3202 31.6552C40.2868 30.9243 36.3939 30.6768 32.3097 30.6592L32.3095 30.6598ZM16.3595 32.4289L14 34.7265V38.4949L19.3892 33.2473C18.3374 32.971 17.2973 32.6979 16.3592 32.4291L16.3595 32.4289ZM28.6665 36.1849L27.447 37.3723C28.5216 37.232 29.6037 37.1566 30.6874 37.1467C30.066 36.8142 29.3847 36.4935 28.6665 36.1849ZM19.421 45.1873L14 50.4657V58.0023L25.3889 46.9132C23.5805 46.1864 21.6785 45.6799 19.421 45.1873ZM85.9997 54.7578L63.6453 76.5242C61.6923 80.0095 59.5784 83.2267 57.7293 86H61.6537L85.9997 62.2945V54.7578ZM28.3324 65.569C27.7444 65.569 27.1459 65.6329 26.5366 65.7495L14 77.9564V81.7247L28.675 67.4361C28.8553 66.7947 29.0178 66.1821 29.154 65.6118C28.8811 65.5831 28.607 65.5688 28.3326 65.569H28.3324ZM85.9997 66.9213L66.4057 85.9997H70.2757L85.9997 70.6899V66.9213ZM41.7083 73.8098L37.6103 77.8001C35.4849 80.5466 33.1857 83.3491 30.9168 85.9997H33.0591L39.77 79.4657C40.3561 77.608 41.0609 75.682 41.708 73.8098H41.7083Z" fill="white"/>
</svg>
