<svg width="100" height="100" viewBox="0 0 100 100" fill="none" xmlns="http://www.w3.org/2000/svg">
<path d="M50 14C30.1343 14 14 30.1343 14 50C14 69.8657 30.1343 86 50 86C69.8657 86 86 69.8657 86 50C86 30.1343 69.8657 14 50 14ZM50 16.7811C54.1074 16.7811 58.0382 17.5265 61.6677 18.886L58.6695 26.881C61.9721 28.1152 64.9725 30.0414 67.4694 32.5306L73.4955 26.5045C76.4293 29.4375 78.7879 32.894 80.4492 36.6953L73.7126 42.9848L82.7806 44.5994C82.9015 45.3419 82.9984 46.0924 83.0695 46.8505L75.0801 47.6112L73.7126 42.9848L72.3107 38.2433L65.3481 44.7437C63.1587 38.3712 57.1045 33.7768 50 33.7768C47.7986 33.7768 45.6984 34.2187 43.7824 35.017L44.05 25.4902L39.5676 27.576L35.085 29.6622L42.5477 35.5941C37.3425 38.2986 33.7768 43.7416 33.7768 50C33.7768 56.844 38.0401 62.7139 44.0497 65.0925L37.2441 71.7462L41.9168 73.3625L46.5894 74.9787L45.3497 65.5424C46.8583 65.9947 48.425 66.224 50 66.2232C58.9433 66.2232 66.2232 58.9433 66.2232 50C66.2232 48.6403 66.0538 47.3195 65.7371 46.0565L74.6818 47.6492L74.5871 47.6583C74.6688 48.4363 74.7135 49.2178 74.721 50C74.7149 54.8249 73.2971 59.5426 70.6422 63.5714C67.9873 67.6002 64.2115 70.764 59.7803 72.6729L63.1619 80.5122C59.127 82.2528 54.6778 83.2189 50 83.2189C47.6874 83.2196 45.381 82.9802 43.1178 82.5046L41.9168 73.3625L35.3213 79.8109C31.6222 77.987 28.2943 75.4916 25.507 72.4518L31.7954 66.6872C27.6134 62.1351 25.2884 56.1815 25.279 50C25.2848 43.4458 27.8931 37.1622 32.5306 32.5306L26.5045 26.5045C28.2736 24.7362 30.2362 23.1728 32.3552 21.8437L39.5676 27.576L39.8261 18.367C43.0321 17.3384 46.4501 16.7811 50 16.7811ZM50 36.5579C54.6862 36.5579 58.801 38.9393 61.2056 42.5611L54.7469 48.5911L63.4402 50.1392C63.3659 57.5147 57.3939 63.4421 50 63.4421C49.8435 63.4421 49.6879 63.4382 49.5329 63.4329L48.3819 54.6724L42.0579 60.855C38.7207 58.4124 36.5579 54.4657 36.5579 50C36.5579 46.0279 38.2691 42.467 40.9958 40.0093L47.9115 45.5066L48.1595 36.6832C48.7612 36.6014 49.3753 36.5579 50 36.5579ZM50 45.0558C48.6887 45.0558 47.4311 45.5767 46.5039 46.5039C45.5767 47.4311 45.0558 48.6887 45.0558 50C45.0558 51.3113 45.5767 52.5689 46.5039 53.4961C47.4311 54.4233 48.6887 54.9442 50 54.9442C51.3113 54.9442 52.5689 54.4233 53.4961 53.4961C54.4233 52.5689 54.9442 51.3113 54.9442 50C54.9442 48.6887 54.4233 47.4311 53.4961 46.5039C52.5689 45.5767 51.3113 45.0558 50 45.0558V45.0558Z" fill="white"/>
</svg>
