<svg width="100" height="100" viewBox="0 0 100 100" fill="none" xmlns="http://www.w3.org/2000/svg">
<path d="M38.6725 11.6177L37.505 14.4955L36.079 18.0028L32.3278 17.4798L29.2519 17.0536L30.8051 19.744L33.6832 24.7281L34.0536 25.3729L34.7893 25.4743L39.0432 26.0681L50.3873 45.7163C51.4235 45.4444 52.4598 45.2125 53.4936 45.0309L41.6316 24.4796L43.1949 20.622L43.4742 19.9318L43.1039 19.2918L40.2256 14.308L38.6724 11.6178L38.6725 11.6177ZM61.1781 13.0437L58.9549 15.2111L56.2395 17.8505L53.0164 15.866L50.3722 14.2366L50.7119 17.3278L51.3413 23.048L51.4225 23.7841L52.0571 24.1749L55.6051 26.3575L57.6151 44.5639C58.2631 44.5321 58.905 44.5173 59.5386 44.5285C59.9179 44.5353 60.2923 44.5516 60.6655 44.5743L58.625 26.0988L61.7013 23.1092L62.234 22.5914L62.1528 21.8503L61.5234 16.1301L61.1783 13.0441L61.1781 13.0437ZM24.8514 22.8451L24.5975 25.9414L24.2931 29.7177L20.5574 30.3471L17.4967 30.8597L19.7859 32.9611L24.0289 36.8487L24.5722 37.3514L25.3079 37.2296L29.5361 36.5139L42.672 48.5634C42.9585 48.4254 43.2454 48.2889 43.535 48.1574C44.2517 47.8312 44.9786 47.5259 45.7124 47.2387L31.5313 34.2246L31.8659 30.078L31.927 29.3367L31.3788 28.8343L27.1405 24.9464L24.8515 22.845L24.8514 22.8451ZM78.8617 42.8231C75.9571 42.8078 72.5513 44.2914 69.7763 47.0664C68.9138 47.9288 68.1808 48.8567 67.5735 49.8072C65.6894 48.6719 63.4504 48.0044 61.0207 47.7466L61.0159 47.706C60.5146 47.6675 60.0053 47.6415 59.4829 47.6348C59.416 47.634 59.3473 47.6352 59.2799 47.6348C42.0923 47.1513 17.7301 65.0157 38.5 80.6269H19.1208L14.8218 88.3826H56.5946L42.2202 71.6125C46.1625 67.2745 53.1772 64.514 57.9751 64.2934C60.2156 71.6183 63.8656 82.7278 69.629 88.3827H79.5116C72.516 80.8225 67.0801 70.6641 66.203 59.172C66.4655 59.6973 66.8072 60.1769 67.2284 60.5981C70.2598 63.6296 76.3151 62.485 80.7549 58.0448C85.195 53.605 86.3344 47.5497 83.3033 44.5183C82.1663 43.3813 80.6047 42.8323 78.8619 42.8229L78.8617 42.8231Z" fill="white"/>
</svg>
