<svg width="100" height="100" viewBox="0 0 100 100" fill="none" xmlns="http://www.w3.org/2000/svg">
<path d="M50 23L11 37.6254L50 57.1254L68.5752 47.8377L51.1496 42.51C50.7907 42.6821 50.398 42.7719 50 42.7727C49.2913 42.7727 48.6116 42.4912 48.1105 41.9901C47.6093 41.4889 47.3278 40.8092 47.3278 40.1005C47.3278 39.3918 47.6093 38.7121 48.1105 38.211C48.6116 37.7098 49.2913 37.4283 50 37.4283L49.5581 38.8649L52.654 39.8174C52.6545 39.8205 52.6549 39.8237 52.6553 39.8268L57.2238 41.2238L83.2357 49.227V51.2555C82.8759 51.5003 82.5814 51.8292 82.3776 52.2137C82.1739 52.5982 82.0671 53.0266 82.0666 53.4618C82.0671 53.9069 82.1788 54.3448 82.3915 54.7358C82.6042 55.1268 82.9112 55.4585 83.2846 55.7007C82.0683 60.2978 82.0666 70.728 82.0666 74.8393C84.7388 76.5754 84.7388 76.6389 87.411 74.8393C87.411 70.7285 87.4097 60.3003 86.1935 55.7022C86.5671 55.4598 86.8742 55.1278 87.0868 54.7365C87.2994 54.3452 87.4109 53.907 87.411 53.4616C87.411 53.026 87.3044 52.597 87.1007 52.2119C86.8969 51.8269 86.6021 51.4975 86.2419 51.2525V47.007L76.334 43.9585L89 37.6254L50 23ZM27.2232 49.6203L25.0315 62.7709C29.4031 63.3426 34.6324 65.8836 39.4397 68.8881C42.1737 70.597 44.7346 72.4727 46.8144 74.2927C48.0857 75.405 49.1487 76.4722 50 77.5222C50.8513 76.472 51.9143 75.405 53.1856 74.2927C55.2654 72.4727 57.8261 70.597 60.5603 68.8881C65.3676 65.8836 70.5969 63.3426 74.9685 62.7709L72.7765 49.6203H71.7326L50 60.4867L28.267 49.6203H27.2232Z" fill="white"/>
</svg>
