<svg width="100" height="100" viewBox="0 0 100 100" fill="none" xmlns="http://www.w3.org/2000/svg">
<path d="M24.4079 12.0002C40.1184 34.8492 26.461 33.1283 20.1987 35.066C26.4482 43.5894 22.8651 51.5986 13.0308 56.6149C21.4868 60.011 32.7213 61.5197 19.7999 79.4393C32.6174 72.1874 41.4969 71.576 40.2764 88C49.5853 78.5784 61.7053 73.8304 73.7872 81.7941C72.4088 69.8886 75.8263 64.6752 87.7807 69.8107C74.963 58.0511 80.2595 51.0684 87.8545 44.2283C74.7288 43.7077 72.8881 33.6789 73.371 21.6918C65.4492 30.3118 59.4391 29.3837 56.6196 12.517C51.1746 24.8962 43.8414 32.797 24.4078 12L24.4079 12.0002ZM42.1861 29.6116C44.7792 29.6689 46.3038 31.5763 47.7696 33.5864L38.1855 50.187C34.8962 50.5067 32.4982 49.4498 31.4549 46.3016L41.0401 29.6997C41.3509 29.6472 41.6476 29.6187 41.9319 29.6119C42.0179 29.6098 42.1026 29.6097 42.1861 29.6116V29.6116ZM53.3057 31.4151C55.8989 31.4718 57.4237 33.3801 58.8896 35.3896L48.1129 54.5616C44.8234 54.8813 42.4256 53.8229 41.3827 50.6755L52.1597 31.5037C52.4705 31.451 52.7672 31.422 53.0515 31.4151C53.1374 31.413 53.2219 31.413 53.3055 31.4148L53.3057 31.4151ZM62.761 36.5773C65.3545 36.6348 66.879 38.542 68.3452 40.5513L57.7236 59.4843C54.4341 59.8032 52.0363 58.7466 50.9937 55.5989L61.6145 36.6654C61.9254 36.613 62.2222 36.5845 62.5068 36.5778C62.5925 36.5757 62.6775 36.5757 62.7613 36.5774L62.761 36.5773ZM70.2252 45.4735C72.9268 45.4893 74.5331 47.4026 76.0806 49.4173L67.1322 64.9163C63.9067 65.1252 61.518 64.0518 60.4018 61.0305L69.3507 45.532C69.6547 45.4909 69.9456 45.4721 70.225 45.4737L70.2252 45.4735ZM30.1704 51.5775L47.2162 59.2314C47.7018 62.725 46.7681 65.4789 43.6795 67.1092L26.6331 59.4548C25.907 55.9729 27.9656 53.7393 30.1701 51.5775H30.1704Z" fill="white"/>
</svg>
