<svg width="100" height="100" viewBox="0 0 100 100" fill="none" xmlns="http://www.w3.org/2000/svg">
<path d="M70.5809 18.0002C69.9163 19.1081 69.6767 20.4137 70.206 21.4932C71.6235 22.4176 78.7815 24.152 78.162 26.5026C78.0301 26.8897 77.9791 27.0982 77.9071 27.3815C76.662 26.2435 74.1278 25.6906 73.2125 25.859C72.3995 26.0009 71.5769 26.3722 70.7829 26.4055C69.7758 26.4001 68.875 26.1505 68.1035 25.6898C68.6487 27.1945 70.6021 28.3039 71.8133 28.1146C73.7176 27.7347 75.7731 28.741 77.1602 29.2369C76.3097 31.5688 73.4563 30.4708 73.4563 30.4708L52.9402 25.7564L49.5694 23.3223L46.6519 26.3037L61.6171 31.2051L41.423 31.6553L36.3911 29.5545L29.5315 33.5281L60.3199 35.7644L50.8621 45.7629H67.556C70.8102 43.1136 78.1574 37.1484 78.2644 37.2169C80.4293 42.2599 83.8598 40.4175 86.4776 37.4777C87.2373 36.6248 88.071 39.5576 88.5002 34.7831C88.6079 34.6149 88.7049 34.4448 88.7983 34.2733C85.7651 32.9843 80.6247 35.2377 83.4451 31.2461C84.309 30.0243 86.9407 30.3551 89.6487 31.9141C89.7466 29.3462 89.471 24.7809 87.0435 23.7724C84.5449 22.7344 81.3189 22.8504 80.092 24.2236C78.4185 21.3835 73.4336 21.0151 71.4595 20.7301C70.8785 19.8166 70.6926 18.9669 70.5807 18L70.5809 18.0002ZM38.8944 27.9667L38.1275 28.6455L40.8427 29.7985L42.6686 27.9667H38.8944ZM85.4291 32.0643C86.5298 32.8733 86.6085 33.0643 87.346 33.0907C87.6147 32.9189 88.2074 32.3145 87.6584 32.1872L85.8009 31.8165C85.6091 31.7822 85.4611 31.9252 85.4291 32.0643ZM31.8571 35.0982L30.856 35.9839H34.6298L35.6313 35.0982H31.8571ZM25.2473 37.3861L23.2283 39.97H25.8959L26.8147 38.8908H33.9809L32.6455 40.0585H35.3296L38.0216 37.4748L25.2473 37.3861ZM27.8828 40.0669L10.335 60.1933L14.2093 59.4335L30.8019 40.0671L27.8828 40.0669ZM49.2094 47.5112L27.0974 70.8888L24.2881 71.6063C24.2881 71.6063 22.118 76.6224 21.1192 82.5526C22.4079 83.2447 24.0451 81.2033 24.0451 81.2033C24.0451 81.2033 23.86 83.4057 25.1623 82.8425C27.5342 78.0358 30.187 73.0422 30.187 73.0422L57.0603 52.5362L60.5926 53.4757L65.2629 54.7184L54.7376 64.5993L52.8468 62.5551C52.8468 62.5551 47.0726 68.9603 44.8876 73.6974C45.5825 74.4949 48.3082 72.4119 48.3082 72.4119C48.3082 72.4119 47.4049 74.0297 48.6333 73.9784C51.6295 71.1696 53.6273 68.9601 53.6273 68.9601L75.9745 52.3801L67.8597 47.5112H49.2094Z" fill="white"/>
</svg>
