<svg width="100" height="100" viewBox="0 0 100 100" fill="none" xmlns="http://www.w3.org/2000/svg">
<path d="M19.5711 11.9468C18.8471 11.9647 18.15 12.2259 17.6751 12.7352L21.6321 16.6769C22.2069 16.278 22.6 15.6246 22.6 14.7011C22.6 12.8574 21.0352 11.9107 19.5711 11.9468ZM27.6994 19.4912C26.8282 19.5127 25.9877 19.8243 25.4142 20.4342L41.3962 36.3314C42.4174 35.7186 43.1324 34.6427 43.1324 33.0732C43.1324 30.5483 41.2806 29.0883 39.2804 28.7769C39.6435 28.1207 39.8541 27.324 39.8541 26.3819C39.8541 21.5594 34.3252 19.9161 31.2218 21.8612C30.7716 20.2645 29.1924 19.4543 27.699 19.491L27.6994 19.4912ZM57.2582 20.2097C55.9665 20.2416 54.7535 21.04 54.7535 22.6597C54.7535 26.1154 60.287 26.4348 60.287 22.964C60.287 21.1203 58.7226 20.1736 57.2586 20.2097H57.2582ZM15.2153 20.4195C13.9322 20.9742 12.9751 22.1416 12.9751 23.957C12.9751 27.9564 17.6055 29.3302 20.1698 27.6843C20.1666 27.7412 20.165 27.7996 20.165 27.8588C20.165 31.3146 25.6985 31.6338 25.6985 28.1632C25.6985 25.4852 22.4085 24.7043 20.9037 26.0723L15.2153 20.4195ZM60.7659 28.5026C59.8965 28.4931 58.9798 28.7188 58.0666 29.2461C52.2227 32.6204 58.1449 41.6273 63.9645 38.2674C64.0108 38.2406 64.0543 38.2099 64.0991 38.1828C64.6701 39.8178 67.4227 40.3367 67.9759 38.2923C68.3534 36.8995 67.2801 35.884 66.1499 35.7025C67.1766 32.5464 64.3445 28.5429 60.7659 28.5026ZM16.7625 34.2108C15.4707 34.2428 14.2525 35.0363 14.2525 36.6557C14.2525 40.1113 19.7861 40.4308 19.7861 36.96C19.7861 35.1163 18.2265 34.1747 16.7623 34.2108H16.7625ZM30.04 35.1588C28.9845 35.9432 28.2735 37.189 28.2735 38.9161C28.2735 41.8646 30.3445 43.6408 32.6696 44.1354C32.5134 44.7348 32.4253 45.3884 32.4253 46.1014C32.4253 51.2284 36.7879 53.8806 40.8777 53.7905C41.3887 56.2239 43.4682 57.6283 45.6576 57.9167C45.6252 58.1602 45.6078 58.4139 45.6078 58.6802C45.6078 60.0112 46.0287 61.1005 46.7055 61.9434C45.0401 61.6276 43.2886 61.8323 41.8603 62.5773C42.3387 60.1995 38.5639 59.0119 37.9133 61.4396C37.5052 62.9578 38.8193 64.0304 40.049 64.0592C39.3058 65.002 38.8467 66.2414 38.8467 67.7916C38.8467 73.5286 45.0812 75.7309 49.0905 73.9038C49.0825 74.0283 49.0755 74.1537 49.0755 74.2833C49.0755 79.9185 56.64 81.2673 59.09 77.5815C60.1778 78.3937 61.5674 78.7981 62.9169 78.7737C62.6035 79.5029 62.4229 80.3469 62.4229 81.3136C62.4229 88.6463 72.6051 90.2072 75.3115 84.956C78.4828 88.6582 85.4888 89.1042 87.067 83.2146C88.124 79.2695 85.7389 76.2445 82.701 75.0315C85.5006 74.7617 88.0001 72.9105 88.0001 69.3482C88.0001 66.1604 85.9963 64.1186 83.5693 63.3108C83.5884 63.0945 83.5991 62.872 83.5991 62.6421C83.5991 61.6276 83.4011 60.7277 83.0604 59.9378C84.1398 59.4939 84.9515 58.5301 84.9515 57.0086C84.9515 55.9175 84.5326 55.0661 83.8987 54.4638C84.0048 54.4244 84.1097 54.3813 84.218 54.3192C86.4428 53.0428 84.5836 49.3646 82.3618 50.6468C81.2577 51.2835 81.1627 52.5101 81.6186 53.4263C80.6781 53.3104 79.7093 53.4977 78.969 54.0051C78.613 51.0991 76.1325 49.5193 73.6453 49.3795C73.7957 48.9009 73.8797 48.3687 73.8797 47.778C73.8797 41.1954 63.6489 40.4934 63.132 46.6901C61.2399 46.1364 59.165 46.2079 57.4238 46.9296C57.5728 46.3839 57.6533 45.7839 57.6533 45.1286C57.6533 38.3258 48.9624 36.5224 45.5037 40.4183L61.4057 56.2352C61.1973 56.4444 61.033 56.7203 60.9369 57.0787C60.2717 59.5536 64.1782 60.8374 64.8488 58.3609C65.1314 57.3166 64.5965 56.4884 63.8358 56.0607C65.2888 54.4182 67.6344 51.3916 68.9204 47.743C75.0932 56.2665 81.1964 68.7276 80.716 79.8318C69.6892 79.1804 56.3187 73.9629 47.8039 68.2855C55.5437 64.6551 57.4538 62.4275 57.4538 62.4275L42.3004 47.3537C43.0639 46.9961 43.6224 46.2721 43.6224 45.1683C43.6224 42.2368 39.6754 41.5751 38.4483 43.5215L30.0408 35.1588H30.04ZM78.4549 41.4809C77.1632 41.5128 75.95 42.3064 75.95 43.9259C75.95 47.3817 81.4835 47.706 81.4835 44.2352C81.4835 42.3914 79.9191 41.4448 78.455 41.4809H78.4549ZM26.0382 55.6564C24.9074 55.6872 23.7938 56.3055 23.4287 57.6674C22.7562 60.1774 25.6331 61.4372 27.4955 60.5116C27.6312 64.1992 33.9225 65.1253 35.0399 60.9555C36.0333 57.248 31.3228 55.514 28.8675 57.4578C28.5317 56.2912 27.2735 55.6232 26.0382 55.6567V55.6564ZM39.7051 77.611C38.9547 77.6179 38.2476 78.0193 37.9985 78.9484C37.5387 80.6585 39.2588 81.7979 40.5884 81.5232C40.7209 85.9429 47.8483 86.3171 47.8483 81.8026C47.8483 78.428 43.8637 77.3463 41.7958 78.8535C41.4182 78.0801 40.5357 77.6041 39.7049 77.6113L39.7051 77.611ZM58.0122 81.5881C57.7312 81.5973 57.4331 81.6823 57.1292 81.8574C54.9092 83.137 56.7604 86.8014 58.9854 85.525C60.8626 84.4477 59.8348 81.6621 58.1321 81.5879C58.0928 81.5863 58.0528 81.5866 58.0124 81.5879L58.0122 81.5881Z" fill="white"/>
</svg>
