<svg width="100" height="100" viewBox="0 0 100 100" fill="none" xmlns="http://www.w3.org/2000/svg">
<path d="M61.3739 17.0002C63.5125 19.5613 64.9153 22.4091 65.3848 25.3085C65.386 25.3101 65.3887 25.3115 65.3898 25.3135C66.0729 26.3941 66.6066 27.5909 66.9527 28.8816C67.5981 31.2905 67.4911 33.7121 66.8017 35.9501C67.6993 35.9272 68.594 35.9891 69.4736 36.1272C72.8635 27.6556 69.246 19.537 61.3739 17V17.0002ZM23.1977 18.0525C22.6657 18.0458 22.1523 18.2121 21.7392 18.5158C20.5362 19.3998 20.151 21.4555 22.385 23.7665C17.1018 19.9327 13.4982 25.9926 18.4728 27.6836C24.8379 29.8472 28.8569 33.993 33.6463 38.7944C34.3964 37.3025 35.3115 35.9847 36.3499 34.8406C31.4644 29.865 28.2923 25.9024 25.932 20.2245C25.3025 18.7099 24.2125 18.0643 23.1974 18.0523L23.1977 18.0525ZM75.0421 20.6933C77.7691 26.579 77.5353 32.8 73.3596 37.2785C74.3077 37.7031 75.2128 38.2228 76.0529 38.8257C76.8517 39.3991 77.5954 40.0529 78.2665 40.7793C83.3204 33.5734 81.8374 25.0836 75.0423 20.6936L75.0421 20.6933ZM53.3573 22.0218C52.3888 22.0326 51.3975 22.1684 50.4092 22.4335C44.3849 24.0473 40.9271 29.9143 42.4133 35.4608C43.2311 38.5122 45.3662 40.7761 48.2007 42.0241L48.8882 42.3263L49.0808 43.0451L50.8676 49.7175L63.7541 46.2694L61.9623 39.5965L61.7697 38.8726L62.2125 38.2683C64.0432 35.77 64.7594 32.7405 63.9418 29.689C62.7379 25.1945 58.535 22.1456 53.769 22.0264C53.6315 22.0231 53.4956 22.0198 53.3573 22.0214V22.0218ZM57.957 28.9859C58.0286 28.9834 58.0993 28.9832 58.1703 28.9859C59.4038 29.0352 60.5169 29.8773 60.8531 31.1322C61.267 32.6767 60.3509 34.2655 58.8062 34.6792C57.2611 35.0935 55.6725 34.1768 55.2586 32.6323C54.8449 31.0878 55.761 29.499 57.3059 29.0853C57.5229 29.0269 57.7414 28.9942 57.9568 28.9861L57.957 28.9859ZM85.5592 29.5176C86.5918 35.4597 85.0801 41.0187 80.6886 44.3785C81.6054 46.3476 82.0638 48.5732 81.8971 50.947C90.0744 45.3733 91.3829 35.9556 85.5592 29.5178V29.5176ZM48.5442 31.5542C49.792 31.5882 50.9238 32.4331 51.2633 33.7003C51.6771 35.2448 50.7608 36.8335 49.2159 37.2474C47.6713 37.6614 46.0826 36.745 45.6689 35.2005C45.2548 33.6558 46.1711 32.0671 47.7158 31.6531C47.9091 31.6014 48.102 31.571 48.2942 31.5597C48.378 31.5544 48.4609 31.552 48.5442 31.5544V31.5542ZM53.7998 35.1951L57.6494 39.9774L53.0556 41.0867L53.8001 35.1953L53.7998 35.1951ZM39.3661 36.1277C37.5209 37.8789 36.0474 40.2589 35.2356 43.3369C37.6187 44.5137 39.6268 46.0099 41.184 47.848C43.3951 50.4576 44.6407 53.7326 44.8094 57.4791C45.4828 57.3337 46.1738 57.2519 46.8722 57.2396C49.7455 57.1889 52.7159 58.314 54.8523 61.0163L52.4093 62.9487C49.9532 59.8425 46.2146 59.7757 43.4866 61.2509C42.1223 61.9884 41.094 63.1037 40.6474 64.3502C40.6374 64.3791 40.6314 64.4096 40.6216 64.4386L37.4336 64.3182C37.5032 63.9708 37.5969 63.6315 37.7149 63.3024C38.4273 61.3135 39.906 59.729 41.7101 58.6769C41.7789 55.0388 40.7636 52.1718 38.8036 49.8582C36.8667 47.5724 33.9373 45.8082 30.0315 44.6542C29.6918 44.6042 29.3671 44.5781 29.0626 44.5764C28.7149 44.5744 28.3915 44.6017 28.0886 44.6544C26.8775 44.8658 25.955 45.45 25.1716 46.4463C23.6051 48.4395 22.8263 52.2498 23.4371 56.755L24.0883 61.5369L20.7651 58.0365C18.9049 56.0746 17.0958 55.5632 15.4778 55.7392C13.8603 55.9154 12.3725 56.8682 11.441 58.1978C10.5097 59.528 10.15 61.1518 10.6546 62.7455C10.9326 63.624 11.4847 64.5379 12.4465 65.4072C14.44 68.0415 20.155 70.8925 29.6046 72.6739C27.0977 73.4863 25.4792 74.7808 25.4792 76.2368C25.4792 78.6962 30.103 80.6906 35.8087 80.6906C41.5144 80.6906 46.1382 78.6962 46.1382 76.2368C46.1382 75.555 45.7839 74.908 45.1481 74.3302C47.0053 74.4036 48.9394 74.4397 50.9511 74.4397C70.8441 74.4397 87.1146 71.0377 88.3355 66.7355C92.5294 58.9299 85.1002 52.9256 80.4963 54.2807L77.9438 55.0308L78.5379 52.4372C79.628 47.6806 77.5921 43.762 74.2352 41.3525C71.6966 39.5298 68.4392 38.6789 65.3125 39.2011C65.2585 39.2878 65.207 39.3758 65.1508 39.4615L67.1617 46.9674L67.5679 48.473L66.0628 48.8792L50.1702 53.1347L48.665 53.5361L48.2638 52.0359L46.2529 44.5246C42.9892 42.8705 40.4056 40.009 39.4031 36.2686C39.3906 36.2214 39.3788 36.1747 39.3668 36.1277H39.3661ZM74.2869 76.7363C71.6307 76.7363 69.4738 77.6648 69.4738 78.8096C69.4738 79.9544 71.6307 80.8827 74.2867 80.8827C76.9429 80.8827 79.0946 79.9542 79.0946 78.8094C79.0946 77.6646 76.9427 76.7363 74.2869 76.7363ZM20.5516 79.2888C17.8953 79.2888 15.7435 80.2169 15.7435 81.3619C15.7435 82.507 17.8954 83.4351 20.5514 83.4351C23.2074 83.4351 25.3591 82.5067 25.3591 81.3619C25.3591 80.2168 23.2072 79.2886 20.5512 79.2886L20.5516 79.2888Z" fill="white"/>
</svg>
