<svg width="200" height="200" viewBox="0 0 200 200" fill="none" xmlns="http://www.w3.org/2000/svg">
<g clip-path="url(#clip0)">
<path d="M25.1845 95.2098C24.9407 94.6221 24.6568 94.0539 24.3113 93.5157C23.7541 92.6491 23.0818 91.8777 22.3036 91.1923C22.2835 91.1753 22.2648 91.1558 22.2434 91.1414C21.5161 90.6228 20.7835 90.1146 19.9491 89.7653C19.3397 89.5112 18.7022 89.3496 18.05 89.2402C17.0723 89.076 16.0838 89.0134 15.0941 88.9743C13.3182 88.9027 11.5422 88.9535 9.76629 88.9874C9.2761 88.9965 8.78458 89.0187 8.29439 89.0343C8.25822 89.0356 8.2234 89.0356 8.18724 89.0395C8.13501 89.0447 8.10956 89.0799 8.10822 89.1268C8.10554 89.1959 8.10822 89.2649 8.10822 89.3353C8.12563 91.7552 8.14438 94.1751 8.16313 96.5937C8.18054 98.9784 8.19929 101.363 8.2167 103.749C8.22742 105.094 8.23813 106.437 8.25019 107.782C8.25287 108.107 8.21938 108.068 8.55555 108.074C9.98326 108.099 11.411 108.133 12.84 108.107C13.9289 108.086 15.0178 108.072 16.1053 108.017C16.6584 107.988 17.2102 107.949 17.762 107.913C18.0044 107.897 18.2348 107.824 18.4665 107.763C19.6371 107.454 20.7366 106.991 21.7304 106.307C22.7349 105.616 23.5492 104.753 24.2135 103.75C24.6595 103.078 25.0224 102.364 25.3372 101.626C25.451 101.543 25.585 101.54 25.7202 101.54C27.4479 101.54 29.1743 101.539 30.902 101.542C31.032 101.542 31.1739 101.521 31.2704 101.643L31.2717 101.66C31.2409 101.714 31.2677 101.78 31.2329 101.832C31.1324 102.209 31.0413 102.589 30.9275 102.962C30.1587 105.484 28.7966 107.66 26.8573 109.491C24.8162 111.417 22.4068 112.709 19.6478 113.379C18.141 113.745 16.6102 113.89 15.0579 113.812C11.2047 113.619 7.84438 112.265 5.01038 109.724C2.68533 107.639 1.16922 105.081 0.445992 102.085C0.261167 101.316 0.141968 100.537 0.0964308 99.7472C0.0910735 99.6521 0.0736624 99.5583 0.0589299 99.4645C0.0535726 99.4293 0.0361615 99.3993 0 99.385C0 98.9693 0 98.5523 0 98.1366C0.111163 97.8186 0.0441974 97.485 0.080359 97.1592C0.261167 95.4938 0.719213 93.9106 1.45182 92.3976C2.09871 91.0606 2.91971 89.8357 3.93491 88.7411C5.07065 87.5162 6.36845 86.4789 7.84973 85.6592C9.56674 84.7066 11.4003 84.0877 13.3516 83.7853C13.7762 83.7202 14.2021 83.7124 14.6294 83.6928C14.7874 83.685 14.9481 83.7228 15.1035 83.6667C15.5495 83.6667 15.9968 83.6667 16.4428 83.6667C16.5325 83.7176 16.6343 83.7032 16.7307 83.7071C18.9446 83.8153 21.0433 84.3574 23.0095 85.3465C26.6149 87.1591 29.1583 89.9061 30.6061 93.5978C30.7936 94.0761 30.9436 94.5647 31.0775 95.0599C31.1203 95.1876 31.0641 95.2593 30.9355 95.2853C30.8391 95.3049 30.74 95.3036 30.6422 95.3036C28.9667 95.3036 27.2912 95.3049 25.6158 95.3036C25.4658 95.3023 25.3077 95.3244 25.1845 95.2098Z" fill="white"/>
<path d="M199.999 94.3877C199.945 94.4347 199.956 94.4985 199.954 94.5584C199.942 95.0354 199.859 95.5058 199.803 95.9788C199.762 96.332 199.72 96.6838 199.676 97.037C199.644 97.3041 199.609 97.57 199.574 97.8358C199.562 97.9205 199.541 97.9413 199.454 97.94C199.105 97.9361 198.757 97.927 198.409 97.9231C198.16 97.9205 197.909 97.9166 197.66 97.9283C197.355 97.9426 197.06 98.0143 196.782 98.1355C196.254 98.3636 195.878 98.7441 195.618 99.2393C195.576 99.3174 195.555 99.3995 195.559 99.4894C195.563 99.5676 195.56 99.6458 195.56 99.724C195.56 102.897 195.56 106.072 195.56 109.245C195.56 109.323 195.561 109.401 195.559 109.479C195.555 109.577 195.536 109.593 195.428 109.598C195.374 109.6 195.32 109.599 195.267 109.599C194.071 109.599 192.875 109.599 191.679 109.599C191.351 109.599 191.379 109.621 191.379 109.302C191.379 104.447 191.379 99.5898 191.379 94.7344C191.379 94.6731 191.377 94.6132 191.38 94.5519C191.385 94.4542 191.403 94.4386 191.513 94.4347C191.576 94.432 191.637 94.4334 191.7 94.4334C192.789 94.4334 193.878 94.4334 194.967 94.4334C194.994 94.4334 195.02 94.4334 195.047 94.4334C195.295 94.432 195.275 94.4386 195.294 94.6614C195.346 95.2986 195.402 95.9358 195.457 96.5731C195.525 96.5744 195.536 96.5275 195.553 96.491C195.693 96.2186 195.847 95.9554 196.026 95.7065C196.279 95.3573 196.575 95.0458 196.928 94.7878C197.471 94.389 198.081 94.1753 198.764 94.1623C199.186 94.1545 199.6 94.1949 200 94.3356C199.999 94.3526 199.999 94.3695 199.999 94.3877Z" fill="#3B9B9A"/>
<path d="M38.9983 99.1752C38.9983 98.5341 38.9943 97.8917 38.9996 97.2505C39.0063 96.3631 39.1135 95.4861 39.3652 94.63C39.9371 92.6844 41.0822 91.1428 42.8368 90.0443C43.6953 89.5074 44.6408 89.1855 45.6466 89.0213C46.398 88.8989 47.1534 88.8702 47.9141 88.9041C48.7097 88.9393 49.4958 89.037 50.2659 89.2364C51.2061 89.4787 52.0794 89.858 52.8602 90.4287C54.1781 91.393 54.9924 92.6675 55.3259 94.2351C55.4451 94.7981 55.5 95.3662 55.496 95.9409C55.496 95.993 55.496 96.0452 55.4933 96.0973C55.4879 96.1846 55.4665 96.2067 55.3848 96.212C55.3406 96.2146 55.2951 96.2133 55.2509 96.2133C54.0375 96.2133 52.8227 96.2133 51.6093 96.2133C51.5999 96.2133 51.5919 96.2133 51.5825 96.2133C51.3655 96.2172 51.3776 96.2041 51.3749 96.0139C51.3695 95.4913 51.2986 94.9766 51.1459 94.4749C51.0575 94.183 50.9343 93.9041 50.7762 93.6422C50.4106 93.0363 49.8936 92.6023 49.2159 92.3573C48.3521 92.0459 47.4601 91.969 46.5547 92.115C45.7216 92.2492 45.0413 92.661 44.5002 93.2891C43.9832 93.8924 43.6444 94.5831 43.4368 95.3389C43.2627 95.9709 43.189 96.6172 43.1863 97.2688C43.1796 98.6827 43.1783 100.095 43.1863 101.509C43.1917 102.329 43.3055 103.134 43.6015 103.907C43.8627 104.59 44.239 105.203 44.7788 105.716C45.3239 106.234 45.9734 106.557 46.7275 106.673C47.4681 106.788 48.2034 106.758 48.9293 106.57C49.974 106.301 50.6704 105.661 51.0427 104.681C51.2396 104.164 51.3227 103.625 51.3561 103.078C51.3628 102.974 51.3602 102.87 51.3655 102.767C51.3695 102.662 51.3816 102.653 51.4941 102.648C51.5303 102.647 51.5651 102.647 51.6012 102.647C52.8066 102.647 54.0107 102.647 55.216 102.647C55.4705 102.647 55.4745 102.648 55.4732 102.889C55.4652 103.894 55.3272 104.878 54.9268 105.812C54.2759 107.33 53.1589 108.413 51.6374 109.114C50.9651 109.424 50.2539 109.618 49.5213 109.741C48.6909 109.88 47.8538 109.923 47.0141 109.888C45.7243 109.835 44.4841 109.575 43.3403 108.973C41.3327 107.917 40.0215 106.306 39.3746 104.184C39.1121 103.323 39.0036 102.437 38.9996 101.54C38.9956 100.753 38.9983 99.9636 38.9983 99.1752Z" fill="white"/>
<path d="M82.2111 94.4538C82.0826 94.8109 81.9607 95.1536 81.8375 95.4963C80.379 99.523 78.9191 103.551 77.4606 107.578C76.957 108.967 76.4601 110.357 75.9498 111.744C75.5855 112.734 75.0351 113.619 74.3145 114.406C73.7614 115.012 73.073 115.382 72.2707 115.566C71.8087 115.671 71.3386 115.721 70.8671 115.745C70.401 115.769 69.9416 115.689 69.4863 115.602C69.2331 115.554 68.9814 115.493 68.7309 115.433C68.6171 115.405 68.6077 115.39 68.6238 115.293C68.7349 114.617 68.8461 113.942 68.9586 113.266C69.0001 113.018 69.043 112.77 69.0845 112.522C69.0952 112.46 69.1233 112.428 69.1903 112.437C69.2881 112.45 69.3845 112.462 69.4823 112.473C69.9122 112.525 70.3367 112.51 70.7546 112.394C71.0694 112.307 71.3426 112.15 71.5756 111.925C71.8837 111.628 72.1234 111.285 72.2935 110.899C72.4676 110.5 72.6243 110.095 72.7984 109.696C72.8426 109.595 72.8172 109.513 72.7837 109.424C72.4944 108.632 72.2064 107.841 71.9171 107.048C70.4144 102.927 68.9117 98.8036 67.409 94.6819C67.3822 94.6089 67.3594 94.5359 67.3367 94.4695C67.3862 94.4095 67.4425 94.4265 67.492 94.4265C68.8755 94.4252 70.2591 94.4252 71.6412 94.4252C71.668 94.4252 71.6948 94.4239 71.7216 94.4252C71.8207 94.4304 71.8354 94.4421 71.8689 94.5411C71.885 94.5907 71.8997 94.6402 71.9145 94.691C72.5788 96.9115 73.2417 99.132 73.906 101.353C74.0654 101.884 74.2221 102.417 74.3842 102.949C74.4806 103.266 74.5355 103.59 74.6065 103.912C74.6159 103.954 74.6252 103.997 74.6413 104.037C74.6453 104.049 74.6694 104.06 74.6842 104.06C74.6989 104.06 74.7217 104.049 74.727 104.036C74.7565 103.964 74.7846 103.891 74.8074 103.817C75.3137 102.175 75.8199 100.532 76.3262 98.8883C76.7641 97.4693 77.2021 96.0515 77.64 94.6337C77.707 94.4173 77.6842 94.4239 77.9307 94.4239C79.278 94.4239 80.6254 94.4239 81.9727 94.4252C82.0437 94.4252 82.116 94.4134 82.2111 94.4538Z" fill="white"/>
<path d="M155.775 103.446C155.775 101.503 155.775 99.561 155.775 97.618C155.775 97.2623 155.808 97.3001 155.444 97.2988C154.891 97.2975 154.337 97.2988 153.783 97.2988C153.72 97.2988 153.658 97.3001 153.595 97.2975C153.486 97.2923 153.468 97.2766 153.463 97.1789C153.46 97.1359 153.462 97.0916 153.462 97.0486C153.462 96.2589 153.462 95.4705 153.462 94.6808C153.462 94.6456 153.46 94.6117 153.463 94.5766C153.468 94.4475 153.48 94.4332 153.624 94.4332C154.133 94.4306 154.641 94.4319 155.15 94.4319C155.311 94.4319 155.472 94.4332 155.633 94.4306C155.75 94.428 155.775 94.4072 155.775 94.2925C155.777 93.8064 155.769 93.3217 155.777 92.8356C155.785 92.3326 155.811 91.8309 155.914 91.3357C156.066 90.6034 156.341 89.9231 156.812 89.3276C157.366 88.6278 158.082 88.1431 158.93 87.8368C159.519 87.6231 160.13 87.5045 160.755 87.4628C160.968 87.4485 161.183 87.4316 161.397 87.4277C162.096 87.4146 162.784 87.515 163.466 87.6518C163.585 87.6752 163.738 87.6505 163.81 87.7599C163.875 87.8564 163.802 87.9789 163.79 88.0883C163.731 88.6396 163.662 89.1895 163.596 89.7407C163.571 89.9557 163.547 90.1707 163.522 90.387C163.514 90.4561 163.51 90.5252 163.498 90.5942C163.47 90.7532 163.455 90.7688 163.288 90.7376C162.839 90.6542 162.387 90.6229 161.93 90.6333C161.76 90.6372 161.592 90.6529 161.426 90.6881C160.743 90.8314 160.307 91.2328 160.1 91.8752C160.028 92.0993 159.987 92.33 159.985 92.5658C159.984 93.1301 159.984 93.693 159.983 94.2573C159.983 94.2912 159.984 94.3264 159.989 94.3602C159.995 94.398 160.017 94.4254 160.056 94.428C160.137 94.4332 160.217 94.4345 160.297 94.4345C161.136 94.4345 161.976 94.4345 162.814 94.4345C163.091 94.4345 163.08 94.4267 163.08 94.686C163.08 95.4757 163.08 96.2641 163.08 97.0538C163.08 97.0968 163.082 97.1411 163.079 97.1841C163.074 97.2701 163.051 97.2949 162.969 97.2988C162.898 97.3027 162.826 97.3014 162.755 97.3014C161.943 97.3014 161.13 97.3014 160.319 97.3014C160.248 97.3014 160.175 97.3001 160.105 97.3027C160.001 97.3066 159.988 97.3209 159.984 97.4304C159.981 97.5164 159.983 97.6037 159.983 97.691C159.983 101.542 159.983 105.392 159.983 109.243C159.983 109.33 159.981 109.416 159.98 109.504C159.979 109.568 159.94 109.596 159.878 109.599C159.807 109.602 159.735 109.602 159.664 109.602C158.468 109.602 157.272 109.602 156.076 109.602C155.754 109.602 155.775 109.621 155.775 109.303C155.775 107.348 155.775 105.398 155.775 103.446Z" fill="#3B9B9A"/>
<path d="M166.316 103.451C166.316 101.5 166.316 99.5492 166.316 97.5985C166.316 97.2714 166.347 97.3 166.02 97.2987C165.45 97.2974 164.878 97.2987 164.307 97.2987C164.236 97.2987 164.164 97.2974 164.093 97.2948C164.042 97.2922 164.013 97.2623 164.009 97.214C164.005 97.1619 164.005 97.1098 164.005 97.0577C164.005 96.2602 164.005 95.4627 164.005 94.6651C164.005 94.613 164.006 94.5609 164.01 94.5101C164.013 94.4723 164.034 94.4449 164.076 94.441C164.147 94.4358 164.218 94.4332 164.289 94.4332C164.842 94.4332 165.395 94.4332 165.948 94.4332C166.011 94.4332 166.073 94.4345 166.135 94.4332C166.307 94.4293 166.314 94.4254 166.315 94.2547C166.316 93.7947 166.318 93.336 166.315 92.876C166.312 92.4238 166.342 91.9755 166.417 91.5298C166.543 90.7845 166.794 90.086 167.247 89.4657C167.812 88.693 168.568 88.16 169.48 87.8342C170.078 87.6205 170.697 87.5006 171.333 87.4615C171.538 87.4485 171.743 87.4315 171.948 87.4276C172.639 87.4146 173.317 87.5175 173.992 87.6452C174.009 87.6492 174.027 87.6557 174.044 87.6583C174.43 87.7234 174.374 87.713 174.337 88.0596C174.284 88.5848 174.213 89.1087 174.15 89.6338C174.11 89.9687 174.071 90.3049 174.029 90.6398C174.017 90.7415 173.996 90.7571 173.891 90.7441C173.732 90.7258 173.573 90.705 173.415 90.6789C173.025 90.6151 172.631 90.6151 172.24 90.6463C171.783 90.6828 171.374 90.8392 171.049 91.1715C170.92 91.3057 170.816 91.4556 170.739 91.6237C170.625 91.8713 170.546 92.1306 170.541 92.4016C170.53 93.0349 170.531 93.667 170.53 94.3003C170.53 94.411 170.554 94.4319 170.676 94.4332C170.89 94.4358 171.104 94.4345 171.319 94.4345C171.97 94.4345 172.622 94.4345 173.273 94.4345C173.336 94.4345 173.397 94.4332 173.46 94.4358C173.594 94.441 173.604 94.4527 173.609 94.5922C173.61 94.6182 173.609 94.6443 173.609 94.6704C173.609 95.4679 173.609 96.2654 173.609 97.0629C173.609 97.3092 173.606 97.3014 173.354 97.3014C172.524 97.3014 171.695 97.3014 170.865 97.3014C170.794 97.3014 170.721 97.3 170.65 97.3027C170.551 97.3066 170.532 97.3261 170.528 97.4317C170.526 97.5177 170.527 97.605 170.527 97.6923C170.527 101.542 170.527 105.392 170.527 109.242C170.527 109.329 170.527 109.415 170.523 109.502C170.52 109.564 170.484 109.596 170.421 109.599C170.368 109.601 170.314 109.601 170.261 109.601C169.038 109.601 167.815 109.601 166.592 109.601C166.529 109.601 166.468 109.603 166.405 109.598C166.356 109.594 166.322 109.566 166.32 109.515C166.318 109.437 166.316 109.359 166.316 109.282C166.316 107.335 166.316 105.394 166.316 103.451Z" fill="#3B9B9A"/>
<path d="M108.008 106.538C108.067 106.595 108.067 106.658 108.073 106.718C108.152 107.372 108.229 108.026 108.308 108.68C108.336 108.912 108.368 109.144 108.396 109.377C108.407 109.459 108.391 109.487 108.308 109.513C107.943 109.629 107.572 109.723 107.195 109.79C106.612 109.895 106.024 109.918 105.435 109.889C104.97 109.866 104.513 109.793 104.069 109.652C102.874 109.274 102.072 108.512 101.671 107.353C101.52 106.917 101.436 106.465 101.385 106.007C101.342 105.618 101.338 105.228 101.338 104.838C101.338 102.428 101.339 100.017 101.338 97.6062C101.338 97.2452 101.39 97.2986 101.007 97.296C100.471 97.2934 99.9356 97.2947 99.3999 97.2947C99.3369 97.2947 99.2753 97.296 99.2124 97.2947C99.0851 97.2921 99.0704 97.2778 99.065 97.1657C99.0637 97.1305 99.065 97.0966 99.065 97.0614C99.065 96.2548 99.065 95.4482 99.065 94.6416C99.065 94.6064 99.065 94.5725 99.0664 94.5373C99.0704 94.4409 99.0811 94.4292 99.1722 94.4252C99.2351 94.4226 99.2967 94.4239 99.3597 94.4239C99.9128 94.4239 100.466 94.4239 101.02 94.4239C101.091 94.4239 101.164 94.4226 101.235 94.4226C101.298 94.4226 101.337 94.3953 101.338 94.3314C101.339 94.2624 101.339 94.1933 101.339 94.1229C101.339 93.0908 101.339 92.0588 101.339 91.0267C101.339 90.9655 101.341 90.9055 101.339 90.8443C101.337 90.7179 101.359 90.697 101.495 90.697C102.048 90.6983 102.601 90.697 103.155 90.697C103.852 90.697 104.548 90.697 105.245 90.697C105.316 90.697 105.388 90.697 105.459 90.6983C105.513 90.6996 105.539 90.7322 105.541 90.7817C105.545 90.8599 105.545 90.9381 105.545 91.0163C105.545 92.0484 105.545 93.0804 105.545 94.1125C105.545 94.4578 105.515 94.4226 105.857 94.4226C106.517 94.4239 107.177 94.4226 107.839 94.4226C107.91 94.4226 107.982 94.4213 108.053 94.4239C108.142 94.4265 108.154 94.4409 108.158 94.536C108.159 94.5621 108.159 94.5881 108.159 94.6142C108.159 95.4378 108.159 96.2613 108.159 97.0862C108.159 97.1292 108.159 97.1735 108.155 97.2165C108.15 97.266 108.117 97.2908 108.065 97.2921C107.994 97.2934 107.922 97.2934 107.851 97.2934C107.181 97.2934 106.512 97.2934 105.842 97.2934C105.771 97.2934 105.699 97.2947 105.628 97.296C105.574 97.2973 105.547 97.326 105.546 97.3768C105.545 97.4641 105.543 97.5501 105.543 97.6374C105.543 100.014 105.543 102.39 105.543 104.767C105.543 104.966 105.546 105.166 105.561 105.365C105.57 105.494 105.593 105.623 105.624 105.749C105.795 106.42 106.32 106.642 106.775 106.668C107.114 106.688 107.453 106.671 107.785 106.583C107.862 106.564 107.939 106.552 108.008 106.538Z" fill="white"/>
<path d="M12.2748 98.5757C12.2748 96.9885 12.2748 95.4026 12.2748 93.8154C12.2748 93.7464 12.2721 93.676 12.2761 93.6069C12.2828 93.4884 12.3123 93.4558 12.4436 93.4584C12.8266 93.4649 13.211 93.4441 13.594 93.4819C13.665 93.4884 13.736 93.4884 13.8083 93.4897C14.2811 93.4962 14.7539 93.4975 15.2267 93.5092C15.761 93.5235 16.2968 93.5327 16.8298 93.5718C17.1834 93.5978 17.541 93.6004 17.8906 93.6851C18.5522 93.8441 19.1428 94.1399 19.6718 94.5491C20.2893 95.0247 20.7741 95.6085 21.117 96.2979C21.3701 96.8087 21.5362 97.343 21.5964 97.9112C21.6755 98.6526 21.6299 99.3811 21.425 100.099C21.2188 100.822 20.8491 101.458 20.3107 101.999C19.5044 102.811 18.512 103.293 17.3883 103.533C17.0495 103.604 16.7012 103.628 16.3544 103.65C15.303 103.719 14.2503 103.704 13.1976 103.692C12.9311 103.689 12.6632 103.67 12.3967 103.655C12.3096 103.651 12.2815 103.624 12.2775 103.547C12.2735 103.469 12.2748 103.391 12.2748 103.313C12.2748 101.732 12.2748 100.154 12.2748 98.5757Z" fill="#67C0BE"/>
<path d="M58.1236 102.008C58.1236 99.5791 58.1236 97.1514 58.1236 94.7224C58.1236 94.3966 58.0834 94.4253 58.4182 94.4253C59.5432 94.4253 60.6683 94.4253 61.792 94.4253C62.0598 94.4253 62.021 94.4149 62.0424 94.6442C62.0719 94.9726 62.1013 95.301 62.1281 95.6294C62.1522 95.9148 62.1723 96.2001 62.1964 96.4855C62.1978 96.509 62.1897 96.5403 62.2259 96.5494C62.2755 96.5611 62.2808 96.5207 62.2969 96.4933C62.3906 96.3252 62.4764 96.1545 62.5781 95.9916C62.8567 95.5421 63.1969 95.142 63.6241 94.8188C64.4197 94.2194 65.3157 94.0344 66.2988 94.2142C66.422 94.2363 66.5425 94.2663 66.6644 94.2911C66.7287 94.3041 66.7541 94.3445 66.7474 94.4031C66.7206 94.6533 66.6925 94.9035 66.663 95.1524C66.5988 95.6776 66.5331 96.2027 66.4688 96.7279C66.4247 97.081 66.3845 97.4342 66.3389 97.786C66.3188 97.9385 66.3108 97.9424 66.1554 97.9385C65.7175 97.9307 65.2809 97.9203 64.8443 97.9124C64.5041 97.9059 64.1679 97.9307 63.8384 98.0245C63.1648 98.2174 62.692 98.6357 62.3732 99.2338C62.3317 99.3133 62.3103 99.3941 62.3143 99.484C62.317 99.5531 62.3143 99.6221 62.3143 99.6925C62.3143 102.858 62.3143 106.023 62.3143 109.19C62.3143 109.251 62.3143 109.311 62.3143 109.372C62.3143 109.609 62.3317 109.597 62.0826 109.597C60.8504 109.597 59.6183 109.597 58.3874 109.597C58.0995 109.597 58.1249 109.609 58.1249 109.347C58.1236 106.9 58.1236 104.454 58.1236 102.008Z" fill="white"/>
<path d="M151.22 102.011C151.22 104.429 151.22 106.848 151.22 109.265C151.22 109.351 151.217 109.439 151.211 109.525C151.209 109.564 151.182 109.587 151.143 109.591C151.082 109.596 151.019 109.599 150.957 109.599C149.734 109.599 148.513 109.599 147.29 109.599C147.254 109.599 147.219 109.6 147.183 109.598C147.048 109.592 147.035 109.581 147.031 109.443C147.029 109.373 147.031 109.304 147.031 109.234C147.031 104.423 147.031 99.6131 147.033 94.802C147.033 94.3732 146.973 94.4332 147.416 94.4319C148.585 94.4293 149.753 94.4306 150.922 94.4306C151.249 94.4306 151.222 94.4045 151.222 94.7277C151.219 97.1567 151.22 99.5831 151.22 102.011Z" fill="#3B9B9A"/>
<path d="M149.137 87.7288C149.736 87.7288 150.333 87.7288 150.932 87.7288C151.003 87.7288 151.075 87.7301 151.146 87.7353C151.185 87.7379 151.209 87.7666 151.213 87.8043C151.218 87.8565 151.219 87.9086 151.219 87.9594C151.219 88.8273 151.221 89.6939 151.219 90.5617C151.219 90.7911 151.217 90.7937 150.985 90.7937C149.745 90.795 148.503 90.7937 147.263 90.7937C147.236 90.7937 147.21 90.7937 147.183 90.7937C147.044 90.7885 147.031 90.7807 147.031 90.6399C147.029 90.1539 147.03 89.6691 147.03 89.183C147.03 88.7843 147.03 88.3855 147.03 87.9868C147.03 87.9268 147.031 87.8656 147.037 87.8056C147.039 87.7679 147.062 87.7392 147.102 87.7366C147.173 87.7327 147.244 87.7288 147.317 87.7288C147.923 87.7288 148.53 87.7288 149.137 87.7288Z" fill="#3B9B9A"/>
<path d="M25.1846 95.2098C25.2743 95.2111 25.3627 95.215 25.4524 95.215C27.227 95.2163 29.0003 95.2163 30.7749 95.2176C30.8285 95.2176 30.882 95.2189 30.9356 95.2176C31.0588 95.2137 31.0588 95.2137 31.0762 95.0625C31.091 95.0833 31.1177 95.1042 31.1177 95.1264C31.1191 95.3805 31.2195 95.6163 31.257 95.8626C31.2852 96.049 31.3535 96.2314 31.3334 96.4217C31.3093 96.4269 31.2852 96.4386 31.2798 96.4334C31.1794 96.3226 31.0481 96.3226 30.9115 96.3226C29.2427 96.3226 27.5753 96.3213 25.9065 96.3213C25.8355 96.3213 25.7632 96.3226 25.6922 96.3213C25.5301 96.3174 25.5355 96.3161 25.4899 96.1519C25.4029 95.83 25.3172 95.5121 25.1846 95.2098Z" fill="#B3B1B1"/>
<path d="M31.2691 101.64C31.1928 101.61 31.1111 101.617 31.0321 101.617C29.1865 101.617 27.3422 101.617 25.4967 101.617C25.4431 101.617 25.3895 101.621 25.3359 101.624C25.3547 101.584 25.3721 101.545 25.3922 101.506C25.4377 101.414 25.4645 101.3 25.5368 101.234C25.6145 101.164 25.7444 101.223 25.8462 101.2C26.2239 101.114 26.6069 101.158 26.9873 101.154C27.7614 101.147 28.5356 101.152 29.3097 101.153C29.4249 101.153 29.5387 101.148 29.6526 101.186C29.7168 101.207 29.7932 101.203 29.8642 101.203C30.2017 101.204 30.5405 101.199 30.878 101.205C31.02 101.208 31.1419 101.186 31.233 101.071C31.2477 101.053 31.2691 101.031 31.3133 101.048C31.3495 101.1 31.3455 101.174 31.324 101.231C31.2745 101.366 31.2852 101.504 31.2691 101.64Z" fill="#E5E2E2"/>
<path d="M31.2315 101.829C31.2233 101.767 31.2288 101.707 31.271 101.656C31.2873 101.72 31.2941 101.782 31.2315 101.829Z" fill="#E5E2E2"/>
<path d="M143.86 100.919C143.855 99.9817 143.859 99.0461 143.859 98.1092C143.859 97.7195 143.856 97.3299 143.826 96.9403C143.786 96.3943 143.703 95.8561 143.567 95.3244C143.238 94.0473 142.626 92.9162 141.717 91.9376C140.727 90.8729 139.543 90.0976 138.138 89.6454C137.147 89.3261 136.127 89.1867 135.085 89.1854C132.782 89.1841 130.48 89.1841 128.178 89.1854C127.8 89.1854 127.84 89.1411 127.84 89.5229C127.839 92.8094 127.84 96.0958 127.84 99.381C127.84 102.684 127.84 105.988 127.84 109.291C127.84 109.627 127.808 109.597 128.158 109.597C130.46 109.597 132.762 109.599 135.065 109.596C135.466 109.596 135.867 109.584 136.266 109.539C136.87 109.47 137.463 109.355 138.043 109.177C139.29 108.792 140.378 108.151 141.318 107.267C142.692 105.977 143.48 104.402 143.75 102.575C143.833 102.028 143.863 101.474 143.86 100.919ZM139.638 101.142C139.638 101.866 139.543 102.576 139.313 103.267C139.064 104.012 138.671 104.674 138.101 105.233C137.483 105.838 136.736 106.198 135.88 106.354C135.52 106.42 135.156 106.45 134.79 106.45C133.969 106.45 133.148 106.45 132.327 106.45C132.012 106.45 132.035 106.47 132.035 106.172C132.035 103.908 132.035 101.645 132.035 99.3823C132.035 97.1449 132.035 94.9074 132.035 92.6699C132.035 92.3129 131.995 92.3481 132.361 92.3481C133.218 92.3468 134.074 92.3481 134.931 92.3481C135.507 92.3481 136.068 92.4354 136.61 92.6282C137.441 92.9241 138.097 93.4401 138.606 94.1386C139.089 94.8018 139.377 95.5407 139.525 96.3356C139.61 96.7969 139.641 97.2634 139.64 97.7326C139.637 98.8689 139.64 100.005 139.638 101.142Z" fill="#3B9B9A"/>
<path d="M97.8664 100.555C97.7807 99.7939 97.6267 99.0485 97.3736 98.3227C97.0669 97.4444 96.6329 96.6339 96.0142 95.9224C95.3512 95.16 94.5302 94.6297 93.5391 94.3612C92.836 94.1697 92.1208 94.1136 91.3922 94.1684C90.3046 94.2492 89.3832 94.6714 88.6131 95.4141C88.3975 95.6226 88.2033 95.8494 88.0251 96.0879C88.0064 96.1139 87.989 96.1543 87.9461 96.1322C87.9274 96.1217 87.914 96.0905 87.9113 96.067C87.8684 95.7582 87.8309 95.448 87.7854 95.1392C87.7506 94.9085 87.7412 94.674 87.6796 94.4524C87.5952 94.4094 87.5135 94.4264 87.4345 94.4264C86.3456 94.4251 85.2568 94.4251 84.1679 94.4251C84.1143 94.4251 84.0607 94.4264 84.0072 94.4264C83.9442 94.4264 83.9054 94.4524 83.904 94.5176C83.9027 94.6127 83.9014 94.7079 83.9014 94.8043C83.9014 100.926 83.9014 107.05 83.9014 113.172C83.9014 113.848 83.9027 114.524 83.9014 115.201C83.9014 115.453 83.8987 115.443 84.1491 115.443C85.3626 115.443 86.5773 115.443 87.7907 115.443C88.135 115.443 88.0948 115.461 88.0948 115.152C88.0961 113.131 88.0948 111.112 88.0948 109.09C88.0948 108.848 88.0934 108.604 88.0961 108.362C88.0961 108.323 88.0774 108.275 88.1242 108.249C88.1363 108.249 88.147 108.245 88.151 108.247C88.2059 108.305 88.2595 108.362 88.3131 108.421C88.9238 109.088 89.6698 109.536 90.5631 109.748C91.3908 109.945 92.2239 109.94 93.0596 109.803C94.4364 109.576 95.536 108.911 96.3718 107.829C96.8365 107.228 97.1807 106.565 97.4298 105.855C97.77 104.885 97.912 103.883 97.9468 102.865C97.9749 102.094 97.9535 101.324 97.8664 100.555ZM93.7226 103.147C93.6811 103.851 93.5431 104.539 93.2445 105.189C93.1132 105.476 92.9511 105.744 92.7355 105.979C92.3431 106.405 91.8449 106.643 91.269 106.708C90.689 106.775 90.1104 106.746 89.5493 106.565C89.0176 106.394 88.5836 106.092 88.2461 105.654C88.1403 105.516 88.0908 105.375 88.0921 105.201C88.0988 104.161 88.0961 103.119 88.0961 102.08C88.0961 101.048 88.1001 100.017 88.0921 98.9847C88.0908 98.8101 88.1403 98.6667 88.2381 98.526C88.7055 97.8575 89.3497 97.4679 90.1721 97.3493C90.527 97.2985 90.8806 97.2867 91.2381 97.3428C91.8288 97.4353 92.3083 97.7063 92.686 98.1533C92.9605 98.4791 93.1453 98.8531 93.2967 99.244C93.4949 99.7574 93.6101 100.29 93.677 100.835C93.7708 101.604 93.7681 102.377 93.7226 103.147Z" fill="white"/>
<path d="M124.688 99.789C124.464 98.7322 124.049 97.7523 123.401 96.8727C122.569 95.7455 121.489 94.944 120.126 94.5166C119.443 94.3029 118.74 94.1948 118.023 94.1609C117.135 94.1192 116.257 94.1791 115.394 94.3902C114.234 94.6743 113.224 95.2164 112.39 96.0556C111.497 96.9535 110.897 98.0129 110.55 99.2118C110.337 99.9506 110.232 100.704 110.206 101.47C110.173 102.382 110.207 103.291 110.388 104.19C110.598 105.231 110.988 106.2 111.609 107.079C112.363 108.143 113.34 108.938 114.585 109.407C115.255 109.659 115.95 109.802 116.665 109.862C117.723 109.952 118.769 109.899 119.798 109.633C120.907 109.346 121.876 108.817 122.684 108.018C123.632 107.08 124.247 105.962 124.586 104.694C124.818 103.823 124.901 102.936 124.898 102.015C124.903 101.282 124.844 100.531 124.688 99.789ZM120.67 102.842C120.623 103.581 120.489 104.304 120.189 104.99C120.048 105.31 119.88 105.614 119.646 105.881C119.235 106.353 118.705 106.619 118.082 106.702C117.62 106.765 117.157 106.756 116.7 106.643C116.026 106.478 115.512 106.103 115.157 105.524C114.908 105.119 114.739 104.682 114.62 104.227C114.446 103.559 114.39 102.879 114.387 102.192C114.387 102.14 114.387 102.088 114.387 102.036C114.384 101.462 114.408 100.891 114.516 100.327C114.635 99.7004 114.829 99.101 115.164 98.5485C115.473 98.0376 115.903 97.6624 116.484 97.4643C116.938 97.3105 117.407 97.2727 117.883 97.3196C118.077 97.3392 118.271 97.3718 118.46 97.4265C119.077 97.6076 119.545 97.9738 119.882 98.5042C120.147 98.9212 120.328 99.3707 120.453 99.8438C120.584 100.34 120.659 100.846 120.678 101.359C120.695 101.854 120.701 102.35 120.67 102.842Z" fill="white"/>
<path d="M188.916 100.898C188.915 100.237 188.845 99.583 188.696 98.938C188.502 98.091 188.171 97.3013 187.656 96.5898C187.045 95.748 186.261 95.1107 185.285 94.7016C184.547 94.3927 183.774 94.2285 182.977 94.1829C182.156 94.136 181.337 94.1516 180.528 94.3341C179.46 94.5739 178.517 95.0417 177.719 95.7701C176.865 96.5494 176.249 97.4824 175.836 98.5471C175.47 99.4905 175.31 100.47 175.266 101.471C175.252 101.783 175.26 102.095 175.258 102.408C175.254 103 175.304 103.586 175.414 104.167C175.594 105.116 175.935 106.005 176.479 106.814C177.151 107.814 178.013 108.614 179.115 109.157C180.071 109.627 181.092 109.849 182.155 109.896C182.707 109.921 183.26 109.909 183.813 109.859C184.562 109.79 185.296 109.656 186.011 109.431C186.804 109.181 187.562 108.856 188.246 108.387C188.327 108.332 188.403 108.272 188.482 108.215C188.54 108.173 188.557 108.121 188.527 108.056C188.51 108.016 188.494 107.975 188.477 107.936C188.156 107.221 187.835 106.507 187.514 105.791C187.499 105.76 187.483 105.729 187.468 105.697C187.444 105.649 187.405 105.64 187.36 105.663C187.256 105.714 187.155 105.768 187.052 105.82C186.478 106.104 185.893 106.359 185.269 106.522C184.424 106.744 183.56 106.781 182.692 106.729C181.751 106.673 180.984 106.276 180.405 105.546C179.926 104.944 179.693 104.252 179.601 103.508C179.594 103.457 179.596 103.404 179.597 103.352C179.598 103.292 179.629 103.253 179.692 103.249C179.772 103.245 179.853 103.245 179.933 103.245C181.37 103.245 182.807 103.245 184.244 103.245C185.681 103.245 187.119 103.245 188.556 103.245C188.636 103.245 188.716 103.246 188.797 103.244C188.893 103.24 188.909 103.224 188.915 103.141C188.917 103.098 188.916 103.053 188.916 103.01C188.916 102.303 188.917 101.6 188.916 100.898ZM184.688 100.536C184.617 100.54 184.546 100.538 184.473 100.538C183.715 100.538 182.959 100.538 182.201 100.538C181.416 100.538 180.632 100.54 179.847 100.538C179.6 100.538 179.594 100.525 179.626 100.285C179.685 99.8372 179.792 99.4006 179.971 98.9823C180.15 98.5627 180.387 98.1796 180.733 97.8655C181.027 97.5971 181.376 97.4342 181.768 97.3586C182.194 97.2778 182.618 97.2987 183.039 97.3964C183.638 97.5345 184.078 97.872 184.38 98.3881C184.613 98.7868 184.733 99.2195 184.775 99.6717C184.797 99.9205 184.791 100.173 184.793 100.425C184.797 100.51 184.772 100.532 184.688 100.536Z" fill="#3B9B9A"/>
</g>
<defs>
<clipPath id="clip0">
<rect width="200" height="53.3333" fill="white" transform="translate(0 73)"/>
</clipPath>
</defs>
</svg>
