<svg width="200" height="200" viewBox="0 0 200 200" fill="none" xmlns="http://www.w3.org/2000/svg">
<path d="M38.1355 96.8615C38.9934 97.0689 39.8891 97.182 40.8035 97.182C41.7274 97.182 42.6136 97.0689 43.4716 96.8615C44.4615 92.8076 47.648 89.6116 51.7113 88.6217C51.9187 87.7638 52.0319 86.8682 52.0319 85.9537C52.0319 79.7503 47.0069 74.7253 40.8035 74.7253C34.6001 74.7253 29.5752 79.7503 29.5752 85.9537C29.5752 86.8776 29.6883 87.7638 29.8957 88.6217C33.9591 89.6116 37.1456 92.8076 38.1355 96.8615Z" fill="#7ABDF7"/>
<path d="M43.4818 102.207C42.6239 101.999 41.7283 101.886 40.8138 101.886C39.8899 101.886 39.0037 101.999 38.1458 102.207C37.1559 106.26 33.9693 109.456 29.906 110.446C29.6986 111.304 29.5854 112.2 29.5854 113.114C29.5854 119.318 34.6104 124.343 40.8138 124.343C47.0172 124.343 52.0421 119.318 52.0421 113.114C52.0421 112.19 51.929 111.304 51.7216 110.446C47.6583 109.447 44.4717 106.26 43.4818 102.207Z" fill="#0D74F5"/>
<path d="M54.389 88.301C53.4651 88.301 52.5789 88.4142 51.721 88.6216C50.731 92.6755 47.5445 95.8714 43.4812 96.8613C43.2738 97.7193 43.1606 98.6149 43.1606 99.5294C43.1606 100.453 43.2738 101.339 43.4812 102.197C47.5351 103.187 50.731 106.374 51.721 110.437C52.5789 110.645 53.4745 110.758 54.389 110.758C60.5924 110.758 65.6173 105.733 65.6173 99.5294C65.6173 93.326 60.5829 88.301 54.389 88.301Z" fill="#4494F7"/>
<path d="M38.1361 102.207C38.3435 101.349 38.4567 100.453 38.4567 99.5389C38.4567 98.615 38.3435 97.7288 38.1361 96.8709C34.0822 95.881 30.8863 92.6944 29.8964 88.6311C29.0384 88.4237 28.1428 88.3106 27.2283 88.3106C21.0249 88.3011 16 93.3261 16 99.5295C16 105.733 21.0249 110.758 27.2283 110.758C28.1522 110.758 29.0384 110.645 29.8964 110.437C30.8863 106.383 34.0822 103.197 38.1361 102.207Z" fill="#005CF4"/>
<path d="M43.4814 96.8614C47.5353 95.8714 50.7313 92.6849 51.7212 88.6216C47.6579 89.6115 44.4713 92.8075 43.4814 96.8614Z" fill="#186EF9"/>
<path d="M43.4814 102.207C44.4713 106.261 47.6579 109.457 51.7212 110.447C50.7219 106.383 47.5353 103.197 43.4814 102.207Z" fill="#0246F2"/>
<path d="M38.1363 96.8614C37.1464 92.8075 33.9598 89.6115 29.8965 88.6216C30.8864 92.6849 34.0824 95.8714 38.1363 96.8614Z" fill="#0046F8"/>
<path d="M38.1363 102.207C34.0824 103.197 30.8864 106.383 29.8965 110.447C33.9598 109.447 37.1464 106.261 38.1363 102.207Z" fill="#0729F1"/>
<path d="M101.659 100.265C101.659 102.499 101.311 104.592 100.604 106.553C99.8965 108.514 98.8783 110.239 97.5396 111.71C96.2009 113.19 94.5605 114.359 92.5901 115.217C90.6291 116.084 88.3854 116.508 85.8776 116.508C83.3604 116.508 81.1261 116.075 79.1651 115.217C77.2042 114.349 75.5449 113.18 74.1967 111.71C72.8486 110.23 71.821 108.514 71.1327 106.553C70.4445 104.592 70.0957 102.499 70.0957 100.265C70.0957 98.0679 70.4445 95.9749 71.1327 93.9951C71.821 92.0153 72.8486 90.29 74.1967 88.8099C75.5449 87.3298 77.2042 86.1607 79.1651 85.3028C81.1261 84.4355 83.3604 84.0112 85.8776 84.0112C88.3854 84.0112 90.6291 84.4449 92.5901 85.3028C94.551 86.1702 96.2009 87.3392 97.5396 88.8099C98.8783 90.29 99.8965 92.0153 100.604 93.9951C101.311 95.9844 101.659 98.0679 101.659 100.265ZM85.8776 111.342C87.4143 111.342 88.7625 111.059 89.9032 110.494C91.0534 109.928 92.0056 109.155 92.7786 108.165C93.5517 107.175 94.1174 106.006 94.4945 104.658C94.8716 103.31 95.0601 101.848 95.0601 100.274C95.0601 98.6995 94.8716 97.2477 94.4945 95.8901C94.1174 94.5419 93.5423 93.3729 92.7786 92.383C92.0056 91.3931 91.0534 90.62 89.9032 90.0544C88.753 89.4887 87.4143 89.2059 85.8776 89.2059C84.3409 89.2059 82.9927 89.4887 81.852 90.0544C80.7018 90.62 79.7496 91.3931 78.9766 92.383C78.2035 93.3729 77.6378 94.5419 77.2607 95.8901C76.8836 97.2382 76.6951 98.6995 76.6951 100.274C76.6951 101.848 76.8836 103.3 77.2607 104.658C77.6378 106.006 78.2129 107.175 78.9766 108.165C79.7496 109.155 80.7018 109.928 81.852 110.494C83.0022 111.059 84.3409 111.342 85.8776 111.342Z" fill="white"/>
<path d="M105.807 115.952V84.5859H112.406V99.6608L123.286 84.5859H130.913L119.373 100.085L131.714 115.961H123.569L112.406 100.556V115.961H105.807V115.952Z" fill="white"/>
<path d="M134.308 84.5859H153.154V89.8089H140.907V97.3887H152.588V102.621H140.907V110.719H153.295V115.952H134.308V84.5859Z" fill="white"/>
<path d="M176.656 84.5861H183.811L173.498 100.179L184 115.952H176.797L170.009 105.261L163.231 115.952H156.028L166.53 100.17L156.217 84.5767H163.372L170.019 95.1733L176.656 84.5861Z" fill="white"/>
</svg>
