<svg width="200" height="200" viewBox="0 0 200 200" fill="none" xmlns="http://www.w3.org/2000/svg">
<g clip-path="url(#clip0)">
<path d="M143.405 109.396C130.421 109.396 117.438 109.396 104.426 109.396C102.91 109.396 102.91 109.396 102.91 107.852C102.91 106.079 102.91 106.079 104.683 106.079C130.822 106.079 156.961 106.079 183.099 106.05C183.757 106.05 183.929 106.25 183.871 106.851C183.814 107.451 183.843 108.052 183.871 108.624C183.9 109.167 183.786 109.453 183.185 109.396C182.756 109.339 182.327 109.396 181.898 109.396C169.058 109.396 156.246 109.396 143.405 109.396Z" fill="#65C1BF"/>
<path d="M106.914 95.8691C106.885 96.8987 106.942 97.9854 107.371 99.0149C107.857 100.302 108.744 100.731 110.431 100.588C111.604 100.502 112.262 99.9015 112.548 98.6145C112.633 98.2142 112.805 98.0712 113.177 98.0998C113.806 98.1284 114.464 98.1284 115.093 98.0998C115.522 98.0712 115.579 98.2142 115.522 98.6145C115.121 101.017 113.463 102.675 111.032 102.961C109.516 103.133 108.029 103.076 106.656 102.189C104.969 101.103 104.226 99.4725 104.054 97.585C103.882 96.0121 103.854 94.4106 104.254 92.8091C105.484 88.0332 110.46 87.6614 113.234 89.2915C114.635 90.1209 115.264 91.465 115.55 93.0093C115.608 93.2953 115.522 93.4383 115.207 93.4383C114.492 93.4383 113.777 93.4097 113.091 93.4383C112.605 93.4669 112.633 93.0951 112.548 92.8091C112.262 91.608 111.604 91.0074 110.46 90.8644C109.03 90.6928 108 91.179 107.457 92.2657C107.085 93.0379 107 93.8672 106.914 94.7252C106.885 95.097 106.914 95.4687 106.914 95.8691Z" fill="white"/>
<path d="M155.759 96.9559C155.759 98.7004 155.731 100.473 155.759 102.218C155.759 102.676 155.645 102.876 155.159 102.847C154.587 102.818 154.015 102.79 153.443 102.847C152.9 102.876 152.814 102.676 152.814 102.189C152.842 98.729 152.814 95.24 152.842 91.7796C152.842 91.2076 152.728 90.9788 152.099 91.0074C151.069 91.0646 150.04 91.0074 149.01 91.036C148.638 91.036 148.495 90.9216 148.495 90.5213C148.438 88.6338 148.41 88.6338 150.297 88.6338C153.329 88.6338 156.389 88.6624 159.42 88.6338C160.021 88.6338 160.135 88.8054 160.135 89.3773C160.106 91.036 160.135 91.036 158.448 91.036C157.79 91.036 157.132 91.0646 156.474 91.036C155.931 91.0074 155.759 91.1504 155.788 91.7224C155.788 93.4383 155.759 95.2114 155.759 96.9559Z" fill="white"/>
<path d="M174.005 95.7263C174.005 93.5528 174.005 91.3793 174.005 89.2059C174.005 88.7769 174.119 88.6053 174.577 88.6339C175.178 88.6625 175.778 88.6625 176.35 88.6339C176.865 88.6053 176.951 88.8055 176.951 89.2631C176.922 92.752 176.951 96.241 176.922 99.73C176.922 100.302 177.065 100.474 177.637 100.445C179.267 100.416 180.926 100.445 182.585 100.416C183.071 100.416 183.214 100.559 183.214 101.046C183.214 102.847 183.242 102.847 181.441 102.847C179.21 102.847 176.951 102.819 174.72 102.847C174.177 102.847 173.976 102.733 174.005 102.132C174.034 100.016 174.005 97.8711 174.005 95.7263Z" fill="white"/>
<path d="M144.063 95.6976C144.063 93.5813 144.091 91.465 144.063 89.3202C144.063 88.8054 144.149 88.5766 144.721 88.6338C145.321 88.691 145.922 88.6624 146.494 88.6338C146.837 88.6338 146.98 88.7196 146.98 89.0914C146.98 93.5527 146.98 97.9854 146.98 102.447C146.98 102.79 146.837 102.876 146.522 102.876C145.893 102.876 145.235 102.847 144.606 102.876C144.12 102.904 144.034 102.704 144.034 102.275C144.063 100.073 144.063 97.8996 144.063 95.6976Z" fill="white"/>
<path d="M68.0773 103.219C67.3624 101.045 65.7037 99.7585 63.5016 99.0721C63.616 98.8148 63.8448 98.7862 63.9878 98.7004C64.1308 98.6146 64.3024 98.5288 64.474 98.443C67.105 96.7557 68.0773 94.2962 67.7914 91.2362C67.4482 87.6901 65.4463 85.5166 62.1861 84.3727C60.3844 83.7435 58.4969 83.5147 56.6095 83.4861C52.8631 83.4289 49.1167 83.4861 45.3704 83.4575C44.9128 83.4575 44.7412 83.5719 44.7412 84.0581C44.7698 94.3248 44.7698 104.592 44.7412 114.858C44.7412 115.373 44.8842 115.516 45.399 115.516C49.3741 115.488 53.3493 115.545 57.3244 115.488C58.9831 115.459 60.6418 115.259 62.2719 114.801C68.3061 112.999 69.4501 107.394 68.0773 103.219ZM51.376 92.7805C51.376 91.608 51.376 90.4641 51.376 89.2916C51.376 89.0342 51.3474 88.7768 51.7478 88.7768C53.864 88.834 56.0089 88.5766 58.0966 89.0056C60.413 89.4917 61.3282 90.7215 61.2424 93.1523C61.1852 95.097 59.8983 96.4411 57.782 96.7271C55.7801 97.0131 53.7782 96.8129 51.7764 96.8701C51.3188 96.8987 51.4046 96.5841 51.4046 96.3267C51.376 95.1542 51.376 93.9531 51.376 92.7805ZM57.8964 110.054C55.8659 110.283 53.8354 110.111 51.805 110.168C51.4046 110.168 51.376 109.968 51.376 109.653C51.376 108.367 51.376 107.08 51.376 105.821C51.376 104.563 51.376 103.305 51.376 102.046C51.376 101.76 51.376 101.503 51.805 101.532C54.007 101.617 56.1805 101.417 58.3826 101.675C60.5274 101.932 61.8143 103.247 61.9287 105.421C62.0717 108.224 60.7848 109.711 57.8964 110.054Z" fill="white"/>
<path d="M94.1017 100.616C91.8424 98.6146 89.097 97.5279 86.2944 96.6413C84.6929 96.1266 83.0628 95.6118 81.6043 94.7253C80.4889 94.0675 79.7454 93.181 79.8312 91.7796C79.917 90.2925 80.7749 89.3488 82.0904 88.7768C82.7196 88.4909 83.406 88.3765 84.0923 88.3193C86.4088 88.1191 89.24 88.5766 90.1551 91.6653C90.1551 91.9512 90.1837 92.2086 90.1837 92.4946C90.1837 92.7806 90.2981 92.895 90.5841 92.895C92.5288 92.895 94.4735 92.895 96.3895 92.895C96.6755 92.895 96.7899 92.7806 96.7899 92.4946C96.7899 91.4937 96.6469 90.4927 96.218 89.5776C95.932 88.548 95.36 87.6615 94.6737 86.8608C92.729 84.6015 90.1551 83.4862 87.2381 83.143C83.7205 82.7426 80.3174 83.1144 77.2002 85.0019C74.0544 86.8894 72.6244 90.1495 73.3966 93.7243C73.8256 95.812 75.0839 97.3849 76.7426 98.6432C78.9446 100.302 81.5185 101.188 84.1209 102.046C85.7224 102.59 87.3525 103.105 88.7538 104.077C90.9273 105.593 90.6413 108.853 88.2677 110.025C87.4669 110.426 86.609 110.569 85.751 110.597C83.4632 110.654 81.2611 110.426 79.6596 108.481C79.202 107.652 78.916 106.765 78.8589 105.821C78.8303 105.507 78.7731 105.335 78.3727 105.335C76.4566 105.364 74.5405 105.335 72.6244 105.335C72.3099 105.335 72.1669 105.421 72.1955 105.764C72.3099 107.051 72.4529 108.338 73.1392 109.511C73.8828 111.369 75.2555 112.714 76.9428 113.686C81.2611 116.174 85.8368 116.403 90.5269 115.059C92.443 114.515 94.0731 113.457 95.3028 111.884C97.5335 109.053 97.4477 103.562 94.1017 100.616ZM73.1106 109.539C73.0534 109.453 73.082 109.396 73.1392 109.339C73.1392 109.396 73.1392 109.453 73.1106 109.539Z" fill="white"/>
<path d="M40.5945 110.912C40.6231 110.311 40.4515 110.14 39.8509 110.14C34.932 110.168 30.0132 110.168 25.0943 110.168C24.8941 110.168 24.6939 110.254 24.4937 110.054C24.6081 109.854 24.7225 109.682 24.8369 109.482C29.8416 102.218 34.8463 94.9826 39.8795 87.7187C40.1083 87.3755 40.2227 87.0609 40.2227 86.632C40.1941 85.774 40.1941 84.8875 40.2227 84.0295C40.2513 83.5433 40.0511 83.429 39.5936 83.429C31.9864 83.429 24.3507 83.429 16.7436 83.429C16.286 83.4576 16.1144 83.5719 16.1144 84.0581C16.143 85.4022 16.143 86.7463 16.1144 88.0905C16.0858 88.6338 16.286 88.7768 16.8008 88.7768C20.3184 88.7482 23.8359 88.7768 27.3821 88.7768C28.8692 88.7768 30.3563 88.7768 31.9578 88.7768C31.8148 89.0056 31.7576 89.12 31.7004 89.2344C27.1819 95.6976 22.7206 102.161 18.1449 108.538C16.7722 110.454 15.6569 112.313 16.0858 114.773C16.0858 114.83 16.0858 114.858 16.0858 114.916C16.0286 115.316 16.1716 115.488 16.6292 115.488C24.4365 115.488 32.2152 115.488 40.0225 115.488C40.4801 115.488 40.5945 115.316 40.5945 114.887C40.5659 113.571 40.5659 112.227 40.5945 110.912Z" fill="white"/>
<path d="M103.482 106.45C103.482 107.051 103.511 107.623 103.482 108.224C103.453 108.71 103.654 108.881 104.111 108.824C104.283 108.796 104.483 108.824 104.654 108.824C130.65 108.824 156.675 108.824 182.67 108.824C182.956 108.824 183.271 108.738 183.528 108.91C183.5 109.167 183.299 109.081 183.156 109.11C182.985 109.139 182.842 109.11 182.67 109.11C156.503 109.11 130.336 109.11 104.168 109.11C103.167 109.11 103.167 109.11 103.196 108.109C103.196 107.566 103.11 106.994 103.253 106.45C103.339 106.422 103.396 106.45 103.482 106.45Z" fill="#63C1C3"/>
<path d="M172.547 102.275C171.031 98.2715 169.544 94.2963 168.057 90.2926C167.427 88.6625 167.456 88.6625 165.654 88.6339C165.483 88.6339 165.283 88.6339 165.111 88.6339C164.825 88.6053 164.653 88.7197 164.568 89.0057C162.909 93.467 161.25 97.8997 159.592 102.332C159.42 102.761 159.563 102.847 159.963 102.819C160.678 102.79 161.393 102.79 162.08 102.819C162.451 102.847 162.594 102.676 162.709 102.332C162.909 101.646 163.166 100.988 163.367 100.302C163.481 99.9016 163.681 99.7586 164.081 99.7872C165.054 99.8158 165.998 99.7872 166.97 99.7872C168.657 99.7872 168.657 99.7872 169.172 101.36C169.63 102.79 169.63 102.79 171.174 102.79C171.517 102.79 171.86 102.761 172.203 102.79C172.661 102.904 172.69 102.704 172.547 102.275ZM167.342 97.5565C166.455 97.5279 165.569 97.5565 164.653 97.5565C164.396 97.5565 164.253 97.5279 164.367 97.2134C164.911 95.6405 165.426 94.0676 165.94 92.4947C165.998 92.4947 166.055 92.4947 166.112 92.4947C166.627 94.039 167.141 95.5547 167.656 97.099C167.799 97.4707 167.685 97.5565 167.342 97.5565Z" fill="white"/>
<path d="M129.363 102.247C127.905 98.3858 126.446 94.525 124.988 90.6643C124.73 90.0065 124.702 89.0914 124.158 88.7768C123.586 88.4622 122.728 88.691 122.014 88.6624C121.613 88.6338 121.442 88.834 121.327 89.1772C121.098 89.8349 120.841 90.4641 120.612 91.0932C119.211 94.8396 117.838 98.586 116.408 102.304C116.237 102.79 116.322 102.904 116.809 102.876C117.524 102.847 118.239 102.847 118.925 102.876C119.239 102.876 119.382 102.761 119.468 102.475C119.668 101.789 119.954 101.131 120.126 100.445C120.24 99.9301 120.526 99.8157 121.013 99.8443C121.928 99.8729 122.843 99.8443 123.758 99.8443C125.445 99.8443 125.445 99.8443 125.989 101.474C126.446 102.847 126.446 102.847 127.933 102.847C128.248 102.847 128.562 102.819 128.906 102.847C129.449 102.933 129.592 102.79 129.363 102.247ZM124.101 97.5564C123.157 97.5278 122.185 97.5564 121.127 97.5564C121.699 95.8119 122.242 94.1533 122.786 92.5232C123.014 92.5232 123.014 92.6947 123.072 92.8091C123.558 94.2104 124.015 95.6404 124.502 97.0131C124.673 97.4706 124.559 97.5564 124.101 97.5564Z" fill="white"/>
<path d="M141.575 91.751C141.06 89.8921 139.144 88.6624 137.028 88.6338C135.226 88.6052 133.424 88.6624 131.622 88.6052C131.051 88.6052 130.936 88.8054 130.965 89.3202C130.993 91.465 130.965 93.6099 130.965 95.7548C130.965 97.8996 130.993 100.045 130.965 102.189C130.965 102.704 131.108 102.876 131.622 102.847C132.166 102.819 132.709 102.819 133.253 102.847C133.739 102.876 133.939 102.761 133.939 102.218C133.91 100.96 133.968 99.7013 133.91 98.443C133.882 97.9282 134.025 97.7566 134.539 97.7852C135.655 97.8138 136.77 97.871 137.885 97.6709C141.117 97.1275 142.433 94.7538 141.575 91.751ZM136.599 95.4116C135.884 95.4116 135.197 95.383 134.482 95.4116C133.996 95.4402 133.853 95.24 133.882 94.7824C133.91 94.2391 133.882 93.6957 133.882 93.1523C133.882 92.609 133.882 92.0656 133.882 91.5222C133.882 91.1791 133.968 91.0361 134.339 91.0361C135.14 91.0647 135.941 91.0075 136.742 91.0647C138.086 91.1505 138.915 92.1228 138.858 93.4955C138.829 94.6966 138 95.4116 136.599 95.4116Z" fill="white"/>
<path d="M176.751 88.9771C176.751 92.5519 176.751 96.1552 176.751 99.73C176.722 99.73 176.693 99.73 176.693 99.73C176.693 96.1266 176.693 92.5519 176.693 88.9485C176.693 88.9485 176.722 88.9485 176.751 88.9771Z" fill="white"/>
<path d="M175.149 102.504C177.723 102.504 180.297 102.504 182.87 102.504C182.87 102.533 182.87 102.561 182.87 102.561C180.297 102.561 177.694 102.561 175.12 102.561C175.149 102.561 175.149 102.533 175.149 102.504Z" fill="white"/>
</g>
<defs>
<clipPath id="clip0">
<rect width="167.9" height="32.8879" fill="white" transform="translate(16 83)"/>
</clipPath>
</defs>
</svg>
