<svg width="136" height="136" viewBox="0 0 136 136" fill="none" xmlns="http://www.w3.org/2000/svg">
<path d="M55.1268 2H41.6603L34.9271 13.8208L23.705 33.5224L16.9718 45.3432L16.4933 46.1831L10.6622 56.4206L20.762 62.331L29.2888 67.3208L5.19248 122.179L0 134H86.672L80.6072 122.179L68.8457 99.2539L75.1518 84.8973L77.4341 79.7015C79.9969 80.4077 82.6824 80.8059 85.4636 80.8059C101.292 80.8059 114.37 68.7483 116.293 53.2239H136V2.0002H55.1268V2ZM85.4636 68.985C84.373 68.985 83.312 68.8687 82.2709 68.6906L89.0648 53.2239H104.509C102.703 62.205 94.8505 68.985 85.4636 68.985ZM124.338 41.403H81.4912L79.7605 45.3434L76.2987 53.2241L70.1329 67.2613L65.0237 78.8927L61.9682 85.8488L55.9049 99.6523L62.7827 113.058L67.4622 122.179H17.9582L39.4443 73.2641L44.2138 62.4053L34.0583 56.463L26.5932 52.0937L30.4384 45.3434L37.1715 33.5225L48.3937 13.821H124.338V41.403V41.403Z" fill="white" fill-opacity="0.1"/>
</svg>
