<svg width="136" height="136" viewBox="0 0 136 136" fill="none" xmlns="http://www.w3.org/2000/svg">
<path d="M68 0L119.744 17.136C120.983 17.5462 122.062 18.3335 122.826 19.3865C123.589 20.4394 124 21.7046 124 23.0025V68C124 93.0364 105.333 115.705 68 136C30.6667 115.705 12 93.0364 12 68V22.9964C12.001 21.6995 12.4125 20.4357 13.1763 19.384C13.9401 18.3323 15.0175 17.5458 16.256 17.136L68 0ZM68 13.0313L24.4444 27.4596V68L24.488 69.836C24.9422 78.9851 28.7938 87.6458 35.6258 95.948C43.1111 105.029 53.9564 113.579 68 121.788C82.0498 113.579 92.8889 105.023 100.368 95.948C107.66 87.1018 111.556 77.8353 111.556 68V27.4596L68 13.0313V13.0313Z" fill="white" fill-opacity="0.1"/>
</svg>
