<svg width="24" height="24" viewBox="0 0 24 24" fill="none" xmlns="http://www.w3.org/2000/svg">
<path d="M12.7674 8.64626C12.2791 8.43538 11.7209 8.29479 11.1628 8.29479C8.93023 8.29479 7.04651 10.1225 7.04651 12.4422C7.04651 14.6916 8.86047 16.5896 11.1628 16.5896C13.4651 16.5896 15.2791 14.7619 15.2791 12.4422C15.2791 11.9501 15.2093 11.5283 15.0698 11.1066L11.8605 14.1995C11.1628 14.8322 10.1163 14.7619 9.48837 14.1293C8.86047 13.4263 8.93024 12.3719 9.55814 11.7392L12.7674 8.64626Z" fill="#00DEFF"/>
<path d="M24 5.13152L19.814 4.14739L19.1163 0L14.8605 4.0068V8.15419L10.2558 12.3719C10.1163 12.5125 9.97675 12.7234 9.97675 12.9342C9.97675 13.356 10.3256 13.7075 10.7442 13.7075C10.8837 13.7075 10.9535 13.6372 11.093 13.6372L11.3721 13.356L16.0465 8.99773H20.1628L24 5.13152ZM19.4651 7.52154L16.186 7.66213L16.4651 4.78005L18.0698 3.16327L18.5581 5.55329L21 5.97506L19.4651 7.52154Z" fill="#00DEFF"/>
<path d="M16.2558 10.1224C16.5349 10.8254 16.7442 11.5986 16.7442 12.3719C16.7442 15.4649 14.2326 17.9955 11.1628 17.9955C8.09302 17.9955 5.58139 15.4649 5.58139 12.3719C5.58139 9.27891 8.09302 6.7483 11.1628 6.7483C12.0698 6.7483 12.907 6.95919 13.6046 7.31066V1.4059C12.8372 1.19501 12 1.12472 11.1628 1.12472C5.02325 1.12472 0 6.18594 0 12.3719C0 18.5578 5.02325 23.619 11.1628 23.619C17.3023 23.619 22.3256 18.5578 22.3256 12.3719C22.3256 11.5986 22.2558 10.8254 22.1163 10.1224H16.2558Z" fill="#00DEFF"/>
</svg>
