<svg width="244" height="324" viewBox="0 0 244 324" fill="none" xmlns="http://www.w3.org/2000/svg">
<path d="M34 2H52.8235H75.4118L81.0588 7.64343H162.941L168.588 2H207.176L216.588 11.4057H231.647L242 21.752V301.307L226.941 316.357H216.588L210.941 322H168.588L162.941 316.357H81.0588L75.4118 322H35.8824L27.4118 313.535H14.2353L2 301.307V21.752L12.3529 11.4057H24.5882L34 2Z" fill="black" stroke="#232323" stroke-width="3"/>
<path d="M37.4706 11.4116H59.2395H72.8035L77.9412 16.532H167.862L173 11.4116H205.849L214.412 19.9456H221.934L231.353 29.333V292.5L220.213 303.594H212.529L206.451 311.275H171.118L165.98 306.154H77L71.8623 311.275H38.4118L30.7052 303.594H24.1317L13 292.5V29.333L22.4191 19.9456H28.9077L37.4706 11.4116Z" fill="#4D456C"/>
<path d="M42.4702 26.4707H67.882H202.975L217.093 40.5883V78.2354L206.74 88.5883V110.235L217.093 120.588V205.206L206.74 215.559V238.147L217.093 248.5V282.382L202.034 297.441H43.4114L28.3525 282.382V248.5L38.7055 238.147V215.559L28.3525 205.206V120.588L38.7055 110.235V88.5883L28.3525 78.2354V40.5883L42.4702 26.4707Z" fill="#16112B"/>
<path d="M27.1621 24.0001L33.6994 30.5367L31.0845 33.1513L24.5471 26.6147L27.1621 24.0001Z" fill="#16112A"/>
<path d="M27.1621 300L33.6994 293.464L31.0845 290.849L24.5471 297.385L27.1621 300Z" fill="#16112A"/>
<path d="M217.838 24.0001L211.301 30.5367L213.916 33.1513L220.453 26.6147L217.838 24.0001Z" fill="#16112A"/>
<path d="M217.838 300L211.301 293.464L213.916 290.849L220.453 297.385L217.838 300Z" fill="#16112A"/>
<path d="M21.6149 29.5466L28.1523 36.0831L25.5374 38.6978L19 32.1612L21.6149 29.5466Z" fill="#16112A"/>
<path d="M21.6149 294.454L28.1523 287.917L25.5374 285.302L19 291.839L21.6149 294.454Z" fill="#16112A"/>
<path d="M223.385 29.5466L216.848 36.0831L219.463 38.6978L226 32.1612L223.385 29.5466Z" fill="#16112A"/>
<path d="M223.385 294.454L216.848 287.917L219.463 285.302L226 291.839L223.385 294.454Z" fill="#16112A"/>
<path d="M28 97.0001H34V98.0001H28V97.0001Z" fill="#16112A"/>
<path d="M210 97.0001H216V98.0001H210V97.0001Z" fill="#16112A"/>
<path d="M28 226H34V227H28V226Z" fill="#16112A"/>
<path d="M210 226H216V227H210V226Z" fill="#16112A"/>
<g opacity="0.5">
<path d="M122.567 65L119.936 82.4531C102.724 83.1264 85.6909 89.4554 71.866 101.447L37.4985 75.9335L62.9966 110.482C51.1719 124.627 45.1332 141.97 44.8791 159.383L25 162.322L45.0192 165.339C46.0224 181.723 52.1587 197.851 63.4359 211.105L37.4993 246.247L72.5654 220.214C86.1062 231.684 102.63 237.803 119.355 238.581L122.566 259.889L125.711 238.617C126.07 238.604 126.429 238.595 126.788 238.578C126.433 238.562 126.08 238.54 125.726 238.519L132.54 192.428C135.479 191.472 138.229 190.102 140.723 188.384L159.317 198.815L148.824 180.319C150.497 177.913 151.843 175.267 152.806 172.441L220.135 162.321L201.136 159.521C200.909 141.824 194.716 124.191 182.539 109.904L207.601 76.1468H207.6L173.77 101.115C159.762 89.1208 142.516 82.8928 125.143 82.4215L122.568 65H122.567ZM129.976 96.3596C148.183 96.3596 166.391 103.306 180.283 117.198C192.123 129.038 198.913 144.013 200.662 159.452L152.975 152.422C152.026 149.478 150.663 146.723 148.95 144.223L159.317 125.95L141.128 136.269C138.505 134.401 135.589 132.919 132.458 131.91L127.211 96.4181C128.132 96.3827 129.054 96.36 129.975 96.36L129.976 96.3596ZM117.68 97.4285L112.457 132.078C109.576 133.058 106.883 134.439 104.442 136.156L86.453 125.949L96.5975 144.034C94.8368 146.563 93.433 149.358 92.4609 152.349L59.5763 157.21C61.7056 142.569 68.4023 128.464 79.6683 117.198C90.42 106.446 103.758 99.8582 117.68 97.4285H117.68ZM58.8306 167.42L92.6292 172.514C93.6223 175.403 95.0177 178.102 96.7515 180.547L86.3044 198.962L104.804 188.466C107.125 190.05 109.668 191.329 112.374 192.258L119.244 237.835C104.759 235.637 90.8223 228.967 79.6687 217.813C65.7554 203.9 58.81 185.656 58.8314 167.421L58.8306 167.42Z" fill="white" fill-opacity="0.05"/>
<path d="M182.159 110.229C193.053 123.011 199.128 138.491 200.393 154.285C197.832 140.569 191.247 127.456 180.636 116.845C166.647 102.855 148.31 95.8596 129.976 95.8596H129.766L129.765 95.8604C128.906 95.8636 128.048 95.8856 127.191 95.9185L126.634 95.9398L126.716 96.4912L131.963 131.984L132.009 132.291L132.305 132.386C135.386 133.379 138.255 134.837 140.838 136.676L141.098 136.861L141.375 136.704L157.988 127.279L148.515 143.977L148.361 144.248L148.537 144.506C150.224 146.966 151.565 149.678 152.499 152.575L152.594 152.871L152.902 152.917L200.589 159.946L201.232 160.041L201.231 160.04L216.739 162.326L152.732 171.947L152.431 171.992L152.333 172.28C151.385 175.061 150.06 177.666 148.414 180.033L148.234 180.292L148.389 180.565L157.996 197.501L140.967 187.948L140.696 187.795L140.439 187.972C137.985 189.663 135.278 191.012 132.386 191.952L132.091 192.048L132.045 192.354L125.278 238.132L125.277 238.132L125.216 238.544L122.561 256.502L119.85 238.507L119.838 238.431L119.839 238.431L119.738 237.76L112.868 192.184L112.823 191.884L112.536 191.786C109.873 190.87 107.37 189.611 105.086 188.053L104.829 187.877L104.558 188.031L87.6331 197.633L97.1864 180.794L97.3433 180.517L97.1593 180.258C95.4528 177.852 94.0795 175.195 93.1021 172.351L93.0035 172.065L92.7037 172.02L58.9051 166.926L58.747 167.42L58.3314 167.42C58.3098 185.783 65.3042 204.156 79.3151 218.166C89.9131 228.765 103.008 235.344 116.706 237.911C101.006 236.641 85.6204 230.617 72.8886 219.833L72.5859 219.576L72.2674 219.813L39.8906 243.849L63.8382 211.402L64.0737 211.083L63.8168 210.781C52.6121 197.612 46.5151 181.588 45.5183 165.308L45.4935 164.905L45.0937 164.844L28.3866 162.326L44.9522 159.877L45.3728 159.815L45.379 159.39C45.6316 142.088 51.6316 124.857 63.3802 110.803L63.6322 110.501L63.3989 110.185L39.8896 78.3313L71.568 101.849L71.8904 102.088L72.1936 101.825C85.9296 89.9102 102.853 83.6217 119.956 82.9527L120.369 82.9366L120.431 82.5276L122.563 68.385L124.648 82.4947L124.71 82.91L125.13 82.9214C142.392 83.3897 159.527 89.5779 173.445 101.495L173.747 101.753L174.067 101.517L205.204 78.5368L182.138 109.606L181.9 109.926L182.159 110.229ZM117.68 96.9285H117.249L117.239 96.9988C103.347 99.4952 90.05 106.109 79.3147 116.845C67.97 128.189 61.2257 142.394 59.0815 157.138L58.9848 157.803L59.6494 157.705L92.534 152.843L92.8406 152.798L92.9364 152.503C93.893 149.56 95.2746 146.809 97.0078 144.319L97.1868 144.062L97.0335 143.789L87.767 127.27L104.195 136.59L104.47 136.747L104.729 136.565C107.133 134.875 109.783 133.516 112.618 132.551L112.906 132.453L112.951 132.152L118.174 97.503L117.724 97.4351L117.68 96.9285H117.68Z" stroke="white" stroke-opacity="0.1"/>
</g>
<path d="M117.479 10.5097C119.659 8.13712 123.401 8.13712 125.581 10.5097L138.174 24.2206C141.413 27.747 138.912 33.4411 134.124 33.4411H108.936C104.148 33.4411 101.647 27.747 104.886 24.2206L117.479 10.5097Z" fill="#675C92" stroke="#16112A" stroke-width="3"/>
<rect x="118.323" y="22.3237" width="6.41177" height="13.9412" rx="3.20588" fill="#675C92" stroke="#16112A" stroke-width="3"/>
<path d="M125.58 313.784C123.401 316.157 119.658 316.157 117.479 313.784L104.885 300.073C101.646 296.547 104.148 290.853 108.936 290.853L134.123 290.853C138.911 290.853 141.413 296.547 138.174 300.073L125.58 313.784Z" fill="#675C92" stroke="#16112A" stroke-width="3"/>
<rect x="124.736" y="301.97" width="6.41177" height="13.9412" rx="3.20588" transform="rotate(-180 124.736 301.97)" fill="#675C92" stroke="#16112A" stroke-width="3"/>
<rect x="168.5" y="247.5" width="63" height="63" fill="black" stroke="#4D456C"/>
<path d="M200.036 250.556L199.268 255.65C194.243 255.847 189.271 257.694 185.236 261.195L175.204 253.747L182.647 263.832C179.195 267.961 177.433 273.024 177.358 278.106L171.556 278.964L177.399 279.845C177.692 284.627 179.483 289.335 182.775 293.204L175.204 303.462L185.44 295.863C189.393 299.211 194.216 300.997 199.098 301.225L200.035 307.444L200.953 301.235C201.058 301.231 201.163 301.229 201.268 301.224C201.164 301.219 201.061 301.213 200.958 301.206L202.947 287.752C203.805 287.473 204.608 287.073 205.335 286.572L210.763 289.617L207.7 284.218C208.189 283.515 208.582 282.743 208.863 281.918L228.516 278.964L222.97 278.147C222.904 272.981 221.096 267.834 217.542 263.663L224.857 253.809H224.857L214.982 261.098C210.893 257.597 205.859 255.779 200.788 255.641L200.036 250.556H200.036ZM202.198 259.71C207.513 259.71 212.828 261.737 216.883 265.792C220.339 269.249 222.322 273.62 222.832 278.126L208.912 276.074C208.635 275.215 208.237 274.411 207.737 273.681L210.763 268.347L205.454 271.359C204.688 270.814 203.837 270.381 202.923 270.087L201.391 259.727C201.66 259.716 201.929 259.71 202.198 259.71L202.198 259.71ZM198.609 260.022L197.084 270.136C196.244 270.422 195.458 270.825 194.745 271.326L189.494 268.347L192.455 273.626C191.941 274.364 191.531 275.18 191.248 276.053L181.649 277.472C182.27 273.198 184.225 269.081 187.513 265.792C190.652 262.654 194.545 260.731 198.609 260.022H198.609ZM181.431 280.452L191.297 281.939C191.587 282.783 191.994 283.571 192.5 284.284L189.451 289.66L194.851 286.596C195.528 287.058 196.271 287.431 197.06 287.703L199.066 301.007C194.838 300.365 190.769 298.418 187.514 295.162C183.452 291.101 181.425 285.776 181.431 280.453L181.431 280.452Z" fill="#876EE8"/>
</svg>
