<svg width="244" height="324" viewBox="0 0 244 324" fill="none" xmlns="http://www.w3.org/2000/svg">
<path d="M34 2.32227H52.8235H75.4118L81.0588 7.96569H162.941L168.588 2.32227H207.176L216.588 11.728H231.647L242 22.0743V301.63L226.941 316.679H216.588L210.941 322.322H168.588L162.941 316.679H81.0588L75.4118 322.322H35.8824L27.4118 313.857H14.2353L2 301.63V22.0743L12.3529 11.728H24.5882L34 2.32227Z" fill="black" stroke="#232323" stroke-width="3"/>
<path d="M37.7655 11.7339H59.5344H73.0984L78.2361 16.8543H168.157L173.295 11.7339H206.144L214.707 20.2679H222.229L231.648 29.6553V292.822L220.508 303.916H212.824L206.745 311.597H171.413L166.275 306.477H77.2949L72.1572 311.597H38.7067L31.0001 303.916H24.4266L13.2949 292.822V29.6553L22.7141 20.2679H29.2027L37.7655 11.7339Z" fill="#8D4400"/>
<path d="M27.1621 23.3223L33.6994 29.8588L31.0845 32.4735L24.5471 25.9369L27.1621 23.3223Z" fill="#492300"/>
<path d="M27.1621 299.322L33.6994 292.786L31.0845 290.171L24.5471 296.708L27.1621 299.322Z" fill="#492300"/>
<path d="M217.838 23.3223L211.301 29.8588L213.916 32.4735L220.453 25.9369L217.838 23.3223Z" fill="#492300"/>
<path d="M217.838 299.322L211.301 292.786L213.916 290.171L220.453 296.708L217.838 299.322Z" fill="#492300"/>
<path d="M21.6149 28.8687L28.1523 35.4053L25.5374 38.0199L19 31.4833L21.6149 28.8687Z" fill="#492300"/>
<path d="M21.6149 293.776L28.1523 287.239L25.5374 284.625L19 291.161L21.6149 293.776Z" fill="#492300"/>
<path d="M223.385 28.8687L216.848 35.4053L219.463 38.0199L226 31.4833L223.385 28.8687Z" fill="#492300"/>
<path d="M223.385 293.776L216.848 287.239L219.463 284.625L226 291.161L223.385 293.776Z" fill="#492300"/>
<path d="M28 96.3222H34V97.3222H28V96.3222Z" fill="#492300"/>
<path d="M210 96.3222H216V97.3222H210V96.3222Z" fill="#492300"/>
<path d="M28 225.322H34V226.322H28V225.322Z" fill="#492300"/>
<path d="M210 225.322H216V226.322H210V225.322Z" fill="#492300"/>
<path d="M42.4702 26.793H67.882H202.975L217.093 40.9106V78.5577L206.74 88.9106V110.558L217.093 120.911V205.528L206.74 215.881V238.469L217.093 248.822V282.705L202.034 297.763H43.4114L28.3525 282.705V248.822L38.7055 238.469V215.881L28.3525 205.528V120.911L38.7055 110.558V88.9106L28.3525 78.5577V40.9106L42.4702 26.793Z" fill="#492300"/>
<g opacity="0.5">
<mask id="path-5-inside-1_2:6025" fill="white">
<path d="M122.499 71.3235C104.436 71.4315 86.4032 76.9829 71.0818 87.9846C105.728 73.3272 147.474 80.5332 175.72 108.853C203.934 137.146 210.921 178.73 196.354 213.447C221.382 178.356 218.199 129.367 186.723 97.8096C169.014 80.0352 145.724 71.1846 122.499 71.3239V71.3235ZM196.354 213.447C196.337 213.471 196.323 213.496 196.306 213.52L196.318 213.543C196.331 213.512 196.341 213.479 196.354 213.447H196.354ZM59.6097 90.5758C54.2188 90.5758 49.9304 94.8819 49.9304 100.281C49.9304 105.686 54.2246 109.986 59.6101 109.986C65.0021 109.986 69.2902 105.681 69.2902 100.281C69.2902 94.8757 64.996 90.5762 59.6105 90.5762L59.6097 90.5758ZM121.861 96.1943C104.762 96.1828 87.6654 102.714 74.6287 115.784C48.5509 141.931 48.5933 184.353 74.7011 210.53C100.815 236.711 143.118 236.73 169.191 210.59C195.268 184.443 195.238 142.021 169.13 115.844C156.074 102.754 138.961 96.2051 121.861 96.1943V96.1943ZM120.142 104.428L128.475 128.298C122.796 127.289 116.912 127.687 111.4 129.516L120.143 104.428L120.142 104.428ZM47.6813 112.108C47.6686 112.139 47.659 112.173 47.6455 112.204C47.6624 112.18 47.6771 112.156 47.694 112.132L47.6817 112.108H47.6813ZM47.6455 112.204C22.6178 147.296 25.8011 196.285 57.2779 227.842C88.7601 259.442 137.897 262.814 172.918 237.667C138.271 252.324 96.5262 245.118 68.2798 216.799C40.066 188.504 33.0794 146.921 47.6459 112.204L47.6455 112.204ZM79.4751 121.294L103.873 133.072C101.716 134.434 99.6869 136.059 97.8122 137.943L97.8007 137.919C95.395 140.33 93.4218 143.007 91.8722 145.863L91.4759 146.261L79.4744 121.294H79.4751ZM160.917 121.318L150.757 142.476C149.632 140.884 148.362 139.363 146.945 137.943C144.505 135.497 141.793 133.492 138.901 131.927L160.918 121.318L160.917 121.318ZM122.74 138.931C128.824 138.935 134.916 141.265 139.562 145.923C148.854 155.24 148.866 170.339 139.586 179.643C130.306 188.947 115.245 188.935 105.953 179.619C96.6605 170.302 96.6605 155.203 105.941 145.899C110.581 141.247 116.654 138.927 122.739 138.931H122.74ZM88.6973 152.964V154.049C87.316 159.617 87.3198 165.465 88.7097 171.035V171.264L62.6165 162.102L88.6973 152.964V152.964ZM156.24 154.676L177.788 162.234L156.553 169.673C157.519 164.724 157.404 159.6 156.239 154.676H156.24ZM91.3793 178.22C93.0016 181.453 95.1487 184.483 97.8361 187.178C99.4837 188.829 101.266 190.275 103.139 191.529L79.5348 202.91L91.3793 178.22V178.22ZM151.154 182.584L160.966 202.995L140.019 192.88C142.578 191.408 144.981 189.579 147.162 187.395C148.662 185.89 149.99 184.281 151.154 182.584V182.584ZM111.845 195.75C117.151 197.463 122.787 197.897 128.247 197.028L120.274 219.897L111.845 195.749L111.845 195.75ZM186.903 218.463C181.511 218.463 177.223 222.769 177.223 228.168C177.223 233.573 181.517 237.873 186.903 237.873C192.294 237.873 196.571 233.567 196.571 228.168C196.571 222.762 192.288 218.463 186.902 218.463L186.903 218.463Z"/>
</mask>
<path d="M122.499 71.3235C104.436 71.4315 86.4032 76.9829 71.0818 87.9846C105.728 73.3272 147.474 80.5332 175.72 108.853C203.934 137.146 210.921 178.73 196.354 213.447C221.382 178.356 218.199 129.367 186.723 97.8096C169.014 80.0352 145.724 71.1846 122.499 71.3239V71.3235ZM196.354 213.447C196.337 213.471 196.323 213.496 196.306 213.52L196.318 213.543C196.331 213.512 196.341 213.479 196.354 213.447H196.354ZM59.6097 90.5758C54.2188 90.5758 49.9304 94.8819 49.9304 100.281C49.9304 105.686 54.2246 109.986 59.6101 109.986C65.0021 109.986 69.2902 105.681 69.2902 100.281C69.2902 94.8757 64.996 90.5762 59.6105 90.5762L59.6097 90.5758ZM121.861 96.1943C104.762 96.1828 87.6654 102.714 74.6287 115.784C48.5509 141.931 48.5933 184.353 74.7011 210.53C100.815 236.711 143.118 236.73 169.191 210.59C195.268 184.443 195.238 142.021 169.13 115.844C156.074 102.754 138.961 96.2051 121.861 96.1943V96.1943ZM120.142 104.428L128.475 128.298C122.796 127.289 116.912 127.687 111.4 129.516L120.143 104.428L120.142 104.428ZM47.6813 112.108C47.6686 112.139 47.659 112.173 47.6455 112.204C47.6624 112.18 47.6771 112.156 47.694 112.132L47.6817 112.108H47.6813ZM47.6455 112.204C22.6178 147.296 25.8011 196.285 57.2779 227.842C88.7601 259.442 137.897 262.814 172.918 237.667C138.271 252.324 96.5262 245.118 68.2798 216.799C40.066 188.504 33.0794 146.921 47.6459 112.204L47.6455 112.204ZM79.4751 121.294L103.873 133.072C101.716 134.434 99.6869 136.059 97.8122 137.943L97.8007 137.919C95.395 140.33 93.4218 143.007 91.8722 145.863L91.4759 146.261L79.4744 121.294H79.4751ZM160.917 121.318L150.757 142.476C149.632 140.884 148.362 139.363 146.945 137.943C144.505 135.497 141.793 133.492 138.901 131.927L160.918 121.318L160.917 121.318ZM122.74 138.931C128.824 138.935 134.916 141.265 139.562 145.923C148.854 155.24 148.866 170.339 139.586 179.643C130.306 188.947 115.245 188.935 105.953 179.619C96.6605 170.302 96.6605 155.203 105.941 145.899C110.581 141.247 116.654 138.927 122.739 138.931H122.74ZM88.6973 152.964V154.049C87.316 159.617 87.3198 165.465 88.7097 171.035V171.264L62.6165 162.102L88.6973 152.964V152.964ZM156.24 154.676L177.788 162.234L156.553 169.673C157.519 164.724 157.404 159.6 156.239 154.676H156.24ZM91.3793 178.22C93.0016 181.453 95.1487 184.483 97.8361 187.178C99.4837 188.829 101.266 190.275 103.139 191.529L79.5348 202.91L91.3793 178.22V178.22ZM151.154 182.584L160.966 202.995L140.019 192.88C142.578 191.408 144.981 189.579 147.162 187.395C148.662 185.89 149.99 184.281 151.154 182.584V182.584ZM111.845 195.75C117.151 197.463 122.787 197.897 128.247 197.028L120.274 219.897L111.845 195.749L111.845 195.75ZM186.903 218.463C181.511 218.463 177.223 222.769 177.223 228.168C177.223 233.573 181.517 237.873 186.903 237.873C192.294 237.873 196.571 233.567 196.571 228.168C196.571 222.762 192.288 218.463 186.902 218.463L186.903 218.463Z" fill="white" fill-opacity="0.05"/>
<path d="M122.499 71.3235H123.499V70.3175L122.493 70.3235L122.499 71.3235ZM71.0818 87.9846L70.4985 87.1723L71.4714 88.9055L71.0818 87.9846ZM175.72 108.853L176.428 108.146L176.428 108.146L175.72 108.853ZM196.354 213.447L195.432 213.06L197.169 214.028L196.354 213.447ZM186.723 97.8096L186.015 98.5154L186.015 98.5158L186.723 97.8096ZM122.499 71.3239H121.499V72.3299L122.505 72.3239L122.499 71.3239ZM196.354 213.447V212.447H195.831L195.533 212.875L196.354 213.447ZM196.305 213.52L195.491 212.94L195.127 213.451L195.429 214.001L196.305 213.52ZM196.318 213.543L195.441 214.024L196.434 215.833L197.239 213.933L196.318 213.543ZM196.354 213.447L197.284 213.815L197.826 212.447H196.354V213.447ZM59.6097 90.5758L60.0579 89.6819L59.8463 89.5758H59.6097V90.5758ZM59.6105 90.5762L59.1624 91.4702L59.3739 91.5762H59.6105V90.5762ZM74.6287 115.784L73.9207 115.078L73.9207 115.078L74.6287 115.784ZM74.7011 210.53L73.9931 211.236H73.9931L74.7011 210.53ZM169.191 210.59L169.899 211.296L169.899 211.296L169.191 210.59ZM169.13 115.844L169.838 115.138L169.838 115.138L169.13 115.844ZM120.142 104.428L119.434 103.722L118.991 104.166L119.198 104.758L120.142 104.428ZM128.475 128.298L128.3 129.283L129.982 129.582L129.419 127.969L128.475 128.298ZM111.4 129.516L110.456 129.187L109.788 131.105L111.715 130.465L111.4 129.516ZM120.143 104.428L121.087 104.757L119.435 103.722L120.143 104.428ZM47.6813 112.108V111.108H47.0052L46.7533 111.735L47.6813 112.108ZM47.6455 112.204L46.7254 111.812L48.4617 112.782L47.6455 112.204ZM47.694 112.132L48.5102 112.709L48.8611 112.214L48.5831 111.674L47.694 112.132ZM47.6817 112.108L48.5707 111.65L48.2916 111.108H47.6817V112.108ZM47.6455 112.204L46.9402 111.495L46.8804 111.555L46.8314 111.624L47.6455 112.204ZM57.2779 227.842L57.9863 227.136L57.9859 227.135L57.2779 227.842ZM172.918 237.667L173.501 238.48L172.529 236.746L172.918 237.667ZM68.2798 216.799L67.5716 217.505L67.5717 217.505L68.2798 216.799ZM47.6459 112.204L48.568 112.591L46.9406 111.495L47.6459 112.204ZM79.4751 121.294L79.9099 120.393L79.7039 120.294H79.4751V121.294ZM103.873 133.072L104.407 133.917L105.931 132.955L104.307 132.171L103.873 133.072ZM97.8122 137.943L96.9116 138.377L97.5252 139.649L98.521 138.648L97.8122 137.943ZM97.8007 137.919L98.7012 137.484L98.0885 136.214L97.0928 137.212L97.8007 137.919ZM91.8722 145.863L92.5802 146.57L92.6823 146.467L92.7512 146.34L91.8722 145.863ZM91.4759 146.261L90.5746 146.694L91.1865 147.967L92.1839 146.967L91.4759 146.261ZM79.4744 121.294V120.294H77.8841L78.5731 121.727L79.4744 121.294ZM160.917 121.318L160.469 120.424L160.164 120.577L160.016 120.885L160.917 121.318ZM150.757 142.476L149.94 143.052L150.922 144.442L151.658 142.908L150.757 142.476ZM138.901 131.927L138.467 131.026L136.704 131.875L138.425 132.806L138.901 131.927ZM160.918 121.318L161.366 122.212L160.484 120.417L160.918 121.318ZM122.74 138.931L122.74 137.931H122.74V138.931ZM139.562 145.923L140.27 145.217L140.27 145.217L139.562 145.923ZM139.586 179.643L138.878 178.936L138.877 178.937L139.586 179.643ZM105.953 179.619L106.661 178.913L106.661 178.913L105.953 179.619ZM105.941 145.899L106.649 146.606L106.649 146.605L105.941 145.899ZM122.739 138.931L122.738 139.931H122.739V138.931ZM88.6973 154.049L89.6679 154.29L89.6973 154.171V154.049H88.6973ZM88.7097 171.035H89.7097V170.912L89.6799 170.793L88.7097 171.035ZM88.7097 171.264L88.3784 172.207L89.7097 172.675V171.264H88.7097ZM62.6165 162.102L62.2858 161.158L59.5952 162.101L62.2851 163.045L62.6165 162.102ZM156.24 154.676L156.571 153.732L156.41 153.676H156.24V154.676ZM177.788 162.234L178.119 163.178L180.811 162.235L178.119 161.291L177.788 162.234ZM156.553 169.673L155.571 169.481L155.237 171.193L156.883 170.617L156.553 169.673ZM156.239 154.676V153.676H154.975L155.266 154.906L156.239 154.676ZM97.8361 187.178L97.128 187.884L97.1282 187.884L97.8361 187.178ZM103.139 191.529L103.573 192.43L105.148 191.671L103.696 190.699L103.139 191.529ZM79.5348 202.91L78.6332 202.477L77.3991 205.05L79.9691 203.811L79.5348 202.91ZM160.966 202.995L160.531 203.896L163.106 205.139L161.867 202.562L160.966 202.995ZM140.019 192.88L139.52 192.013L137.879 192.957L139.584 193.78L140.019 192.88ZM147.162 187.395L147.869 188.101L147.87 188.101L147.162 187.395ZM111.845 195.75L111.137 195.044L109.984 196.2L111.537 196.701L111.845 195.75ZM128.247 197.028L129.191 197.357L129.742 195.777L128.089 196.04L128.247 197.028ZM120.274 219.897L119.33 220.226L120.274 222.933L121.218 220.226L120.274 219.897ZM111.845 195.749L112.789 195.42L112.263 193.914L111.137 195.043L111.845 195.749ZM186.903 218.463L187.6 219.18L189.366 217.463H186.903V218.463ZM186.902 218.463L186.205 217.746L184.439 219.463H186.902V218.463ZM122.493 70.3235C104.229 70.4327 85.9937 76.0458 70.4985 87.1723L71.665 88.7968C86.8128 77.9199 104.642 72.4303 122.505 72.3235L122.493 70.3235ZM71.4714 88.9055C105.748 74.4047 147.058 81.5323 175.012 109.559L176.428 108.146C147.89 79.5341 105.708 72.2498 70.6922 87.0636L71.4714 88.9055ZM175.012 109.559C202.932 137.558 209.846 178.707 195.432 213.06L197.276 213.834C211.996 178.753 204.936 136.735 176.428 108.146L175.012 109.559ZM197.169 214.028C222.475 178.546 219.257 129.012 187.431 97.1034L186.015 98.5158C217.14 129.722 220.289 178.166 195.54 212.866L197.169 214.028ZM187.432 97.1038C169.526 79.1326 145.976 70.1831 122.493 70.3239L122.505 72.3239C145.472 72.1861 168.501 80.9377 186.015 98.5154L187.432 97.1038ZM123.499 71.3239V71.3235H121.499V71.3239H123.499ZM195.533 212.875C195.52 212.894 195.509 212.91 195.501 212.922C195.494 212.934 195.487 212.945 195.484 212.949C195.481 212.955 195.48 212.955 195.481 212.954C195.482 212.953 195.486 212.947 195.491 212.94L197.12 214.1C197.147 214.063 197.168 214.029 197.175 214.018C197.177 214.014 197.178 214.012 197.18 214.01C197.181 214.008 197.181 214.008 197.181 214.008C197.181 214.008 197.181 214.009 197.179 214.011C197.178 214.012 197.176 214.015 197.174 214.018L195.533 212.875ZM195.429 214.001L195.441 214.024L197.195 213.062L197.182 213.039L195.429 214.001ZM197.239 213.933C197.259 213.886 197.274 213.844 197.279 213.828C197.283 213.816 197.284 213.814 197.286 213.81C197.287 213.807 197.286 213.81 197.284 213.815L195.424 213.078C195.416 213.099 195.409 213.118 195.404 213.132C195.4 213.145 195.395 213.158 195.393 213.163C195.391 213.17 195.39 213.171 195.39 213.17C195.391 213.169 195.393 213.163 195.398 213.153L197.239 213.933ZM196.354 212.447H196.354V214.447H196.354V212.447ZM59.6097 89.5758C53.6636 89.5758 48.9304 94.3325 48.9304 100.281H50.9304C50.9304 95.4313 54.774 91.5758 59.6097 91.5758V89.5758ZM48.9304 100.281C48.9304 106.237 53.6703 110.986 59.6101 110.986V108.986C54.779 108.986 50.9304 105.136 50.9304 100.281H48.9304ZM59.6101 110.986C65.5572 110.986 70.2902 106.23 70.2902 100.281H68.2902C68.2902 105.131 64.447 108.986 59.6101 108.986V110.986ZM70.2902 100.281C70.2902 94.3255 65.5503 89.5762 59.6105 89.5762V91.5762C64.4416 91.5762 68.2902 95.426 68.2902 100.281H70.2902ZM60.0586 89.6823L60.0579 89.6819L59.1616 91.4698L59.1624 91.4702L60.0586 89.6823ZM121.862 95.1943C104.508 95.1826 87.1525 101.812 73.9207 115.078L75.3368 116.49C88.1782 103.616 105.017 97.1829 121.861 97.1943L121.862 95.1943ZM73.9207 115.078C47.4525 141.616 47.497 184.67 73.9931 211.236L75.4091 209.824C49.6895 184.036 49.6493 142.246 75.3368 116.49L73.9207 115.078ZM73.9931 211.236C100.497 237.809 143.435 237.829 169.899 211.296L168.483 209.883C142.802 235.632 101.133 235.614 75.4091 209.824L73.9931 211.236ZM169.899 211.296C196.367 184.758 196.335 141.704 169.838 115.138L168.422 116.551C194.142 142.338 194.17 184.128 168.483 209.883L169.899 211.296ZM169.838 115.138C156.587 101.852 139.217 95.2053 121.862 95.1943L121.861 97.1943C138.705 97.205 155.56 103.655 168.422 116.551L169.838 115.138ZM119.198 104.758L127.531 128.628L129.419 127.969L121.086 104.099L119.198 104.758ZM128.65 127.314C122.81 126.276 116.757 126.685 111.085 128.567L111.715 130.465C117.066 128.689 122.782 128.302 128.3 129.283L128.65 127.314ZM112.345 129.845L121.087 104.757L119.198 104.099L110.456 129.187L112.345 129.845ZM119.435 103.722L119.434 103.722L120.85 105.135L120.851 105.134L119.435 103.722ZM46.7533 111.735C46.744 111.758 46.7366 111.778 46.7313 111.793C46.7265 111.806 46.7216 111.821 46.7199 111.825C46.7174 111.833 46.7172 111.833 46.7177 111.832C46.7184 111.83 46.7211 111.823 46.7254 111.812L48.5656 112.596C48.5866 112.547 48.6019 112.502 48.6075 112.487C48.6115 112.475 48.6122 112.473 48.6132 112.47C48.6137 112.469 48.6122 112.473 48.6093 112.48L46.7533 111.735ZM48.4617 112.782C48.4837 112.751 48.5024 112.722 48.5085 112.712C48.5182 112.698 48.5153 112.702 48.5102 112.709L46.8778 111.554C46.8558 111.585 46.8372 111.614 46.831 111.623C46.8214 111.638 46.8243 111.634 46.8293 111.626L48.4617 112.782ZM48.5831 111.674L48.5707 111.65L46.7926 112.566L46.8049 112.589L48.5831 111.674ZM47.6817 111.108H47.6813V113.108H47.6817V111.108ZM46.8314 111.624C21.5249 147.106 24.7428 196.64 56.5699 228.548L57.9859 227.135C26.8595 195.93 23.7107 147.486 48.4597 112.785L46.8314 111.624ZM56.5695 228.547C88.4007 260.498 138.086 263.91 173.501 238.48L172.335 236.855C137.709 261.718 89.1194 258.385 57.9863 227.136L56.5695 228.547ZM172.529 236.746C138.251 251.247 96.9421 244.119 68.9878 216.092L67.5717 217.505C96.1104 246.117 138.291 253.401 173.308 238.588L172.529 236.746ZM68.9879 216.093C41.0679 188.093 34.1543 146.944 48.568 112.591L46.7238 111.817C32.0045 146.898 39.064 188.916 67.5716 217.505L68.9879 216.093ZM46.9406 111.495L46.9402 111.495L48.3508 112.913L48.3512 112.913L46.9406 111.495ZM79.0404 122.194L103.438 133.972L104.307 132.171L79.9099 120.393L79.0404 122.194ZM103.339 132.226C101.118 133.629 99.0299 135.301 97.1034 137.237L98.521 138.648C100.344 136.816 102.315 135.238 104.407 133.917L103.339 132.226ZM98.7128 137.508L98.7012 137.484L96.9001 138.353L96.9116 138.377L98.7128 137.508ZM97.0928 137.212C94.6183 139.692 92.5878 142.447 90.9932 145.387L92.7512 146.34C94.2557 143.567 96.1716 140.967 98.5086 138.625L97.0928 137.212ZM91.1642 145.157L90.7679 145.555L92.1839 146.967L92.5802 146.57L91.1642 145.157ZM92.3772 145.828L80.3757 120.861L78.5731 121.727L90.5746 146.694L92.3772 145.828ZM79.4744 122.294H79.4751V120.294H79.4744V122.294ZM160.016 120.885L149.855 142.043L151.658 142.908L161.819 121.751L160.016 120.885ZM151.573 141.899C150.417 140.262 149.111 138.698 147.653 137.236L146.237 138.649C147.613 140.028 148.847 141.506 149.94 143.052L151.573 141.899ZM147.653 137.236C145.144 134.721 142.353 132.659 139.377 131.047L138.425 132.806C141.232 134.326 143.867 136.272 146.237 138.649L147.653 137.236ZM139.335 132.828L161.352 122.219L160.484 120.417L138.467 131.026L139.335 132.828ZM160.47 120.424L160.469 120.424L161.365 122.212L161.366 122.212L160.47 120.424ZM122.739 139.931C128.569 139.935 134.403 142.166 138.854 146.629L140.27 145.217C135.429 140.363 129.08 137.935 122.74 137.931L122.739 139.931ZM138.854 146.629C147.758 155.557 147.767 170.024 138.878 178.936L140.293 180.349C149.964 170.654 149.951 154.923 140.27 145.217L138.854 146.629ZM138.877 178.937C129.99 187.848 115.564 187.838 106.661 178.913L105.245 180.325C114.927 190.032 130.622 190.046 140.294 180.349L138.877 178.937ZM106.661 178.913C97.7575 169.986 97.7582 155.518 106.649 146.606L105.233 145.193C95.5628 154.887 95.5636 170.618 105.245 180.325L106.661 178.913ZM106.649 146.605C111.094 142.149 116.909 139.927 122.738 139.931L122.74 137.931C116.399 137.927 110.068 140.345 105.233 145.193L106.649 146.605ZM122.739 139.931H122.74V137.931H122.739V139.931ZM87.6973 152.964V154.049H89.6973V152.964H87.6973ZM87.7268 153.808C86.306 159.535 86.31 165.549 87.7394 171.277L89.6799 170.793C88.3296 165.381 88.3259 159.699 89.6679 154.29L87.7268 153.808ZM87.7097 171.035V171.264H89.7097V171.035H87.7097ZM89.041 170.32L62.9478 161.158L62.2851 163.045L88.3784 172.207L89.041 170.32ZM62.9471 163.045L89.028 153.907L88.3667 152.02L62.2858 161.158L62.9471 163.045ZM155.909 155.619L177.457 163.178L178.119 161.291L156.571 153.732L155.909 155.619ZM177.457 161.291L156.222 168.729L156.883 170.617L178.119 163.178L177.457 161.291ZM157.534 169.865C158.528 164.774 158.41 159.507 157.213 154.446L155.266 154.906C156.399 159.694 156.509 164.674 155.571 169.481L157.534 169.865ZM156.239 155.676H156.24V153.676H156.239V155.676ZM90.4855 178.668C92.1543 181.994 94.3634 185.112 97.128 187.884L98.5441 186.472C95.934 183.854 93.8488 180.912 92.2731 177.771L90.4855 178.668ZM97.1282 187.884C98.8245 189.584 100.658 191.071 102.583 192.36L103.696 190.699C101.874 189.478 100.143 188.074 98.5439 186.471L97.1282 187.884ZM102.705 190.629L79.1005 202.009L79.9691 203.811L103.573 192.43L102.705 190.629ZM80.4364 203.342L92.2809 178.653L90.4777 177.787L78.6332 202.477L80.4364 203.342ZM150.252 183.018L160.065 203.428L161.867 202.562L152.055 182.151L150.252 183.018ZM161.401 202.095L140.454 191.979L139.584 193.78L160.531 203.896L161.401 202.095ZM140.517 193.747C143.152 192.231 145.626 190.349 147.869 188.101L146.454 186.689C144.336 188.81 142.003 190.585 139.52 192.013L140.517 193.747ZM147.87 188.101C149.414 186.553 150.78 184.896 151.978 183.15L150.329 182.018C149.199 183.665 147.91 185.228 146.454 186.689L147.87 188.101ZM111.537 196.701C116.993 198.463 122.788 198.909 128.404 198.015L128.089 196.04C122.785 196.884 117.309 196.464 112.152 194.798L111.537 196.701ZM127.302 196.699L119.33 219.568L121.218 220.226L129.191 197.357L127.302 196.699ZM121.218 219.567L112.789 195.42L110.901 196.079L119.33 220.226L121.218 219.567ZM111.137 195.043L111.137 195.044L112.553 196.456L112.553 196.456L111.137 195.043ZM186.903 217.463C180.956 217.463 176.223 222.219 176.223 228.168H178.223C178.223 223.318 182.066 219.463 186.903 219.463V217.463ZM176.223 228.168C176.223 234.123 180.963 238.873 186.903 238.873V236.873C182.072 236.873 178.223 233.023 178.223 228.168H176.223ZM186.903 238.873C192.851 238.873 197.571 234.115 197.571 228.168H195.571C195.571 233.02 191.738 236.873 186.903 236.873V238.873ZM197.571 228.168C197.571 222.214 192.844 217.463 186.902 217.463V219.463C191.732 219.463 195.571 223.311 195.571 228.168H197.571ZM187.6 219.18L187.6 219.18L186.206 217.746L186.205 217.746L187.6 219.18Z" fill="white" fill-opacity="0.1" mask="url(#path-5-inside-1_2:6025)"/>
</g>
<rect x="121.678" y="3.12132" width="27.1543" height="27.1543" rx="13.5772" transform="rotate(45 121.678 3.12132)" fill="#FF9533" stroke="#492300" stroke-width="3"/>
<rect x="135.441" y="18.5869" width="6.41177" height="13.9412" rx="3.20588" transform="rotate(90 135.441 18.5869)" fill="#FF9533" stroke="#492300" stroke-width="3"/>
<rect x="121.678" y="319.845" width="27.1543" height="27.1543" rx="13.5772" transform="rotate(-135 121.678 319.845)" fill="#FF9533" stroke="#492300" stroke-width="3"/>
<rect x="107.914" y="304.38" width="6.41177" height="13.9412" rx="3.20588" transform="rotate(-90 107.914 304.38)" fill="#FF9533" stroke="#492300" stroke-width="3"/>
<rect x="168.5" y="247.822" width="63" height="63" fill="black" stroke="#8D4400"/>
<path d="M200.154 251.323C194.595 251.356 189.047 253.059 184.333 256.436C194.993 251.937 207.838 254.149 216.529 262.84C225.21 271.524 227.36 284.286 222.878 294.94C230.579 284.171 229.6 269.136 219.915 259.451C214.466 253.996 207.3 251.28 200.154 251.323V251.323ZM222.878 294.94C222.873 294.948 222.868 294.955 222.863 294.963L222.867 294.97C222.871 294.96 222.874 294.95 222.878 294.94H222.878ZM180.803 257.231C179.144 257.231 177.825 258.553 177.825 260.21C177.825 261.869 179.146 263.188 180.803 263.188C182.462 263.188 183.781 261.867 183.781 260.21C183.781 258.551 182.46 257.231 180.803 257.231L180.803 257.231ZM199.957 258.955C194.696 258.952 189.435 260.956 185.424 264.968C177.4 272.992 177.413 286.012 185.446 294.045C193.481 302.08 206.498 302.086 214.52 294.063C222.544 286.039 222.535 273.02 214.502 264.986C210.484 260.968 205.219 258.959 199.957 258.955V258.955ZM199.428 261.482L201.992 268.808C200.245 268.498 198.434 268.621 196.738 269.182L199.428 261.482L199.428 261.482ZM177.133 263.839C177.129 263.849 177.126 263.859 177.122 263.869C177.127 263.862 177.131 263.854 177.136 263.847L177.133 263.839H177.133ZM177.122 263.869C169.421 274.639 170.4 289.673 180.085 299.358C189.772 309.056 204.891 310.091 215.667 302.374C205.006 306.872 192.162 304.66 183.471 295.969C174.789 287.285 172.64 274.523 177.122 263.869L177.122 263.869ZM186.915 266.658L194.422 270.273C193.759 270.691 193.134 271.19 192.557 271.768L192.554 271.761C191.814 272.501 191.207 273.322 190.73 274.199L190.608 274.321L186.915 266.658H186.915ZM211.974 266.666L208.848 273.159C208.502 272.671 208.111 272.204 207.675 271.768C206.925 271.017 206.09 270.402 205.2 269.922L211.975 266.666L211.974 266.666ZM200.227 272.071C202.1 272.073 203.974 272.788 205.404 274.217C208.263 277.077 208.266 281.711 205.411 284.566C202.556 287.421 197.922 287.418 195.062 284.558C192.203 281.699 192.203 277.065 195.059 274.21C196.486 272.782 198.355 272.07 200.227 272.071H200.227ZM189.753 276.378V276.711C189.328 278.42 189.329 280.215 189.757 281.924V281.994L181.728 279.182L189.753 276.378V276.378ZM210.535 276.903L217.165 279.223L210.631 281.506C210.929 279.987 210.893 278.415 210.535 276.903H210.535ZM190.578 284.129C191.077 285.121 191.738 286.051 192.565 286.878C193.072 287.385 193.62 287.829 194.197 288.214L186.934 291.707L190.578 284.129V284.129ZM208.97 285.469L211.989 291.733L205.544 288.628C206.331 288.177 207.071 287.615 207.742 286.945C208.204 286.483 208.612 285.989 208.97 285.469V285.469ZM196.875 289.509C198.508 290.035 200.242 290.168 201.922 289.901L199.469 296.92L196.875 289.509L196.875 289.509ZM219.97 296.48C218.311 296.48 216.992 297.801 216.992 299.458C216.992 301.117 218.313 302.437 219.97 302.437C221.629 302.437 222.945 301.115 222.945 299.458C222.945 297.799 221.627 296.48 219.97 296.48L219.97 296.48Z" fill="#FF9533"/>
</svg>
