<svg width="244" height="324" viewBox="0 0 244 324" fill="none" xmlns="http://www.w3.org/2000/svg">
<path d="M34 2H52.8235H75.4118L81.0588 7.64343H162.941L168.588 2H207.176L216.588 11.4057H231.647L242 21.752V301.307L226.941 316.357H216.588L210.941 322H168.588L162.941 316.357H81.0588L75.4118 322H35.8824L27.4118 313.535H14.2353L2 301.307V21.752L12.3529 11.4057H24.5882L34 2Z" fill="black" stroke="#232323" stroke-width="3"/>
<path d="M37.7655 11.4116H59.5344H73.0984L78.2361 16.532H168.157L173.295 11.4116H206.144L214.707 19.9456H222.229L231.648 29.333V292.5L220.508 303.594H212.824L206.745 311.275H171.413L166.275 306.154H77.2949L72.1572 311.275H38.7067L31.0001 303.594H24.4266L13.2949 292.5V29.333L22.7141 19.9456H29.2027L37.7655 11.4116Z" fill="#066270"/>
<path d="M27.1621 24L33.6994 30.5366L31.0845 33.1512L24.5471 26.6146L27.1621 24Z" fill="#00292F"/>
<path d="M27.1621 300L33.6994 293.463L31.0845 290.849L24.5471 297.385L27.1621 300Z" fill="#00292F"/>
<path d="M217.838 24L211.301 30.5366L213.916 33.1512L220.453 26.6146L217.838 24Z" fill="#00292F"/>
<path d="M217.838 300L211.301 293.463L213.916 290.849L220.453 297.385L217.838 300Z" fill="#00292F"/>
<path d="M21.6149 29.5465L28.1523 36.083L25.5374 38.6976L19 32.1611L21.6149 29.5465Z" fill="#00292F"/>
<path d="M21.6149 294.453L28.1523 287.917L25.5374 285.302L19 291.839L21.6149 294.453Z" fill="#00292F"/>
<path d="M223.385 29.5465L216.848 36.083L219.463 38.6976L226 32.1611L223.385 29.5465Z" fill="#00292F"/>
<path d="M223.385 294.453L216.848 287.917L219.463 285.302L226 291.839L223.385 294.453Z" fill="#00292F"/>
<path d="M28 96.9999H34V97.9999H28V96.9999Z" fill="#00292F"/>
<path d="M210 96.9999H216V97.9999H210V96.9999Z" fill="#00292F"/>
<path d="M28 226H34V227H28V226Z" fill="#00292F"/>
<path d="M210 226H216V227H210V226Z" fill="#00292F"/>
<path d="M42.4702 26.4707H67.882H202.975L217.093 40.5883V78.2354L206.74 88.5883V110.235L217.093 120.588V205.206L206.74 215.559V238.147L217.093 248.5V282.382L202.034 297.441H43.4114L28.3525 282.382V248.5L38.7055 238.147V215.559L28.3525 205.206V120.588L38.7055 110.235V88.5883L28.3525 78.2354V40.5883L42.4702 26.4707Z" fill="#00292F"/>
<g opacity="0.5">
<mask id="path-5-inside-1_2:5987" fill="white">
<path d="M124.93 67C108.304 67 92.7887 71.807 79.7429 80.104L65.2156 69.5187L70.8125 86.6025C52.2232 102.106 40.3709 125.482 40.3709 151.575C40.3709 159.025 41.3462 166.268 43.1652 173.182L28 184.13L46.8732 184.088C58.956 213.021 86.6156 233.805 119.333 235.945L125.465 255L131.638 235.863C163.862 233.311 191.023 212.651 202.958 184.088L223 184.13L206.868 172.482C208.555 165.774 209.46 158.778 209.46 151.575C209.46 125.894 197.978 102.888 179.912 87.3598L185.756 69.5187L170.693 80.4909C157.524 71.9593 141.762 67 124.93 67ZM128.469 74.7661C141.433 75.3546 153.532 79.141 164.026 85.3555L156.866 90.5947C148.305 86.0675 138.675 83.3018 128.469 82.775V74.7661ZM120.773 74.8073V82.8285C111.061 83.413 101.843 86.0346 93.653 90.2695L86.4099 84.981C96.9865 78.7788 109.909 75.4658 120.773 74.7908V74.8073ZM170.94 90.0226L156.289 134.743C154.026 130.792 151.063 127.293 147.524 124.495C155.343 113.012 163.121 101.489 170.94 90.0226ZM80.2779 90.0226L117.605 117.251C112.954 118.239 108.633 120.091 104.806 122.643C96.6161 111.778 88.4676 100.871 80.2779 90.0226ZM128.469 90.4794C136.042 90.9116 143.285 92.7389 149.869 95.6898L128.469 111.325V90.4794ZM120.773 90.5206V110.049L100.69 95.4017C106.905 92.6977 113.654 90.998 120.773 90.5206ZM73.4052 94.4551L76.2037 103.053C69.2898 110.049 63.8575 118.527 60.454 127.952L52.5936 125.441C58.1124 113.259 65.0509 102.147 73.4052 94.4551ZM177.319 95.2782C186.044 103.382 192.834 113.506 197.032 124.906L189.213 127.417C185.92 118.609 180.858 110.625 174.479 103.917L177.319 95.2782ZM78.9198 111.366L87.1507 136.553L67.7671 130.298C70.3187 123.301 74.146 116.881 78.9198 111.366ZM171.722 112.313C176.043 117.498 179.5 123.384 181.887 129.763L164.15 135.483L171.722 112.313ZM124.93 124.207C140.692 124.207 153.409 136.924 153.409 152.728C153.409 168.49 140.692 181.208 124.93 181.208C109.127 181.208 96.4103 168.49 96.4103 152.728C96.4103 136.924 109.127 124.207 124.93 124.207ZM199.336 132.232C200.941 138.405 201.806 144.867 201.806 151.575C201.806 157.049 201.188 162.44 200.118 167.585L192.587 162.152C193.163 158.613 193.451 154.95 193.451 151.205C193.451 145.567 192.752 140.052 191.476 134.784C194.11 133.919 196.744 133.096 199.336 132.232ZM50.3549 132.808L58.2605 135.319C57.0465 140.422 56.4004 145.772 56.4004 151.205C56.4004 155.197 56.7378 159.107 57.3922 162.893L49.8816 168.326C48.662 162.826 48.0466 157.209 48.0461 151.575C48.3095 144.99 49.005 138.282 50.3549 132.808ZM184.151 137.13C185.221 141.657 185.756 146.39 185.756 151.205C185.756 153.18 185.673 155.115 185.509 157.008L166.043 142.974C172.092 141.039 178.101 139.064 184.151 137.13ZM65.5859 137.706L84.0229 143.632L64.4336 157.79C64.1867 155.609 64.0632 153.427 64.0632 151.205C64.2279 146.472 64.6806 141.657 65.5859 137.706ZM160.899 148.736L198.76 176.104L159.664 162.77C160.981 157.79 161.351 153.427 160.899 148.736ZM90.7722 164.663C92.2537 168.943 94.5584 172.894 97.4803 176.31L52.3344 176.392C65.1333 172.482 77.9321 168.573 90.7722 164.663ZM97.6861 184.006L86.2864 198.246C81.3479 194.213 77.1091 189.398 73.6521 184.047C81.6772 184.047 89.7022 184.006 97.6861 184.006ZM153.614 184.006L176.208 184.047C172.957 189.109 168.965 193.637 164.438 197.546C160.816 193.019 157.195 188.492 153.614 184.006ZM185.056 184.047L194.604 184.088C189.871 194.213 183.039 203.102 174.603 210.222L169.212 203.514C175.632 198.081 181.023 191.455 185.056 184.047ZM64.7629 184.047C69.0017 191.826 74.7221 198.658 81.5125 204.214L76.0802 210.963C67.2733 203.72 60.1207 194.542 55.2357 184.088L64.7629 184.047ZM139.745 185.735L125.506 229.854V188.904C130.609 188.492 135.754 187.504 139.745 185.735ZM147.03 188.122L158.265 202.156C152.709 205.778 146.536 208.535 139.91 210.222C142.297 202.856 144.684 195.489 147.03 188.122ZM104.024 188.41L111.143 210.511C104.435 208.947 98.1799 206.313 92.5418 202.773C96.3691 197.958 100.196 193.184 104.024 188.41ZM163.08 208.123L168.512 214.914C158.512 221.787 146.865 226.356 134.231 227.878L137.194 218.659C146.824 216.231 156.001 212.815 163.08 208.123ZM87.7268 208.782C95.4638 213.803 104.353 217.301 113.818 218.865L116.782 228.002C104.106 226.685 92.336 222.281 82.2945 215.573L87.7268 208.782Z"/>
</mask>
<path d="M124.93 67C108.304 67 92.7887 71.807 79.7429 80.104L65.2156 69.5187L70.8125 86.6025C52.2232 102.106 40.3709 125.482 40.3709 151.575C40.3709 159.025 41.3462 166.268 43.1652 173.182L28 184.13L46.8732 184.088C58.956 213.021 86.6156 233.805 119.333 235.945L125.465 255L131.638 235.863C163.862 233.311 191.023 212.651 202.958 184.088L223 184.13L206.868 172.482C208.555 165.774 209.46 158.778 209.46 151.575C209.46 125.894 197.978 102.888 179.912 87.3598L185.756 69.5187L170.693 80.4909C157.524 71.9593 141.762 67 124.93 67ZM128.469 74.7661C141.433 75.3546 153.532 79.141 164.026 85.3555L156.866 90.5947C148.305 86.0675 138.675 83.3018 128.469 82.775V74.7661ZM120.773 74.8073V82.8285C111.061 83.413 101.843 86.0346 93.653 90.2695L86.4099 84.981C96.9865 78.7788 109.909 75.4658 120.773 74.7908V74.8073ZM170.94 90.0226L156.289 134.743C154.026 130.792 151.063 127.293 147.524 124.495C155.343 113.012 163.121 101.489 170.94 90.0226ZM80.2779 90.0226L117.605 117.251C112.954 118.239 108.633 120.091 104.806 122.643C96.6161 111.778 88.4676 100.871 80.2779 90.0226ZM128.469 90.4794C136.042 90.9116 143.285 92.7389 149.869 95.6898L128.469 111.325V90.4794ZM120.773 90.5206V110.049L100.69 95.4017C106.905 92.6977 113.654 90.998 120.773 90.5206ZM73.4052 94.4551L76.2037 103.053C69.2898 110.049 63.8575 118.527 60.454 127.952L52.5936 125.441C58.1124 113.259 65.0509 102.147 73.4052 94.4551ZM177.319 95.2782C186.044 103.382 192.834 113.506 197.032 124.906L189.213 127.417C185.92 118.609 180.858 110.625 174.479 103.917L177.319 95.2782ZM78.9198 111.366L87.1507 136.553L67.7671 130.298C70.3187 123.301 74.146 116.881 78.9198 111.366ZM171.722 112.313C176.043 117.498 179.5 123.384 181.887 129.763L164.15 135.483L171.722 112.313ZM124.93 124.207C140.692 124.207 153.409 136.924 153.409 152.728C153.409 168.49 140.692 181.208 124.93 181.208C109.127 181.208 96.4103 168.49 96.4103 152.728C96.4103 136.924 109.127 124.207 124.93 124.207ZM199.336 132.232C200.941 138.405 201.806 144.867 201.806 151.575C201.806 157.049 201.188 162.44 200.118 167.585L192.587 162.152C193.163 158.613 193.451 154.95 193.451 151.205C193.451 145.567 192.752 140.052 191.476 134.784C194.11 133.919 196.744 133.096 199.336 132.232ZM50.3549 132.808L58.2605 135.319C57.0465 140.422 56.4004 145.772 56.4004 151.205C56.4004 155.197 56.7378 159.107 57.3922 162.893L49.8816 168.326C48.662 162.826 48.0466 157.209 48.0461 151.575C48.3095 144.99 49.005 138.282 50.3549 132.808ZM184.151 137.13C185.221 141.657 185.756 146.39 185.756 151.205C185.756 153.18 185.673 155.115 185.509 157.008L166.043 142.974C172.092 141.039 178.101 139.064 184.151 137.13ZM65.5859 137.706L84.0229 143.632L64.4336 157.79C64.1867 155.609 64.0632 153.427 64.0632 151.205C64.2279 146.472 64.6806 141.657 65.5859 137.706ZM160.899 148.736L198.76 176.104L159.664 162.77C160.981 157.79 161.351 153.427 160.899 148.736ZM90.7722 164.663C92.2537 168.943 94.5584 172.894 97.4803 176.31L52.3344 176.392C65.1333 172.482 77.9321 168.573 90.7722 164.663ZM97.6861 184.006L86.2864 198.246C81.3479 194.213 77.1091 189.398 73.6521 184.047C81.6772 184.047 89.7022 184.006 97.6861 184.006ZM153.614 184.006L176.208 184.047C172.957 189.109 168.965 193.637 164.438 197.546C160.816 193.019 157.195 188.492 153.614 184.006ZM185.056 184.047L194.604 184.088C189.871 194.213 183.039 203.102 174.603 210.222L169.212 203.514C175.632 198.081 181.023 191.455 185.056 184.047ZM64.7629 184.047C69.0017 191.826 74.7221 198.658 81.5125 204.214L76.0802 210.963C67.2733 203.72 60.1207 194.542 55.2357 184.088L64.7629 184.047ZM139.745 185.735L125.506 229.854V188.904C130.609 188.492 135.754 187.504 139.745 185.735ZM147.03 188.122L158.265 202.156C152.709 205.778 146.536 208.535 139.91 210.222C142.297 202.856 144.684 195.489 147.03 188.122ZM104.024 188.41L111.143 210.511C104.435 208.947 98.1799 206.313 92.5418 202.773C96.3691 197.958 100.196 193.184 104.024 188.41ZM163.08 208.123L168.512 214.914C158.512 221.787 146.865 226.356 134.231 227.878L137.194 218.659C146.824 216.231 156.001 212.815 163.08 208.123ZM87.7268 208.782C95.4638 213.803 104.353 217.301 113.818 218.865L116.782 228.002C104.106 226.685 92.336 222.281 82.2945 215.573L87.7268 208.782Z" fill="white" fill-opacity="0.05" stroke="white" stroke-opacity="0.1" stroke-width="2" mask="url(#path-5-inside-1_2:5987)"/>
</g>
<rect x="121.678" y="6.79905" width="21.4975" height="21.4975" rx="3.5" transform="rotate(45 121.678 6.79905)" fill="#00DEFF" stroke="#00292F" stroke-width="3"/>
<rect x="118.323" y="8.5" width="6.41177" height="13.9412" rx="3.20588" fill="#00DEFF" stroke="#00292F" stroke-width="3"/>
<rect x="121.678" y="314.523" width="21.4975" height="21.4975" rx="3.5" transform="rotate(-135 121.678 314.523)" fill="#00DEFF" stroke="#00292F" stroke-width="3"/>
<rect x="125.032" y="312.822" width="6.41177" height="13.9412" rx="3.20588" transform="rotate(-180 125.032 312.822)" fill="#00DEFF" stroke="#00292F" stroke-width="3"/>
<rect x="168.5" y="247.5" width="63" height="63" fill="black" stroke="#00DEFF"/>
<path d="M201.874 253C196.921 253 192.3 254.432 188.413 256.903L184.086 253.75L185.753 258.839C180.216 263.457 176.685 270.42 176.685 278.193C176.685 280.411 176.976 282.569 177.518 284.629L173 287.89L178.622 287.877C182.221 296.496 190.461 302.686 200.207 303.324L202.033 309L203.872 303.299C213.471 302.539 221.562 296.385 225.118 287.877L231.088 287.89L226.282 284.42C226.785 282.422 227.054 280.338 227.054 278.193C227.054 270.543 223.634 263.69 218.252 259.065L219.993 253.75L215.506 257.018C211.583 254.477 206.888 253 201.874 253ZM202.928 255.313C206.79 255.488 210.394 256.616 213.52 258.467L211.387 260.028C208.837 258.68 205.969 257.856 202.928 257.699V255.313ZM200.636 255.325V257.715C197.743 257.889 194.997 258.67 192.557 259.931L190.399 258.356C193.55 256.508 197.399 255.522 200.636 255.321V255.325ZM215.58 259.858L211.216 273.179C210.541 272.002 209.659 270.96 208.604 270.126C210.934 266.706 213.251 263.273 215.58 259.858ZM188.573 259.858L199.692 267.968C198.307 268.263 197.019 268.814 195.879 269.574C193.44 266.338 191.012 263.089 188.573 259.858ZM202.928 259.994C205.184 260.122 207.342 260.667 209.303 261.546L202.928 266.203V259.994ZM200.636 260.006V265.823L194.653 261.46C196.505 260.655 198.515 260.148 200.636 260.006ZM186.526 261.178L187.359 263.739C185.3 265.823 183.681 268.348 182.668 271.156L180.326 270.408C181.97 266.779 184.037 263.469 186.526 261.178ZM217.48 261.423C220.079 263.837 222.102 266.853 223.352 270.249L221.023 270.996C220.042 268.373 218.534 265.995 216.634 263.996L217.48 261.423ZM188.168 266.215L190.62 273.718L184.846 271.855C185.606 269.77 186.746 267.858 188.168 266.215ZM215.813 266.497C217.1 268.042 218.13 269.795 218.841 271.695L213.557 273.399L215.813 266.497ZM201.874 270.04C206.569 270.04 210.357 273.828 210.357 278.536C210.357 283.231 206.569 287.019 201.874 287.019C197.167 287.019 193.378 283.231 193.378 278.536C193.378 273.828 197.167 270.04 201.874 270.04ZM224.039 272.431C224.517 274.27 224.774 276.194 224.774 278.193C224.774 279.823 224.59 281.429 224.272 282.961L222.028 281.343C222.2 280.289 222.286 279.198 222.286 278.082C222.286 276.403 222.077 274.76 221.697 273.191C222.482 272.933 223.266 272.688 224.039 272.431ZM179.659 272.602L182.014 273.35C181.653 274.87 181.46 276.464 181.46 278.082C181.46 279.271 181.561 280.436 181.756 281.564L179.518 283.182C179.155 281.544 178.972 279.871 178.971 278.193C179.05 276.231 179.257 274.233 179.659 272.602ZM219.515 273.89C219.834 275.238 219.993 276.648 219.993 278.082C219.993 278.671 219.969 279.247 219.92 279.811L214.121 275.63C215.923 275.054 217.713 274.466 219.515 273.89ZM184.196 274.061L189.688 275.826L183.853 280.044C183.78 279.394 183.743 278.744 183.743 278.082C183.792 276.672 183.927 275.238 184.196 274.061ZM212.589 277.347L223.867 285.499L212.221 281.527C212.613 280.044 212.723 278.744 212.589 277.347ZM191.699 282.091C192.14 283.366 192.827 284.543 193.697 285.56L180.249 285.585C184.061 284.42 187.874 283.256 191.699 282.091ZM193.758 287.853L190.363 292.094C188.892 290.893 187.629 289.459 186.599 287.865C188.99 287.865 191.38 287.853 193.758 287.853ZM210.419 287.853L217.149 287.865C216.181 289.373 214.991 290.721 213.643 291.886C212.564 290.538 211.485 289.189 210.419 287.853ZM219.785 287.865L222.629 287.877C221.219 290.893 219.184 293.541 216.671 295.662L215.065 293.664C216.977 292.045 218.583 290.072 219.785 287.865ZM183.951 287.865C185.214 290.182 186.918 292.217 188.941 293.872L187.322 295.883C184.699 293.725 182.568 290.991 181.113 287.877L183.951 287.865ZM206.287 288.368L202.046 301.51V289.312C203.566 289.189 205.098 288.895 206.287 288.368ZM208.457 289.079L211.804 293.259C210.149 294.338 208.31 295.159 206.336 295.662C207.047 293.467 207.758 291.273 208.457 289.079ZM195.646 289.165L197.767 295.748C195.769 295.282 193.906 294.497 192.226 293.443C193.366 292.009 194.506 290.587 195.646 289.165ZM213.238 295.037L214.857 297.059C211.878 299.107 208.408 300.467 204.645 300.921L205.527 298.175C208.396 297.452 211.13 296.434 213.238 295.037ZM190.792 295.233C193.096 296.728 195.744 297.77 198.564 298.236L199.447 300.958C195.671 300.566 192.165 299.254 189.174 297.256L190.792 295.233Z" fill="#00DEFF"/>
</svg>
