<svg width="184" height="243" viewBox="0 0 184 243" fill="none" xmlns="http://www.w3.org/2000/svg">
<path d="M26 2H40.1176H57.0588L61.2941 6.21515H122.706L126.941 2H155.882L162.941 9.02526H174.235L182 16.753V225.557L170.706 236.797H162.941L158.706 241.012H126.941L122.706 236.797H61.2941L57.0588 241.012H27.4118L21.0588 234.69H11.1765L2 225.557V16.753L9.76471 9.02526H18.9412L26 2Z" fill="black" stroke="#232323" stroke-width="3"/>
<mask id="path-2-inside-1_69:189" fill="white">
<path fill-rule="evenodd" clip-rule="evenodd" d="M109 224.215L92.1196 68.916L75.2393 224.215L92.1194 208.179L108.999 224.215H109Z"/>
</mask>
<path d="M92.1196 68.916L97.0903 68.3757L87.1489 68.3757L92.1196 68.916ZM109 224.215V229.215H114.573L113.971 223.675L109 224.215ZM75.2393 224.215L70.2685 223.675L68.7947 237.234L78.683 227.84L75.2393 224.215ZM92.1194 208.179L95.5632 204.554L92.1194 201.283L88.6757 204.554L92.1194 208.179ZM108.999 224.215L105.556 227.84L107.003 229.215H108.999V224.215ZM87.1489 69.4563L104.029 224.756L113.971 223.675L97.0903 68.3757L87.1489 69.4563ZM80.21 224.756L97.0903 69.4563L87.1489 68.3757L70.2685 223.675L80.21 224.756ZM78.683 227.84L95.5631 211.804L88.6757 204.554L71.7955 220.59L78.683 227.84ZM88.6757 211.804L105.556 227.84L112.443 220.59L95.5632 204.554L88.6757 211.804ZM109 219.215H108.999V229.215H109V219.215Z" fill="#0F0E08" mask="url(#path-2-inside-1_69:189)"/>
<mask id="path-4-inside-2_69:189" fill="white">
<path fill-rule="evenodd" clip-rule="evenodd" d="M75.2398 20.8081L92.1201 176.107L109.001 20.8081L92.1204 36.8442L75.2403 20.8081L75.2398 20.8081Z"/>
</mask>
<path d="M92.1201 176.107L87.1494 176.648L97.0908 176.648L92.1201 176.107ZM75.2398 20.8081L75.2398 15.8081L69.6669 15.8081L70.2691 21.3484L75.2398 20.8081ZM109.001 20.8081L113.971 21.3484L115.445 7.78929L105.557 17.1831L109.001 20.8081ZM92.1204 36.8442L88.6766 40.4692L92.1204 43.7407L95.5641 40.4692L92.1204 36.8442ZM75.2403 20.8081L78.6841 17.1831L77.2367 15.8081L75.2403 15.8081L75.2403 20.8081ZM97.0908 175.567L80.2105 20.2678L70.2691 21.3484L87.1494 176.648L97.0908 175.567ZM104.03 20.2678L87.1494 175.567L97.0908 176.648L113.971 21.3484L104.03 20.2678ZM105.557 17.1831L88.6766 33.2192L95.5641 40.4692L112.444 24.4331L105.557 17.1831ZM95.5641 33.2192L78.6841 17.1831L71.7966 24.4331L88.6766 40.4692L95.5641 33.2192ZM75.2398 25.8081L75.2403 25.8081L75.2403 15.8081L75.2398 15.8081L75.2398 25.8081Z" fill="#0F0E08" mask="url(#path-4-inside-2_69:189)"/>
<mask id="path-6-inside-3_69:189" fill="white">
<path fill-rule="evenodd" clip-rule="evenodd" d="M3.00064 137.367L139.665 122.512L3.00064 107.657L17.1124 122.512L3.00064 137.366L3.00064 137.367Z"/>
</mask>
<path d="M139.665 122.512L140.205 127.483L140.205 117.541L139.665 122.512ZM3.00064 137.367L-1.99936 137.367L-1.99936 142.94L3.54094 142.337L3.00064 137.367ZM3.00064 107.657L3.54094 102.686L-10.0181 101.213L-0.624375 111.101L3.00064 107.657ZM17.1124 122.512L20.7374 125.956L24.009 122.512L20.7374 119.068L17.1124 122.512ZM3.00064 137.366L-0.62436 133.923L-1.99936 135.37L-1.99936 137.366L3.00064 137.366ZM139.124 117.541L2.46034 132.396L3.54094 142.337L140.205 127.483L139.124 117.541ZM2.46034 112.628L139.124 127.483L140.205 117.541L3.54094 102.686L2.46034 112.628ZM-0.624375 111.101L13.4874 125.956L20.7374 119.068L6.62566 104.213L-0.624375 111.101ZM13.4874 119.068L-0.62436 133.923L6.62564 140.81L20.7374 125.956L13.4874 119.068ZM8.00064 137.367L8.00064 137.366L-1.99936 137.366L-1.99936 137.367L8.00064 137.367Z" fill="#0F0E08" mask="url(#path-6-inside-3_69:189)"/>
<mask id="path-8-inside-4_69:189" fill="white">
<path fill-rule="evenodd" clip-rule="evenodd" d="M182 107.658L45.3359 122.512L182 137.367L167.888 122.513L182 107.658L182 107.658Z"/>
</mask>
<path d="M45.3359 122.512L44.7956 117.542L44.7956 127.483L45.3359 122.512ZM182 107.658L187 107.658L187 102.085L181.46 102.687L182 107.658ZM182 137.367L181.46 142.338L195.019 143.812L185.625 133.923L182 137.367ZM167.888 122.513L164.263 119.069L160.992 122.513L164.263 125.956L167.888 122.513ZM182 107.658L185.625 111.102L187 109.654L187 107.658L182 107.658ZM45.8762 127.483L182.54 112.628L181.46 102.687L44.7956 117.542L45.8762 127.483ZM182.54 132.396L45.8762 117.542L44.7956 127.483L181.46 142.338L182.54 132.396ZM185.625 133.923L171.513 119.069L164.263 125.956L178.375 140.811L185.625 133.923ZM171.513 125.956L185.625 111.102L178.375 104.214L164.263 119.069L171.513 125.956ZM177 107.658L177 107.658L187 107.658L187 107.658L177 107.658Z" fill="#0F0E08" mask="url(#path-8-inside-4_69:189)"/>
<mask id="path-10-inside-5_69:189" fill="white">
<path fill-rule="evenodd" clip-rule="evenodd" d="M168.835 177.524L57.8301 88.2851L147.069 199.29L147.07 199.29L168.836 177.525L168.835 177.524L147.069 199.29L147.614 178.068L168.835 177.524Z"/>
</mask>
<path d="M57.8301 88.2851L60.9629 84.3882L53.9333 91.4179L57.8301 88.2851ZM168.835 177.524L168.963 182.523L182.598 182.173L171.968 173.627L168.835 177.524ZM147.07 199.29L142.728 201.77L145.975 207.456L150.605 202.826L147.07 199.29ZM168.836 177.525L172.371 181.06L176.314 177.117L171.966 173.626L168.836 177.525ZM168.835 177.524L171.965 173.625L168.469 170.819L165.3 173.989L168.835 177.524ZM147.614 178.068L147.485 173.07L142.737 173.192L142.615 177.94L147.614 178.068ZM54.6974 92.182L165.702 181.421L171.968 173.627L60.9629 84.3882L54.6974 92.182ZM150.966 196.157L61.727 85.1523L53.9333 91.4179L143.173 202.423L150.966 196.157ZM151.412 196.811L151.411 196.81L142.728 201.77L142.728 201.77L151.412 196.811ZM165.3 173.989L143.534 195.755L150.605 202.826L172.371 181.06L165.3 173.989ZM165.705 181.423L165.705 181.424L171.966 173.626L171.965 173.625L165.705 181.423ZM165.3 173.989L143.534 195.754L150.605 202.825L172.371 181.06L165.3 173.989ZM152.068 199.418L152.612 178.196L142.615 177.94L142.071 199.162L152.068 199.418ZM147.742 183.067L168.963 182.523L168.707 172.526L147.485 173.07L147.742 183.067Z" fill="#0F0E08" mask="url(#path-10-inside-5_69:189)"/>
<mask id="path-12-inside-6_69:189" fill="white">
<path fill-rule="evenodd" clip-rule="evenodd" d="M15.9312 68.1521L126.936 157.391L37.6967 46.3863L37.6963 46.3858L15.9306 68.1515L15.9311 68.1519L37.6967 46.3863L37.1525 67.6079L15.9312 68.1521Z"/>
</mask>
<path d="M126.936 157.391L123.803 161.288L130.833 154.258L126.936 157.391ZM15.9312 68.1521L15.8031 63.1537L2.16852 63.5033L12.7985 72.0489L15.9312 68.1521ZM37.6963 46.3858L41.8691 43.6311L38.4934 38.5176L34.1608 42.8502L37.6963 46.3858ZM15.9306 68.1515L12.395 64.616L8.45023 68.5608L12.8019 72.0517L15.9306 68.1515ZM15.9311 68.1519L12.8024 72.0521L16.2979 74.8562L19.4666 71.6875L15.9311 68.1519ZM37.1525 67.6079L37.2807 72.6063L42.0291 72.4845L42.1509 67.7361L37.1525 67.6079ZM130.069 153.494L19.064 64.2552L12.7985 72.0489L123.803 161.288L130.069 153.494ZM33.7998 49.5191L123.039 160.524L130.833 154.258L41.5936 43.2535L33.7998 49.5191ZM33.5236 49.1404L33.5239 49.1409L41.8695 43.6317L41.8691 43.6311L33.5236 49.1404ZM19.4661 71.6871L41.2319 49.9213L34.1608 42.8502L12.395 64.616L19.4661 71.6871ZM19.0598 64.2518L19.0593 64.2514L12.8019 72.0517L12.8024 72.0521L19.0598 64.2518ZM19.4666 71.6875L41.2322 49.9218L34.1612 42.8508L12.3955 64.6164L19.4666 71.6875ZM32.6983 46.2581L32.1542 67.4798L42.1509 67.7361L42.6951 46.5145L32.6983 46.2581ZM37.0244 62.6096L15.8031 63.1537L16.0594 73.1504L37.2807 72.6063L37.0244 62.6096Z" fill="#0F0E08" mask="url(#path-12-inside-6_69:189)"/>
<mask id="path-14-inside-7_69:189" fill="white">
<path fill-rule="evenodd" clip-rule="evenodd" d="M147.069 46.001L57.8295 157.006L168.835 67.7662L147.069 46.0004L147.069 46.0006L168.834 67.766L147.613 67.2219L147.069 46.001Z"/>
</mask>
<path d="M57.8295 157.006L53.9326 153.873L60.9623 160.903L57.8295 157.006ZM147.069 46.001L152.067 45.8728L151.717 32.2383L143.172 42.8682L147.069 46.001ZM168.835 67.7662L171.968 71.663L176.311 68.1713L172.37 64.2306L168.835 67.7662ZM147.069 46.0004L150.605 42.4649L146.655 38.5147L143.165 42.8769L147.069 46.0004ZM147.069 46.0006L143.165 42.8771L140.369 46.3717L143.533 49.5361L147.069 46.0006ZM168.834 67.766L168.706 72.7644L181.225 73.0854L172.37 64.2305L168.834 67.766ZM147.613 67.2219L142.614 67.3501L142.736 72.0985L147.485 72.2203L147.613 67.2219ZM61.7264 160.139L150.966 49.1338L143.172 42.8682L53.9326 153.873L61.7264 160.139ZM165.702 63.8693L54.6967 153.109L60.9623 160.903L171.968 71.663L165.702 63.8693ZM143.534 49.5359L165.299 71.3017L172.37 64.2306L150.605 42.4649L143.534 49.5359ZM150.973 49.1241L150.973 49.1239L143.165 42.8769L143.165 42.8771L150.973 49.1241ZM143.533 49.5361L165.299 71.3016L172.37 64.2305L150.605 42.4651L143.533 49.5361ZM168.963 62.7677L147.741 62.2235L147.485 72.2203L168.706 72.7644L168.963 62.7677ZM152.611 67.0937L152.067 45.8728L142.07 46.1292L142.614 67.3501L152.611 67.0937Z" fill="#0F0E08" mask="url(#path-14-inside-7_69:189)"/>
<mask id="path-16-inside-8_69:189" fill="white">
<path fill-rule="evenodd" clip-rule="evenodd" d="M37.6966 198.905L126.936 87.9L15.9311 177.139L37.1524 177.683L37.6966 198.905ZM37.6966 198.905L15.9309 177.139L15.9307 177.14L37.6965 198.905L37.6966 198.905Z"/>
</mask>
<path d="M126.936 87.9L130.833 91.0328L123.803 84.0031L126.936 87.9ZM15.9311 177.139L12.7983 173.242L2.16839 181.788L15.8029 182.138L15.9311 177.139ZM37.1524 177.683L42.1508 177.555L42.029 172.807L37.2806 172.685L37.1524 177.683ZM15.9309 177.139L19.4665 173.604L16.2944 170.432L12.7982 173.243L15.9309 177.139ZM15.9307 177.14L12.7979 173.243L8.45451 176.734L12.3952 180.675L15.9307 177.14ZM37.6965 198.905L34.1609 202.441L40.1405 208.42L42.4982 200.299L37.6965 198.905ZM123.039 84.7672L33.7997 195.772L41.5934 202.038L130.833 91.0328L123.039 84.7672ZM19.0639 181.036L130.069 91.7969L123.803 84.0031L12.7983 173.242L19.0639 181.036ZM15.8029 182.138L37.0243 182.682L37.2806 172.685L16.0593 172.141L15.8029 182.138ZM32.1541 177.812L32.6982 199.033L42.6949 198.777L42.1508 177.555L32.1541 177.812ZM41.2321 195.369L19.4665 173.604L12.3954 180.675L34.161 202.441L41.2321 195.369ZM19.0635 181.036L19.0637 181.036L12.7982 173.243L12.7979 173.243L19.0635 181.036ZM41.232 195.37L19.4662 173.604L12.3952 180.675L34.1609 202.441L41.232 195.37ZM32.8948 197.511L32.8947 197.511L42.4982 200.299L42.4983 200.299L32.8948 197.511Z" fill="#0F0E08" mask="url(#path-16-inside-8_69:189)"/>
<circle cx="92" cy="122" r="52" fill="black" stroke="#221F12" stroke-width="6"/>
<path d="M35.6022 68.0255C36.1619 68.2297 37.356 68.5269 38.3821 69.1026C42.9905 71.6655 47.5616 74.3026 52.1327 76.9212C60.1741 81.5455 68.2155 86.1698 76.2756 90.7755C76.6674 90.9983 77.3204 91.0726 77.7122 90.9055C80.8093 89.494 84.0557 88.584 87.4141 88.0269C88.2537 87.8969 89.0933 87.5626 89.8396 87.1726C91.9292 86.0955 93.9442 86.0026 96.0525 87.1169C96.8735 87.5626 97.8063 87.9155 98.7392 88.0455C102.023 88.5469 105.157 89.494 108.161 90.9055C108.702 91.1655 109.094 91.1098 109.617 90.8126C119.225 85.2969 128.834 79.7812 138.442 74.284C141.596 72.4826 144.73 70.644 147.902 68.8983C150.906 67.2455 154.059 67.914 155.906 70.5697C157.025 72.1855 157.361 73.9497 156.559 75.844C154.618 80.3569 152.697 84.8883 150.756 89.4012C150.551 89.884 150.309 90.3483 150.141 90.8498C149.506 92.6698 148.312 93.9698 146.633 94.8983C145.364 95.604 144.077 96.3098 142.846 97.0898C142.416 97.3683 142.006 97.8326 141.801 98.2969C139.804 102.921 137.845 107.583 135.886 112.225C135.271 113.674 134.189 114.64 132.882 115.42C131.763 116.07 130.625 116.738 129.468 117.314C128.927 117.593 128.722 117.945 128.871 118.484C129.039 119.078 129.188 119.691 129.487 120.211C130.886 122.551 130.979 124.835 129.45 127.194C129.058 127.807 128.927 128.624 128.796 129.385C126.912 140.38 121.11 148.737 111.65 154.587C107.527 157.131 103.012 158.784 98.1422 159.341C97.5451 159.415 96.9668 159.713 96.4257 160.01C94.1681 161.273 92.0038 161.347 89.6157 160.121C88.1791 159.378 86.4439 159.193 84.8207 158.821C78.4585 157.391 72.9359 154.401 68.1782 150C62.8608 145.078 59.3718 139.098 57.6927 132.078C57.5434 131.41 57.3941 130.76 57.2822 130.073C57.077 128.754 56.6852 127.528 56.0135 126.34C55.006 124.557 55.1179 122.663 56.0881 120.843C56.2934 120.453 56.5359 120.1 56.7225 119.71C57.3568 118.317 57.1703 117.815 55.8642 117.054C50.8454 114.101 51.0692 114.807 48.7557 109.254C47.1885 105.484 45.6026 101.733 43.998 97.9812C43.8861 97.7026 43.6062 97.4426 43.345 97.2755C41.9084 96.4026 40.4718 95.5483 38.9978 94.7312C37.7105 94.0069 36.7403 93.004 36.1619 91.6298C33.923 86.374 31.5908 81.0998 29.4079 75.7883C27.8779 72.0369 30.8072 68.044 35.6022 68.0255Z" fill="black"/>
<path d="M35.6022 68.0255C36.1619 68.2297 37.356 68.5269 38.3821 69.1026C42.9905 71.6655 47.5616 74.3026 52.1327 76.9212C60.1741 81.5455 68.2155 86.1698 76.2756 90.7755C76.6674 90.9983 77.3204 91.0726 77.7122 90.9055C80.8093 89.494 84.0557 88.584 87.4141 88.0269C88.2537 87.8969 89.0933 87.5626 89.8396 87.1726C91.9292 86.0955 93.9442 86.0026 96.0525 87.1169C96.8735 87.5626 97.8063 87.9155 98.7392 88.0455C102.023 88.5469 105.157 89.494 108.161 90.9055C108.702 91.1655 109.094 91.1098 109.617 90.8126C119.225 85.2969 128.834 79.7812 138.442 74.284C141.596 72.4826 144.73 70.644 147.902 68.8983C150.906 67.2455 154.059 67.914 155.906 70.5697C157.025 72.1855 157.361 73.9497 156.559 75.844C154.618 80.3569 152.697 84.8883 150.756 89.4012C150.551 89.884 150.309 90.3483 150.141 90.8498C149.506 92.6698 148.312 93.9698 146.633 94.8983C145.364 95.604 144.077 96.3098 142.846 97.0898C142.416 97.3683 142.006 97.8326 141.801 98.2969C139.804 102.921 137.845 107.583 135.886 112.225C135.271 113.674 134.189 114.64 132.882 115.42C131.763 116.07 130.625 116.738 129.468 117.314C128.927 117.593 128.722 117.945 128.871 118.484C129.039 119.078 129.188 119.691 129.487 120.211C130.886 122.551 130.979 124.835 129.45 127.194C129.058 127.807 128.927 128.624 128.796 129.385C126.912 140.38 121.11 148.737 111.65 154.587C107.527 157.131 103.012 158.784 98.1422 159.341C97.5451 159.415 96.9668 159.713 96.4257 160.01C94.1681 161.273 92.0038 161.347 89.6157 160.121C88.1791 159.378 86.4439 159.193 84.8207 158.821C78.4585 157.391 72.9359 154.401 68.1782 150C62.8608 145.078 59.3718 139.098 57.6927 132.078C57.5434 131.41 57.3941 130.76 57.2822 130.073C57.077 128.754 56.6852 127.528 56.0135 126.34C55.006 124.557 55.1179 122.663 56.0881 120.843C56.2934 120.453 56.5359 120.1 56.7225 119.71C57.3568 118.317 57.1703 117.815 55.8642 117.054C50.8454 114.101 51.0692 114.807 48.7557 109.254C47.1885 105.484 45.6026 101.733 43.998 97.9812C43.8861 97.7026 43.6062 97.4426 43.345 97.2755C41.9084 96.4026 40.4718 95.5483 38.9978 94.7312C37.7105 94.0069 36.7403 93.004 36.1619 91.6298C33.923 86.374 31.5908 81.0998 29.4079 75.7883C27.8779 72.0369 30.8072 68.044 35.6022 68.0255ZM98.7765 112.727C96.8921 105.893 95.045 99.2069 93.2166 92.5398C93.086 92.5398 92.9554 92.5398 92.8061 92.5583C90.959 99.2255 89.0933 105.911 87.2089 112.69C83.1788 110.368 79.2421 108.121 75.2867 105.855C75.2121 105.948 75.1561 106.023 75.0815 106.115C77.3577 110.015 79.6339 113.934 81.9661 117.927C75.0628 119.821 68.2901 121.678 61.5361 123.517C61.5361 123.61 61.5361 123.703 61.5361 123.795C68.3275 125.671 75.1001 127.528 81.9848 129.423C79.6526 133.415 77.395 137.297 75.1375 141.16C75.2307 141.234 75.324 141.308 75.3987 141.383C79.2981 139.154 83.1975 136.907 87.1902 134.623C89.0746 141.457 90.9217 148.143 92.7688 154.828C92.8994 154.81 93.0114 154.81 93.142 154.791C95.0077 148.087 96.8735 141.383 98.7579 134.623C102.751 136.925 106.669 139.191 110.568 141.438C110.643 141.345 110.717 141.253 110.792 141.16C108.534 137.278 106.277 133.378 103.982 129.423C110.867 127.547 117.658 125.69 124.431 123.833C124.412 123.74 124.393 123.628 124.393 123.535C117.621 121.66 110.848 119.803 104.019 117.908C106.333 113.934 108.59 110.034 110.867 106.134C110.773 106.06 110.68 105.967 110.587 105.893C106.687 108.158 102.788 110.405 98.7765 112.727ZM35.229 73.9869C35.173 74.0612 35.1171 74.1355 35.0798 74.2097C35.1171 74.3212 35.1357 74.4512 35.173 74.5626C37.244 79.3912 39.315 84.2198 41.4047 89.0298C41.5539 89.3826 41.9457 89.7169 42.2816 89.9212C52.3006 95.7155 62.3197 101.491 72.3388 107.248C72.7679 107.49 73.2344 107.675 73.6822 107.88C73.7195 107.824 73.7755 107.75 73.8128 107.694C72.5441 105.465 71.2753 103.218 69.988 100.99C70.0439 100.934 70.0999 100.897 70.1559 100.841C75.436 103.887 80.6974 106.914 86.0708 110.015C86.5932 108.103 87.0783 106.32 87.526 104.537C87.582 104.314 87.3581 103.905 87.1342 103.775C86.276 103.218 85.3804 102.735 84.4849 102.215C68.7566 93.1712 53.0096 84.1455 37.2813 75.1198C36.6283 74.7112 35.9193 74.3583 35.229 73.9869ZM99.9146 109.96C105.307 106.84 110.549 103.813 115.811 100.785C115.867 100.86 115.923 100.915 115.997 100.99C114.71 103.237 113.423 105.465 112.135 107.713C112.21 107.768 112.285 107.843 112.378 107.898C113.143 107.453 113.926 107.007 114.691 106.561C124.337 101.045 133.965 95.5298 143.592 89.9769C144.058 89.6983 144.525 89.2155 144.73 88.7326C146.745 84.1455 148.704 79.5212 150.682 74.9155C150.794 74.6555 150.85 74.3769 150.924 74.0983C150.85 74.0426 150.794 73.9869 150.719 73.9312C133.237 83.9598 115.774 94.0069 98.2728 104.054C98.8325 106.041 99.3549 107.935 99.9146 109.96ZM106.743 116.794C109.113 117.444 111.352 118.038 113.572 118.688C114.449 118.948 115.158 118.8 115.96 118.354C120.513 115.754 125.102 113.228 129.673 110.628C130.121 110.368 130.532 109.904 130.737 109.421C132.528 105.335 134.263 101.25 136.017 97.1455C136.054 97.0526 136.054 96.9412 136.073 96.7369C135.83 96.8483 135.7 96.9226 135.569 96.9969C127.397 101.565 119.207 106.134 111.035 110.721C110.605 110.963 110.083 111.204 109.84 111.594C108.777 113.265 107.807 114.974 106.743 116.794ZM49.9498 96.7183C49.9685 97.0526 49.9498 97.1269 49.9871 97.164C51.7596 101.343 53.5507 105.521 55.3418 109.7C55.4724 109.978 55.7336 110.257 56.0135 110.424C60.7525 113.117 65.5102 115.81 70.2678 118.465C70.697 118.707 71.3127 118.93 71.7604 118.818C74.2419 118.205 76.7047 117.5 79.2421 116.794C78.2719 115.178 77.4137 113.655 76.4621 112.17C76.1263 111.65 75.6412 111.167 75.1001 110.851C68.3648 107.025 61.6107 103.237 54.8567 99.4298C53.2708 98.5569 51.6663 97.684 49.9498 96.7183ZM94.9517 153.937C95.1756 153.937 95.3249 153.955 95.4741 153.937C100.586 153.528 105.307 151.894 109.579 149.127C111.053 148.18 112.378 146.991 113.759 145.877C114.281 145.45 114.188 145.097 113.609 144.744C112.9 144.317 112.359 144.428 111.762 144.948C107.49 148.718 102.489 150.947 96.8362 151.745C95.2689 151.968 95.2316 152.043 94.9517 153.937ZM90.4366 153.974C90.5486 153.863 90.8844 153.677 90.9217 153.435C91.0523 152.637 90.5299 152.024 89.7276 151.894C85.1752 151.207 80.8653 149.851 77.0592 147.158C75.977 146.397 74.9136 145.58 73.8874 144.744C73.1598 144.15 72.5814 144.521 72.0776 144.985C71.4619 145.561 72.2082 145.858 72.4881 146.137C74.6524 148.217 77.1898 149.758 79.8765 151.077C83.1415 152.674 86.6305 153.51 90.4366 153.974ZM71.4246 145.041C71.5925 144.094 72.7866 143.611 71.7604 142.497C68.1968 138.653 66.0512 134.084 65.0437 128.977C64.8945 128.215 64.8198 127.454 64.6892 126.693C64.596 126.098 63.6071 125.448 63.066 125.745C62.8048 125.875 62.6742 126.507 62.7115 126.897C62.9727 129.497 63.5325 132.004 64.484 134.455C66.0326 138.393 68.2528 141.865 71.4246 145.041ZM123.404 125.801C121.781 125.727 121.445 125.968 121.259 127.287C120.438 133.044 118.162 138.133 114.3 142.497C113.665 143.203 113.703 143.945 114.393 144.484C115.176 145.097 115.438 144.224 115.755 143.871C119.356 139.804 121.725 135.105 122.863 129.794C123.125 128.475 123.218 127.138 123.404 125.801ZM78.4398 97.1455C79.3354 97.5726 80.0444 98.5383 81.1638 98.0369C83.9811 96.774 86.9477 96.0126 89.9888 95.5669C90.25 95.5298 90.5672 95.2512 90.6792 94.9912C90.8844 94.5269 90.9777 94.0255 91.1456 93.3755C86.5372 93.7283 82.3393 94.8798 78.4398 97.1455ZM107.546 97.1083C106.034 96.0312 102.023 94.5269 99.2803 93.9883C98.1235 93.7655 96.9481 93.6169 95.7913 93.4869C95.1943 93.4126 94.9704 93.654 95.0823 94.304C95.2316 95.1769 95.6794 95.5112 96.5376 95.7155C99.0377 96.3098 101.594 96.8298 103.963 97.7583C105.437 98.334 106.389 97.9255 107.546 97.1083ZM63.3272 116.293C63.1033 117.853 62.8608 119.357 62.6369 120.88C62.5623 121.4 62.7115 121.678 63.3646 121.585C64.2601 121.455 64.7639 121.103 64.7266 120.137C64.7079 119.691 64.8572 119.227 64.9318 118.781C65.2303 116.98 65.2303 116.98 63.5138 116.274C63.4952 116.255 63.4578 116.274 63.3272 116.293ZM123.386 121.511C123.143 119.951 122.919 118.391 122.639 116.831C122.621 116.683 122.21 116.46 122.024 116.497C121.184 116.645 120.792 117.203 120.886 118.057C120.979 118.781 121.072 119.524 121.203 120.248C121.427 121.381 121.968 121.734 123.386 121.511Z" fill="#3B3620"/>
</svg>
