<svg width="24" height="24" viewBox="0 0 24 24" fill="none" xmlns="http://www.w3.org/2000/svg">
<path d="M24 5.07445e-05L15.6464 0.0635163C14.8613 1.48433 13.9246 2.7377 12.8964 3.91207C13.2017 3.98807 13.5094 4.06413 13.8117 4.14039L14.5068 4.31571L14.0738 4.8871C11.5141 8.26362 11.8077 12.1012 12.6847 15.7369L11.7621 15.9594C10.9072 12.4146 10.5675 8.43533 12.9116 4.89406C8.44008 3.78229 3.58877 2.68881 0.0471928 0.356016C-0.0426744 0.604293 -0.00408736 0.873235 0.16204 1.23083C0.285265 1.49596 0.492873 1.79151 0.778417 2.0999C3.47758 4.0261 7.40209 5.44814 10.4139 5.91636L10.2682 6.85397C7.12792 6.36575 3.17823 4.95524 0.314967 2.93297C0.345938 3.23522 0.447483 3.56219 0.63925 3.91593C0.990494 4.56368 1.61789 5.26089 2.45183 5.89133C2.49447 5.92357 2.53799 5.95555 2.58165 5.98744C4.74227 7.13881 7.33882 7.9632 9.72721 8.12821L9.66187 9.07481C6.55728 8.86045 3.24779 7.64201 0.742572 5.99064C0.794868 6.24054 0.907735 6.51852 1.09214 6.82229C1.46618 7.43867 2.11155 8.11618 2.93163 8.73514C4.92515 9.64082 7.07486 10.4075 9.46197 10.587L9.39089 11.5332C6.54241 11.319 4.05304 10.3277 1.82057 9.26323C2.00843 10.2595 2.69817 11.0098 3.79694 11.6396C5.15855 12.4202 7.11035 12.9305 9.16978 13.2302L9.54839 13.2854L9.57479 13.667C9.62932 14.4545 9.80672 14.8263 10.0694 15.2751L9.25046 15.7543C9.00015 15.3265 8.77898 14.8175 8.67713 14.1074C7.03698 13.8491 5.45806 13.4669 4.13986 12.8754C3.81288 13.2689 3.49078 13.6746 3.17549 14.0956C4.01399 15.3019 4.72912 16.2807 5.85525 17.4355L7.23093 16.9548L7.7053 16.7898L7.8433 17.2736C8.60824 19.9672 10.8675 22.0241 13.6108 23.0522C16.0481 23.9656 18.8405 24.049 21.2299 23.0824C17.7432 21.1744 15.4105 16.8014 14.3359 12.9342L14.2788 12.7232L14.3994 12.5423C16.6014 9.24866 20.5272 6.48648 24 5.22174V0V5.07445e-05Z" fill="#20CA8D"/>
</svg>
