<svg width="24" height="24" viewBox="0 0 24 24" fill="none" xmlns="http://www.w3.org/2000/svg">
<path d="M11.3701 0C7.25525 0 -0.328883 7.88441 2.69405 15.2042C3.09846 16.4831 4.10088 17.7519 5.17762 19.1016C6.41105 20.6485 7.78604 22.2964 8.65045 24H9.68675C8.77178 21.9881 7.23503 20.1632 5.91566 18.5102C4.53056 16.7763 3.45232 15.2143 3.45232 14.0668C3.45737 13.6068 3.56504 13.1518 3.73186 12.7373C4.89453 9.63346 9.49465 6.68635 11.2387 5.91293L11.4206 5.81183L11.6178 5.87754C14.6963 6.93405 18.154 9.24928 19.4026 12.7373C19.6099 13.3287 19.7009 13.6472 19.6857 14.1173C19.6604 14.916 18.4472 16.8824 16.9054 18.6012C15.4344 20.239 13.751 22.0235 12.8613 23.9949H13.8976C14.7469 22.3672 16.2331 20.7597 17.603 19.2331C18.7758 17.939 19.8929 16.7055 20.3782 15.4519C23.0524 9.18356 15.3636 0 11.3701 0ZM11.4105 6.84812C9.45421 7.93496 7.10865 9.48687 5.6629 11.3067C6.15324 15.5024 8.6454 18.6922 11.6431 18.6922C14.6357 18.6922 17.1177 15.5226 17.6182 11.3471C16.1572 9.21895 13.6752 7.66198 11.4105 6.84812ZM8.46342 11.0438H8.58474C9.24695 11.0489 9.90411 11.1803 10.5613 11.4179C9.71202 13.4703 7.57878 13.541 6.61326 11.4179C7.22998 11.1753 7.8467 11.0539 8.46342 11.0438ZM14.7772 11.0438C15.4344 11.0388 16.0915 11.1601 16.7537 11.4179C15.7832 13.541 13.655 13.4703 12.8007 11.4179C13.4629 11.1803 14.1201 11.0489 14.7772 11.0438Z" fill="#926FF8"/>
</svg>
