<svg width="24" height="24" viewBox="0 0 24 24" fill="none" xmlns="http://www.w3.org/2000/svg">
<path fill-rule="evenodd" clip-rule="evenodd" d="M10.4244 10.5065C10.8189 10.7342 11.379 10.8648 11.9612 10.8648C12.5435 10.8648 13.1036 10.7342 13.4981 10.5063L20.6076 6.4018C20.9137 6.22509 21.0895 6.01089 21.0895 5.81366C21.0892 5.61695 20.9137 5.40249 20.6076 5.22604L13.4981 1.12096C13.1036 0.893344 12.5435 0.762695 11.9612 0.762695C11.379 0.762695 10.8189 0.893307 10.4244 1.12118L3.31486 5.226C3.00876 5.40245 2.83331 5.61691 2.83305 5.81362C2.83305 6.01085 3.00876 6.22505 3.31486 6.40176L10.4244 10.5065ZM10.338 22.8641C10.535 22.9777 10.7213 23.0377 10.8768 23.0377C11.0143 23.0377 11.1148 22.9927 11.1928 22.8954C11.2984 22.7641 11.3564 22.5441 11.3564 22.2759V14.0665C11.3564 13.1047 10.6525 11.8856 9.81956 11.4046L2.70998 7.30003C2.51275 7.1861 2.32639 7.12584 2.17119 7.12584C1.73825 7.12584 1.69141 7.65878 1.69141 7.88792V16.097C1.69141 17.0591 2.39526 18.2782 3.22847 18.759L10.338 22.8641ZM12.4797 22.2759C12.4797 22.5051 12.5266 23.0377 12.9595 23.0377C13.1147 23.0377 13.3011 22.9777 13.4981 22.8638L20.6076 18.759C21.4408 18.2782 22.1447 17.0591 22.1447 16.097V7.88792C22.1447 7.65878 22.0979 7.12584 21.6649 7.12584C21.5097 7.12584 21.3234 7.1861 21.1261 7.30003L14.0165 11.4043C13.1836 11.8856 12.4797 13.1047 12.4797 14.0665V22.2759ZM10.7514 5.81418C10.7514 6.21218 11.3056 6.54842 11.9614 6.54842C12.6171 6.54842 13.1713 6.21215 13.1713 5.81418C13.1713 5.4162 12.6171 5.07971 11.9614 5.07971C11.3056 5.07971 10.7514 5.41617 10.7514 5.81418ZM2.488 16.2922C2.488 16.8758 2.82423 17.3688 3.22224 17.3688C3.62025 17.3688 3.95648 16.8758 3.95648 16.2922C3.95648 15.7086 3.62025 15.2153 3.22224 15.2153C2.82423 15.2153 2.488 15.7086 2.488 16.2922ZM19.707 16.2922C19.707 16.8758 20.0432 17.3688 20.4413 17.3688C20.8392 17.3688 21.1755 16.8758 21.1755 16.2922C21.1755 15.7086 20.8393 15.2153 20.4413 15.2153C20.0432 15.2153 19.707 15.7086 19.707 16.2922ZM2.488 10.1024C2.488 10.6861 2.82423 11.1791 3.22224 11.1791C3.62025 11.1791 3.95648 10.6861 3.95648 10.1024C3.95648 9.5188 3.62025 9.02556 3.22224 9.02556C2.82423 9.02556 2.488 9.51884 2.488 10.1024ZM8.59151 14.0884C8.59151 14.6721 8.92774 15.1653 9.32575 15.1653C9.72375 15.1653 10.0602 14.6721 10.0602 14.0884C10.0602 13.5048 9.72375 13.0116 9.32575 13.0116C8.92774 13.0116 8.59151 13.5048 8.59151 14.0884ZM13.7983 14.0884C13.7983 14.6721 14.1345 15.1653 14.5325 15.1653C14.9305 15.1653 15.267 14.6721 15.267 14.0884C15.267 13.5048 14.9305 13.0116 14.5325 13.0116C14.1345 13.0116 13.7983 13.5048 13.7983 14.0884ZM8.59151 19.8029C8.59151 20.3865 8.92774 20.8798 9.32575 20.8798C9.72375 20.8798 10.0602 20.3865 10.0602 19.8029C10.0602 19.2193 9.72375 18.726 9.32575 18.726C8.92774 18.726 8.59151 19.2193 8.59151 19.8029Z" fill="#FF9533"/>
</svg>
