<svg width="64" height="64" viewBox="0 0 64 64" fill="none" xmlns="http://www.w3.org/2000/svg">
<path d="M32.1537 4.00038C26.5956 4.03353 21.0472 5.73725 16.3329 9.11367C26.9932 4.61533 39.8381 6.82685 48.5292 15.5181C57.2104 24.2015 59.3604 36.9635 54.8783 47.6182C62.5791 36.8487 61.5996 21.814 51.9148 12.129C46.4658 6.674 39.2997 3.95776 32.1537 4.0005V4.00038ZM54.878 47.6181C54.8728 47.6256 54.8686 47.6332 54.8632 47.6406L54.8671 47.6477C54.8712 47.6382 54.8742 47.6279 54.8782 47.6181H54.878ZM12.803 9.90894C11.1443 9.90894 9.82474 11.2305 9.82474 12.8874C9.82474 14.5464 11.146 15.8659 12.8031 15.8659C14.4622 15.8659 15.7816 14.5446 15.7816 12.8876C15.7816 11.2286 14.4603 9.90906 12.8032 9.90906L12.803 9.90894ZM31.9574 11.6333C26.6961 11.6297 21.4355 13.6342 17.4242 17.6454C9.40028 25.67 9.41331 38.6894 17.4465 46.7229C25.4814 54.7581 38.4979 54.7639 46.5202 46.7413C54.5442 38.7169 54.5348 25.6975 46.5016 17.6639C42.4842 13.6464 37.2188 11.6366 31.9574 11.6333ZM31.4284 14.1603L33.9924 21.486C32.2448 21.1762 30.4343 21.2984 28.7385 21.8597L31.4285 14.1602L31.4284 14.1603ZM9.13271 16.5171C9.1288 16.5268 9.12584 16.537 9.1217 16.5467C9.12691 16.5394 9.13141 16.5318 9.13662 16.5244L9.13283 16.5171H9.13271ZM9.1217 16.5467C1.42086 27.3164 2.40035 42.3511 12.0855 52.036C21.7723 61.734 36.8915 62.769 47.6671 55.0515C37.0065 59.5496 24.1619 57.3381 15.4707 48.6469C6.78953 39.9633 4.63981 27.2013 9.12182 16.5466L9.1217 16.5467ZM18.9154 19.3364L26.4223 22.951C25.7588 23.3689 25.1344 23.8677 24.5576 24.4459L24.554 24.4385C23.8138 25.1785 23.2067 26.0002 22.7299 26.8768L22.608 26.9987L18.9152 19.3364H18.9154ZM43.9746 19.3438L40.8482 25.837C40.5023 25.3485 40.1113 24.8818 39.6754 24.4459C38.9247 23.6952 38.09 23.08 37.2002 22.5996L43.9748 19.3437L43.9746 19.3438ZM32.2275 24.7492C34.0997 24.7504 35.9741 25.4655 37.4038 26.8951C40.2629 29.7544 40.2664 34.3884 37.4109 37.2437C34.5557 40.0991 29.9217 40.0956 27.0625 37.2363C24.2032 34.377 24.2032 29.743 27.0587 26.8878C28.4863 25.4599 30.3551 24.7479 32.2274 24.7492H32.2275ZM21.753 29.0558V29.3889C21.328 31.0977 21.3292 32.8925 21.7568 34.6019V34.6722L13.7281 31.8603L21.753 29.0558ZM42.5354 29.5813L49.1655 31.901L42.6316 34.1839C42.9288 32.6652 42.8936 31.0926 42.5352 29.5813H42.5354ZM22.5783 36.807C23.0774 37.7992 23.7381 38.7292 24.5649 39.5562C25.0719 40.0629 25.6204 40.5067 26.1967 40.8917L18.9338 44.3844L22.5783 36.807ZM40.9704 38.1464L43.9895 44.4105L37.5442 41.3062C38.3316 40.8545 39.0712 40.2932 39.742 39.6228C40.2038 39.1611 40.6122 38.667 40.9704 38.1464ZM28.8753 42.1869C30.508 42.7128 32.2421 42.8458 33.922 42.5792L31.4689 49.5977L28.8754 42.1868L28.8753 42.1869ZM51.9701 49.1575C50.3111 49.1575 48.9917 50.479 48.9917 52.1361C48.9917 53.7948 50.313 55.1145 51.9701 55.1145C53.6291 55.1145 54.9448 53.7932 54.9448 52.1361C54.9448 50.4771 53.6271 49.1576 51.97 49.1576L51.9701 49.1575Z" fill="#FF9533"/>
</svg>
