<svg width="64" height="64" viewBox="0 0 64 64" fill="none" xmlns="http://www.w3.org/2000/svg">
<path d="M32.036 3.55566L31.268 8.6503C26.2435 8.84683 21.2716 10.6943 17.2361 14.1948L7.20402 6.74719L14.647 16.832C11.1953 20.9611 9.43264 26.0236 9.35845 31.1064L3.55566 31.9642L9.39935 32.845C9.69219 37.6275 11.4834 42.3353 14.7753 46.2044L7.20427 56.4625L17.4402 48.8633C21.3928 52.2115 26.2161 53.9976 31.0984 54.2247L32.0356 60.4446L32.9536 54.2352C33.0583 54.2315 33.1632 54.2288 33.268 54.2238C33.1645 54.2191 33.0613 54.2127 32.958 54.2066L34.9471 40.7523C35.805 40.4735 36.6078 40.0735 37.3356 39.5719L42.7633 42.6167L39.7005 37.2177C40.1889 36.5156 40.5818 35.7429 40.8629 34.9182L60.5163 31.964L54.9706 31.1466C54.9043 25.981 53.0964 20.8337 49.542 16.6634L56.8576 6.80947H56.8574L46.9823 14.0977C42.8932 10.5966 37.8591 8.77866 32.7879 8.64108L32.0361 3.55566H32.036ZM34.1985 12.7097C39.5133 12.7097 44.8283 14.7373 48.8833 18.7925C52.3394 22.2486 54.3217 26.62 54.832 31.1265L40.912 29.0745C40.6351 28.2153 40.2373 27.4108 39.7371 26.6813L42.7633 21.3473L37.4539 24.3595C36.6882 23.8141 35.837 23.3814 34.9231 23.0871L33.3914 12.7267C33.6604 12.7164 33.9294 12.7098 34.1984 12.7098L34.1985 12.7097ZM30.6092 13.0217L29.0846 23.136C28.2439 23.4222 27.4577 23.8251 26.7451 24.3263L21.494 21.347L24.4553 26.6259C23.9413 27.3641 23.5315 28.18 23.2478 29.0531L13.6486 30.4723C14.2702 26.1984 16.225 22.0811 19.5136 18.7925C22.652 15.654 26.5454 13.7309 30.6094 13.0217H30.6092ZM13.431 33.4525L23.2969 34.9395C23.5868 35.7827 23.9941 36.5707 24.5002 37.2844L21.4507 42.6597L26.8509 39.5959C27.5283 40.0582 28.2707 40.4316 29.0605 40.7029L31.0658 54.0068C26.8378 53.3654 22.7695 51.4183 19.5137 48.1623C15.4523 44.1011 13.4249 38.7758 13.4312 33.4526L13.431 33.4525Z" fill="#876EE8"/>
</svg>
