<svg width="64" height="64" viewBox="0 0 64 64" fill="none" xmlns="http://www.w3.org/2000/svg">
<path d="M31.8741 4C26.9214 4 22.2997 5.43187 18.4135 7.90333L14.086 4.75026L15.7532 9.83906C10.2158 14.4571 6.68511 21.4203 6.68511 29.1926C6.68511 31.4116 6.97566 33.5692 7.51751 35.6287L3 38.8897L8.62207 38.8774C12.2214 47.4956 20.4608 53.6865 30.2068 54.324L32.0334 60L33.8723 54.2995C43.4713 53.5394 51.5624 47.3853 55.1175 38.8774L61.0877 38.8897L56.2821 35.4203C56.7848 33.4221 57.0545 31.338 57.0545 29.1926C57.0545 21.5429 53.6342 14.69 48.2524 10.0646L49.9932 4.75026L45.5063 8.01856C41.5834 5.47723 36.8881 4 31.8741 4ZM32.9284 6.31331C36.79 6.48862 40.3942 7.61646 43.5203 9.4676L41.3872 11.0282C38.8373 9.67969 35.9687 8.85587 32.9284 8.69895V6.31331ZM30.6359 6.32557V8.71489C27.7427 8.88897 24.9967 9.66988 22.5571 10.9313L20.3995 9.35604C23.5501 7.50858 27.3995 6.52172 30.6359 6.32067V6.32557ZM45.5799 10.8578L41.2156 24.1786C40.5413 23.0018 39.6587 21.9597 38.6044 21.1261C40.9336 17.7058 43.2506 14.2732 45.5799 10.8578ZM18.5729 10.8578L29.6919 18.9685C28.3067 19.2627 27.0194 19.8144 25.8793 20.5744C23.4398 17.338 21.0124 14.0893 18.5729 10.8578ZM32.9284 10.9939C35.1841 11.1226 37.3417 11.6669 39.3032 12.5459L32.9284 17.2032V10.9939ZM30.6359 11.0061V16.8231L24.6534 12.4601C26.5046 11.6546 28.5151 11.1483 30.6359 11.0061ZM16.5256 12.1781L17.3592 14.7391C15.2997 16.8231 13.6814 19.3485 12.6676 22.1559L10.3261 21.4081C11.9701 17.7793 14.037 14.4694 16.5256 12.1781ZM47.48 12.4233C50.079 14.8371 52.1018 17.8529 53.3522 21.2487L51.0229 21.9965C50.0422 19.373 48.5343 16.9947 46.6342 14.9965L47.48 12.4233ZM18.1683 17.2154L20.6201 24.718L14.8461 22.8546C15.6061 20.7706 16.7462 18.8581 18.1683 17.2154ZM45.8128 17.4974C47.1 19.042 48.1298 20.7951 48.8408 22.6953L43.5571 24.3993L45.8128 17.4974ZM31.8741 21.0403C36.5694 21.0403 40.3574 24.8284 40.3574 29.5359C40.3574 34.2312 36.5694 38.0193 31.8741 38.0193C27.1666 38.0193 23.3785 34.2312 23.3785 29.5359C23.3785 24.8284 27.1666 21.0403 31.8741 21.0403ZM54.0387 23.4308C54.5168 25.2697 54.7743 27.1944 54.7743 29.1926C54.7743 30.8231 54.5904 32.4291 54.2716 33.9615L52.0282 32.3433C52.1998 31.289 52.2856 30.1979 52.2856 29.0823C52.2856 27.4028 52.0772 25.7601 51.6972 24.1909C52.4818 23.9335 53.2664 23.6883 54.0387 23.4308ZM9.65919 23.6025L12.0142 24.3503C11.6525 25.8704 11.4601 27.4641 11.4601 29.0823C11.4601 30.2715 11.5606 31.4361 11.7555 32.5639L9.51821 34.1821C9.15492 32.5438 8.97159 30.8708 8.97145 29.1926C9.04991 27.2312 9.25709 25.2329 9.65919 23.6025ZM49.5151 24.8897C49.8338 26.2382 49.9932 27.648 49.9932 29.0823C49.9932 29.6708 49.9687 30.2469 49.9196 30.8109L44.121 26.6305C45.9231 26.0543 47.713 25.4658 49.5151 24.8897ZM14.1963 25.0613L19.6884 26.8266L13.8531 31.0438C13.7795 30.394 13.7427 29.7443 13.7427 29.0823C13.7918 27.6725 13.9266 26.2382 14.1963 25.0613ZM42.5886 28.3468L53.8671 36.4991L42.2208 32.5271C42.6131 31.0438 42.7235 29.7443 42.5886 28.3468ZM21.6989 33.0911C22.1403 34.366 22.8268 35.5429 23.6972 36.5604L10.2489 36.5849C14.0615 35.4203 17.8741 34.2557 21.6989 33.0911ZM23.7585 38.8529L20.3627 43.0946C18.8916 41.8932 17.6289 40.4588 16.5991 38.8652C18.9897 38.8652 21.3802 38.8529 23.7585 38.8529ZM40.4187 38.8529L47.149 38.8652C46.1806 40.373 44.9914 41.7215 43.6429 42.8862C42.5641 41.5377 41.4853 40.1891 40.4187 38.8529ZM49.7848 38.8652L52.6289 38.8774C51.2191 41.8932 49.1841 44.5412 46.6709 46.662L45.065 44.6637C46.9774 43.0455 48.5834 41.0718 49.7848 38.8652ZM13.9511 38.8652C15.2138 41.1821 16.9179 43.2172 18.9406 44.8722L17.3224 46.8827C14.6989 44.725 12.5683 41.9912 11.1131 38.8774L13.9511 38.8652ZM36.2874 39.3678L32.0457 52.5096V40.3117C33.5658 40.1891 35.0983 39.8949 36.2874 39.3678ZM38.4573 40.0788L41.804 44.2592C40.149 45.338 38.3102 46.1594 36.3364 46.662C37.0475 44.4676 37.7585 42.2732 38.4573 40.0788ZM25.6464 40.1646L27.7673 46.7478C25.769 46.282 23.9056 45.4974 22.2261 44.4431C23.3662 43.0088 24.5063 41.5867 25.6464 40.1646ZM43.2384 46.0368L44.8566 48.0595C41.8776 50.1068 38.4082 51.4676 34.6447 51.9212L35.5273 49.1751C38.396 48.4518 41.1298 47.4343 43.2384 46.0368ZM20.7918 46.2329C23.0965 47.7285 25.7445 48.7706 28.5641 49.2364L29.4468 51.958C25.6709 51.5657 22.1648 50.2539 19.1736 48.2557L20.7918 46.2329Z" fill="#00DEFF"/>
</svg>
