<svg width="24" height="24" viewBox="0 0 24 24" fill="none" xmlns="http://www.w3.org/2000/svg">
<path fill-rule="evenodd" clip-rule="evenodd" d="M20.3679 3.69936C20.3824 3.71337 20.3969 3.72755 20.4113 3.7419C21.3475 4.67814 21.5554 6.0657 21.033 7.19619L19.5562 13.3116L22.8697 9.99807L23.9796 11.108L18.5548 16.5328L17.2458 21.4641C16.6182 23.8286 13.6625 24.6131 11.9256 22.8762L1.10337 12.054C-0.63354 10.317 0.150993 7.36138 2.51553 6.73375L7.44677 5.42484L12.8716 0L13.9815 1.10994L10.2003 4.89122L17.2484 2.82316C18.4534 2.50331 19.6082 2.91032 20.3679 3.69936ZM15.8138 5.35902L2.71918 8.66366C2.17352 8.8085 1.61299 9.87006 2.01381 10.2709L6.22398 14.4811L15.8138 5.35902ZM7.51414 15.7712L8.38195 16.639L18.6874 6.33362C18.7075 6.31343 18.726 6.29217 18.7428 6.27003L18.7902 6.09123C18.8564 5.84198 18.7878 5.60205 18.6417 5.42872C18.4008 5.2292 18.044 5.24133 17.8195 5.4658L7.51414 15.7712ZM18.8545 8.3997L9.49856 17.7556L13.4748 21.7319C13.8757 22.1327 15.1121 21.9658 15.346 21.2641L18.8545 8.3997ZM5.64554 23.1938H0.438677L0.438676 17.9869L2.16492 16.2607L7.37179 21.4675L5.64554 23.1938Z" fill="#33FF7A"/>
</svg>
