<svg width="345" height="345" viewBox="0 0 345 345" fill="none" xmlns="http://www.w3.org/2000/svg">
<rect x="0.5" y="0.5" width="344" height="344" fill="black" stroke="#11414E"/>
<path d="M315 10L335 10L335 30.7668" stroke="#00DEFF" stroke-opacity="0.5"/>
<path d="M10 30.7668V10H30" stroke="#00DEFF" stroke-opacity="0.5"/>
<path d="M315 335L335 335L335 314.233" stroke="#00DEFF" stroke-opacity="0.5"/>
<path d="M10 314.233V335H30" stroke="#00DEFF" stroke-opacity="0.5"/>
<path d="M39.5002 19L40.5105 22.1094H43.7799L41.1349 24.0312L42.1452 27.1406L39.5002 25.2188L36.8551 27.1406L37.8654 24.0312L35.2204 22.1094H38.4899L39.5002 19Z" fill="url(#paint0_radial)"/>
<path d="M43.5002 145L44.5105 148.109H47.7799L45.1349 150.031L46.1452 153.141L43.5002 151.219L40.8551 153.141L41.8654 150.031L39.2204 148.109H42.4899L43.5002 145Z" fill="url(#paint1_radial)"/>
<path d="M85.5002 136L86.286 138.418H88.8289L86.7716 139.913L87.5574 142.332L85.5002 140.837L83.4429 142.332L84.2287 139.913L82.1715 138.418H84.7144L85.5002 136Z" fill="url(#paint2_radial)"/>
<path d="M195.5 69L196.286 71.4184H198.829L196.772 72.9131L197.557 75.3316L195.5 73.8369L193.443 75.3316L194.229 72.9131L192.171 71.4184H194.714L195.5 69Z" fill="url(#paint3_radial)"/>
<path d="M224.5 15L225.286 17.4184H227.829L225.772 18.9131L226.557 21.3316L224.5 19.8369L222.443 21.3316L223.229 18.9131L221.171 17.4184H223.714L224.5 15Z" fill="url(#paint4_radial)"/>
<path d="M314.5 260L315.286 262.418H317.829L315.772 263.913L316.557 266.332L314.5 264.837L312.443 266.332L313.229 263.913L311.171 262.418H313.714L314.5 260Z" fill="url(#paint5_radial)"/>
<path d="M87.0002 41L88.5718 45.8369H93.6576L89.5431 48.8262L91.1147 53.6631L87.0002 50.6738L82.8857 53.6631L84.4573 48.8262L80.3428 45.8369H85.4286L87.0002 41Z" fill="url(#paint6_radial)"/>
<path d="M299 136L300.572 140.837H305.658L301.543 143.826L303.115 148.663L299 145.674L294.886 148.663L296.457 143.826L292.343 140.837H297.429L299 136Z" fill="url(#paint7_radial)"/>
<path d="M305.5 205L306.51 208.109H309.78L307.135 210.031L308.145 213.141L305.5 211.219L302.855 213.141L303.865 210.031L301.22 208.109H304.49L305.5 205Z" fill="url(#paint8_radial)"/>
<path d="M59.0002 287L59.8982 289.764H62.8044L60.4533 291.472L61.3513 294.236L59.0002 292.528L56.649 294.236L57.5471 291.472L55.1959 289.764H58.1021L59.0002 287Z" fill="url(#paint9_radial)"/>
<path d="M225.5 316L226.51 319.109H229.78L227.135 321.031L228.145 324.141L225.5 322.219L222.855 324.141L223.865 321.031L221.22 319.109H224.49L225.5 316Z" fill="url(#paint10_radial)"/>
<path d="M159.5 292L160.286 294.418H162.829L160.772 295.913L161.557 298.332L159.5 296.837L157.443 298.332L158.229 295.913L156.171 294.418H158.714L159.5 292Z" fill="url(#paint11_radial)"/>
<path d="M28.0002 112L29.5718 116.837H34.6576L30.5431 119.826L32.1147 124.663L28.0002 121.674L23.8857 124.663L25.4573 119.826L21.3428 116.837H26.4286L28.0002 112Z" fill="url(#paint12_radial)"/>
<path d="M42.0002 200L43.5718 204.837H48.6576L44.5431 207.826L46.1147 212.663L42.0002 209.674L37.8857 212.663L39.4573 207.826L35.3428 204.837H40.4286L42.0002 200Z" fill="url(#paint13_radial)"/>
<path d="M292 41L293.572 45.8369H298.658L294.543 48.8262L296.115 53.6631L292 50.6738L287.886 53.6631L289.457 48.8262L285.343 45.8369H290.429L292 41Z" fill="url(#paint14_radial)"/>
<path d="M247 267L248.572 271.837H253.658L249.543 274.826L251.115 279.663L247 276.674L242.886 279.663L244.457 274.826L240.343 271.837H245.429L247 267Z" fill="url(#paint15_radial)"/>
<path d="M284.5 309L285.286 311.418H287.829L285.772 312.913L286.557 315.332L284.5 313.837L282.443 315.332L283.229 312.913L281.171 311.418H283.714L284.5 309Z" fill="url(#paint16_radial)"/>
<path d="M250 214L251.572 218.837H256.658L252.543 221.826L254.115 226.663L250 223.674L245.886 226.663L247.457 221.826L243.343 218.837H248.429L250 214Z" fill="url(#paint17_radial)"/>
<path d="M101 214L102.572 218.837H107.658L103.543 221.826L105.115 226.663L101 223.674L96.8857 226.663L98.4573 221.826L94.3428 218.837H99.4286L101 214Z" fill="url(#paint18_radial)"/>
<path d="M253.5 55L254.286 57.4184H256.829L254.772 58.9131L255.557 61.3316L253.5 59.8369L251.443 61.3316L252.229 58.9131L250.171 57.4184H252.714L253.5 55Z" fill="url(#paint19_radial)"/>
<path d="M299.672 325.141L298.661 322.031L295.392 322.031L298.037 320.109L297.027 317L299.672 318.922L302.317 317L301.306 320.109L303.951 322.031L300.682 322.031L299.672 325.141Z" fill="url(#paint20_radial)"/>
<path d="M295.672 199.141L294.661 196.031L291.392 196.031L294.037 194.109L293.027 191L295.672 192.922L298.317 191L297.306 194.109L299.951 196.031L296.682 196.031L295.672 199.141Z" fill="url(#paint21_radial)"/>
<path d="M253.672 208.141L252.886 205.722L250.343 205.722L252.4 204.228L251.614 201.809L253.672 203.304L255.729 201.809L254.943 204.228L257 205.722L254.458 205.722L253.672 208.141Z" fill="url(#paint22_radial)"/>
<path d="M143.672 275.141L142.886 272.722L140.343 272.722L142.4 271.227L141.614 268.809L143.672 270.304L145.729 268.809L144.943 271.227L147 272.722L144.458 272.722L143.672 275.141Z" fill="url(#paint23_radial)"/>
<path d="M114.672 329.141L113.886 326.722L111.343 326.722L113.4 325.227L112.614 322.809L114.672 324.304L116.729 322.809L115.943 325.227L118 326.722L115.458 326.722L114.672 329.141Z" fill="url(#paint24_radial)"/>
<path d="M24.6717 84.1406L23.8859 81.7222L21.343 81.7222L23.4003 80.2275L22.6145 77.809L24.6717 79.3037L26.729 77.809L25.9432 80.2275L28.0004 81.7222L25.4575 81.7222L24.6717 84.1406Z" fill="url(#paint25_radial)"/>
<path d="M252.172 303.141L250.6 298.304L245.514 298.304L249.629 295.314L248.057 290.478L252.172 293.467L256.286 290.478L254.715 295.314L258.829 298.304L253.743 298.304L252.172 303.141Z" fill="url(#paint26_radial)"/>
<path d="M40.1717 208.141L38.6001 203.304L33.5143 203.304L37.6288 200.314L36.0572 195.477L40.1717 198.467L44.2862 195.477L42.7146 200.314L46.8291 203.304L41.7433 203.304L40.1717 208.141Z" fill="url(#paint27_radial)"/>
<path d="M33.6717 139.141L32.6614 136.031L29.392 136.031L32.037 134.109L31.0267 131L33.6717 132.922L36.3168 131L35.3064 134.109L37.9515 136.031L34.682 136.031L33.6717 139.141Z" fill="url(#paint28_radial)"/>
<path d="M280.172 57.1406L279.274 54.3767L276.368 54.3767L278.719 52.6685L277.821 49.9046L280.172 51.6128L282.523 49.9046L281.625 52.6685L283.976 54.3767L281.07 54.3767L280.172 57.1406Z" fill="url(#paint29_radial)"/>
<path d="M113.672 28.1406L112.661 25.0312L109.392 25.0312L112.037 23.1094L111.027 20L113.672 21.9218L116.317 20L115.306 23.1094L117.951 25.0312L114.682 25.0312L113.672 28.1406Z" fill="url(#paint30_radial)"/>
<path d="M179.672 52.1406L178.886 49.7222L176.343 49.7222L178.4 48.2275L177.614 45.809L179.672 47.3037L181.729 45.809L180.943 48.2275L183 49.7222L180.458 49.7222L179.672 52.1406Z" fill="url(#paint31_radial)"/>
<path d="M311.172 232.141L309.6 227.304L304.514 227.304L308.629 224.314L307.057 219.478L311.172 222.467L315.286 219.478L313.715 224.314L317.829 227.304L312.743 227.304L311.172 232.141Z" fill="url(#paint32_radial)"/>
<path d="M297.172 144.141L295.6 139.304L290.514 139.304L294.629 136.314L293.057 131.478L297.172 134.467L301.286 131.478L299.715 136.314L303.829 139.304L298.743 139.304L297.172 144.141Z" fill="url(#paint33_radial)"/>
<path d="M47.1717 303.141L45.6001 298.304L40.5143 298.304L44.6288 295.314L43.0572 290.477L47.1717 293.467L51.2862 290.477L49.7146 295.314L53.8291 298.304L48.7433 298.304L47.1717 303.141Z" fill="url(#paint34_radial)"/>
<path d="M92.1717 77.1406L90.6001 72.3037L85.5143 72.3037L89.6288 69.3144L88.0572 64.4775L92.1717 67.4668L96.2862 64.4775L94.7146 69.3144L98.8291 72.3037L93.7433 72.3037L92.1717 77.1406Z" fill="url(#paint35_radial)"/>
<path d="M54.6717 35.1406L53.8859 32.7222L51.343 32.7222L53.4003 31.2275L52.6145 28.809L54.6717 30.3037L56.729 28.809L55.9432 31.2275L58.0004 32.7222L55.4575 32.7222L54.6717 35.1406Z" fill="url(#paint36_radial)"/>
<path d="M89.1717 130.141L87.6001 125.304L82.5143 125.304L86.6288 122.314L85.0572 117.477L89.1717 120.467L93.2862 117.477L91.7146 122.314L95.8291 125.304L90.7433 125.304L89.1717 130.141Z" fill="url(#paint37_radial)"/>
<path d="M238.172 130.141L236.6 125.304L231.514 125.304L235.629 122.314L234.057 117.478L238.172 120.467L242.286 117.478L240.715 122.314L244.829 125.304L239.743 125.304L238.172 130.141Z" fill="url(#paint38_radial)"/>
<path d="M85.6717 289.141L84.8859 286.722L82.343 286.722L84.4003 285.227L83.6145 282.809L85.6717 284.304L87.729 282.809L86.9432 285.227L89.0004 286.722L86.4575 286.722L85.6717 289.141Z" fill="url(#paint39_radial)"/>
<path d="M145.169 160.368L135.272 152.746M145.169 160.368L139.109 174.659M145.169 160.368L148.239 157.087M135.272 152.746L106.69 164.761C106.69 164.761 100.71 166.878 99.3069 164.946C97.9043 163.015 101.662 157.378 103.462 154.969C105.288 152.561 129.159 123.53 129.159 123.53L135.854 123.821M135.272 152.746L135.087 149.227M135.854 123.821L153.268 96.2981L157.264 98.2829L157.449 106.91H162.901M135.854 123.821L104.706 157.563M162.901 106.91L164.356 107.916V100.479C164.356 95.8747 168.088 92.1432 172.692 92.1432C177.297 92.1432 181.029 95.8747 181.029 100.479V107.863L182.325 107.043H188.015V98.3094L192.064 96.0335L209.372 123.609H216.597L245.046 156.875C245.046 156.875 247.269 163.332 246.21 164.497C245.151 165.661 240.467 164.391 236.471 162.856C232.475 161.321 210.43 152.191 210.43 152.191L200.109 160.051L206.09 175.082L217.47 181.407C217.47 181.407 216.173 189.849 214.532 191.861C212.892 193.872 205.138 201.123 202.57 205.357C199.977 209.592 198.469 211.815 197.41 220.733C196.351 229.652 191.667 260.165 191.297 260.641C190.953 261.118 189.312 261.567 189.074 263.102C188.836 264.637 188.015 267.548 187.433 268.157C186.851 268.739 186.242 256.751 186.242 256.751L185.58 256.354L184.442 230.075C184.442 230.075 183.437 230.181 182.802 227.905C182.114 225.497 182.325 222.797 180.976 219.622C180.288 218.007 179.52 212.609 180.923 207.422C182.325 202.235 183.781 199.615 183.781 199.615H182.855V197.286H183.754V193.607H182.696V187.044L184.125 185.615V172.436L179.176 175.135C179.176 175.135 179.414 184.001 178.832 189.849C178.25 195.724 175.895 205.807 175.127 207.633C174.36 209.459 173.592 211.047 172.772 211.047C171.951 211.047 171.184 208.983 170.655 207.633C170.125 206.284 167.241 196.015 166.897 190.511C166.553 185.006 166.553 175.267 166.553 175.267L161.63 172.753V184.953L162.901 186.224V193.104H161.392V197.206H162.318V199.72H161.392C161.392 199.72 163.271 204.166 163.853 207.236C164.435 210.28 166.023 216.737 164.859 219.383C163.694 222.03 162.795 222.718 162.451 224.491C162.107 226.264 162.265 228.117 161.736 229.016C161.207 229.89 160.625 230.472 160.625 230.472L159.46 256.222L158.931 256.698C158.931 256.698 158.216 267.522 157.819 267.707C157.422 267.892 156.232 265.114 155.94 263.208C155.623 261.329 155.12 261.462 154.697 261.118C153.823 260.35 149.404 234.124 148.266 226.211C147.128 218.298 147.816 210.809 142.629 205.887M162.901 106.91L165.468 108.657V114.267L167.373 116.199V121.863L165.759 123.477V137.185L158.137 145.178L150.806 140.414L149.457 142.822H148.345V116.358L150.568 114.135L161.948 106.91L162.901 106.91ZM142.629 205.887C137.442 200.964 131.54 195.142 130.138 191.014C128.735 186.885 127.677 181.169 127.677 181.169L139.109 174.659M142.629 205.887L143.37 200.303L147.34 200.567L146.281 211.973M139.109 174.659L139.797 203.161M219.428 155.949C219.428 155.949 219.534 158.886 219.428 161.294C219.322 163.703 218.899 166.164 217.205 166.164C215.511 166.164 213.738 162.353 212.971 155.605C212.706 153.117 212.68 153.011 212.68 153.011M126.591 156.505C126.591 156.505 126.485 159.442 126.591 161.85C126.697 164.259 127.12 166.72 128.814 166.72C130.508 166.72 132.281 162.909 133.048 156.16C133.313 153.673 133.34 153.567 133.34 153.567M148.239 157.087L142.02 152.402L140.962 153.09M148.239 157.087L151.918 160.5L165.124 151.688M140.962 153.09L135.087 149.227M140.962 153.09L140.961 157.06M135.087 149.227L102.827 162.962L104.706 157.563M104.706 157.563L104.785 153.276M121.589 132.554L121.484 139.25M200.083 160.024L197.384 156.901M197.384 156.901L203.603 152.217L204.661 152.932M197.384 156.901L193.282 160.5L179.864 151.794M204.661 152.932L210.536 149.041M204.661 152.932L204.661 156.531M210.536 149.041L242.796 162.776L240.917 157.378L209.769 123.636M210.536 149.041L210.351 152.217M224.033 132.395L224.139 139.064M104.071 162.512L103.806 165.502M240.891 157.404L241.155 152.508M241.605 162.194L241.579 164.576M164.541 138.562L166.526 175.215M180.287 138.323L179.15 175.109M164.356 107.148C164.356 107.148 167.161 103.629 172.639 103.629C178.091 103.629 180.949 107.228 180.949 107.228M165.203 108.578C165.203 108.578 167.744 106.434 172.64 106.434C177.535 106.434 180.129 108.63 180.129 108.63M148.372 132.713L150.356 130.728L163.218 128.399L165.706 128.373M196.854 132.713L194.896 130.728L182.034 128.399L179.52 128.373M179.282 114.77L187.062 122.921L191.588 118.343L194.949 120.089L196.881 121.889M165.812 114.77L158.031 122.921L153.506 118.343L150.145 120.089L148.213 121.889M148.266 136.497L150.462 134.486L158.111 138.879L164.462 132.634H165.679M196.881 136.497L194.684 134.486L187.036 138.879L180.685 132.634H179.467M164.674 142.266H166.209C166.209 142.266 167.876 142.028 168.67 141.155C169.464 140.282 169.914 139.594 169.914 139.594H175.207C175.207 139.594 176.08 140.943 176.715 141.393C177.562 142.028 179.097 142.24 179.097 142.24H180.208M166.87 168.36C166.87 168.36 165.891 159.283 172.639 159.283C179.388 159.283 178.594 168.387 178.594 168.387M166.791 166.534C166.791 166.534 165.812 157.457 172.639 157.457C179.467 157.457 178.647 166.561 178.647 166.561M206.09 175.029L204.926 201.944M200.612 161.374L198.971 174.976L202.809 175.823L203.682 169.022M144.614 161.771L146.202 174.976L142.364 175.823L141.491 169.022M202.359 205.887L201.618 200.303L197.648 200.567L199.051 212.079M184.098 185.589L184.416 230.022M161.604 184.9L160.598 230.472M168.961 201.996C168.961 201.996 166.447 202.155 166.553 203.399C166.658 204.669 169.728 204.722 169.728 204.722M176.662 201.996C176.662 201.996 179.176 202.155 179.07 203.399C178.964 204.643 175.895 204.722 175.895 204.722M144.746 175.268L145.09 200.435M145.964 172.806L161.604 172.7M184.098 172.409L199.13 172.727M200.612 175.373L200.189 200.356M183.251 106.91L194.631 114.135L196.854 116.358V142.822H195.743L194.393 140.414L187.062 145.178L179.441 137.185V123.477L177.826 121.863V116.199L179.758 114.267V108.657L182.325 106.91H183.251ZM172.825 76L171.316 132.845L172.56 135.148L173.963 132.951L172.825 76ZM169.252 148.089C169.252 148.089 165.468 158.357 165.944 164.788C166.447 171.218 168.643 181.751 169.384 182.36C170.125 182.969 174.915 183.339 175.762 182.36C176.609 181.381 179.441 170.954 179.441 163.517C179.441 156.081 176.874 148.062 176.874 148.062L176.212 149.65H175.18V145.416L172.851 144.569L170.522 145.601V149.571L169.622 149.544L169.252 148.089ZM172.904 150.894C171.29 150.894 169.808 151.847 169.146 153.355C168.008 155.949 166.42 160.103 166.42 163.306C166.42 168.334 168.829 179.237 169.199 180.296C169.57 181.354 171.131 181.539 172.639 181.539C174.148 181.539 175.312 181.725 175.974 180.243C176.636 178.761 178.832 171.827 178.832 163.306C178.832 158.886 177.959 155.737 177.112 153.699C176.424 151.979 174.757 150.867 172.904 150.894Z" stroke="#00DEFF" stroke-opacity="0.56" stroke-width="2" stroke-miterlimit="10"/>
<path d="M77 284.933V55.0673L90.0497 42H126.233L139.283 55.0673H199.193L212.242 42H254.95L268 55.0673V284.933L254.95 298H212.242L199.193 284.933H139.283L126.233 298H90.0497L77 284.933Z" stroke="url(#paint40_linear)" stroke-width="4"/>
<path d="M255 47H212.266L199.209 61H139.263L126.205 47H90" stroke="url(#paint41_linear)"/>
<path d="M258 294H213.712L200.18 280H138.054L124.522 294H87" stroke="url(#paint42_linear)"/>
<defs>
<radialGradient id="paint0_radial" cx="0" cy="0" r="1" gradientUnits="userSpaceOnUse" gradientTransform="translate(318 324.141) rotate(180) scale(148.414 142.339)">
<stop stop-color="#00DEFF"/>
<stop offset="1" stop-color="#00DEFF" stop-opacity="0"/>
</radialGradient>
<radialGradient id="paint1_radial" cx="0" cy="0" r="1" gradientUnits="userSpaceOnUse" gradientTransform="translate(318 324.141) rotate(180) scale(148.414 142.339)">
<stop stop-color="#00DEFF"/>
<stop offset="1" stop-color="#00DEFF" stop-opacity="0"/>
</radialGradient>
<radialGradient id="paint2_radial" cx="0" cy="0" r="1" gradientUnits="userSpaceOnUse" gradientTransform="translate(318 324.141) rotate(180) scale(148.414 142.339)">
<stop stop-color="#00DEFF"/>
<stop offset="1" stop-color="#00DEFF" stop-opacity="0"/>
</radialGradient>
<radialGradient id="paint3_radial" cx="0" cy="0" r="1" gradientUnits="userSpaceOnUse" gradientTransform="translate(318 324.141) rotate(180) scale(148.414 142.339)">
<stop stop-color="#00DEFF"/>
<stop offset="1" stop-color="#00DEFF" stop-opacity="0"/>
</radialGradient>
<radialGradient id="paint4_radial" cx="0" cy="0" r="1" gradientUnits="userSpaceOnUse" gradientTransform="translate(318 324.141) rotate(180) scale(148.414 142.339)">
<stop stop-color="#00DEFF"/>
<stop offset="1" stop-color="#00DEFF" stop-opacity="0"/>
</radialGradient>
<radialGradient id="paint5_radial" cx="0" cy="0" r="1" gradientUnits="userSpaceOnUse" gradientTransform="translate(318 324.141) rotate(180) scale(148.414 142.339)">
<stop stop-color="#00DEFF"/>
<stop offset="1" stop-color="#00DEFF" stop-opacity="0"/>
</radialGradient>
<radialGradient id="paint6_radial" cx="0" cy="0" r="1" gradientUnits="userSpaceOnUse" gradientTransform="translate(318 324.141) rotate(180) scale(148.414 142.339)">
<stop stop-color="#00DEFF"/>
<stop offset="1" stop-color="#00DEFF" stop-opacity="0"/>
</radialGradient>
<radialGradient id="paint7_radial" cx="0" cy="0" r="1" gradientUnits="userSpaceOnUse" gradientTransform="translate(318 324.141) rotate(180) scale(148.414 142.339)">
<stop stop-color="#00DEFF"/>
<stop offset="1" stop-color="#00DEFF" stop-opacity="0"/>
</radialGradient>
<radialGradient id="paint8_radial" cx="0" cy="0" r="1" gradientUnits="userSpaceOnUse" gradientTransform="translate(318 324.141) rotate(180) scale(148.414 142.339)">
<stop stop-color="#00DEFF"/>
<stop offset="1" stop-color="#00DEFF" stop-opacity="0"/>
</radialGradient>
<radialGradient id="paint9_radial" cx="0" cy="0" r="1" gradientUnits="userSpaceOnUse" gradientTransform="translate(318 324.141) rotate(180) scale(148.414 142.339)">
<stop stop-color="#00DEFF"/>
<stop offset="1" stop-color="#00DEFF" stop-opacity="0"/>
</radialGradient>
<radialGradient id="paint10_radial" cx="0" cy="0" r="1" gradientUnits="userSpaceOnUse" gradientTransform="translate(318 324.141) rotate(180) scale(148.414 142.339)">
<stop stop-color="#00DEFF"/>
<stop offset="1" stop-color="#00DEFF" stop-opacity="0"/>
</radialGradient>
<radialGradient id="paint11_radial" cx="0" cy="0" r="1" gradientUnits="userSpaceOnUse" gradientTransform="translate(318 324.141) rotate(180) scale(148.414 142.339)">
<stop stop-color="#00DEFF"/>
<stop offset="1" stop-color="#00DEFF" stop-opacity="0"/>
</radialGradient>
<radialGradient id="paint12_radial" cx="0" cy="0" r="1" gradientUnits="userSpaceOnUse" gradientTransform="translate(318 324.141) rotate(180) scale(148.414 142.339)">
<stop stop-color="#00DEFF"/>
<stop offset="1" stop-color="#00DEFF" stop-opacity="0"/>
</radialGradient>
<radialGradient id="paint13_radial" cx="0" cy="0" r="1" gradientUnits="userSpaceOnUse" gradientTransform="translate(318 324.141) rotate(180) scale(148.414 142.339)">
<stop stop-color="#00DEFF"/>
<stop offset="1" stop-color="#00DEFF" stop-opacity="0"/>
</radialGradient>
<radialGradient id="paint14_radial" cx="0" cy="0" r="1" gradientUnits="userSpaceOnUse" gradientTransform="translate(318 324.141) rotate(180) scale(148.414 142.339)">
<stop stop-color="#00DEFF"/>
<stop offset="1" stop-color="#00DEFF" stop-opacity="0"/>
</radialGradient>
<radialGradient id="paint15_radial" cx="0" cy="0" r="1" gradientUnits="userSpaceOnUse" gradientTransform="translate(318 324.141) rotate(180) scale(148.414 142.339)">
<stop stop-color="#00DEFF"/>
<stop offset="1" stop-color="#00DEFF" stop-opacity="0"/>
</radialGradient>
<radialGradient id="paint16_radial" cx="0" cy="0" r="1" gradientUnits="userSpaceOnUse" gradientTransform="translate(318 324.141) rotate(180) scale(148.414 142.339)">
<stop stop-color="#00DEFF"/>
<stop offset="1" stop-color="#00DEFF" stop-opacity="0"/>
</radialGradient>
<radialGradient id="paint17_radial" cx="0" cy="0" r="1" gradientUnits="userSpaceOnUse" gradientTransform="translate(318 324.141) rotate(180) scale(148.414 142.339)">
<stop stop-color="#00DEFF"/>
<stop offset="1" stop-color="#00DEFF" stop-opacity="0"/>
</radialGradient>
<radialGradient id="paint18_radial" cx="0" cy="0" r="1" gradientUnits="userSpaceOnUse" gradientTransform="translate(318 324.141) rotate(180) scale(148.414 142.339)">
<stop stop-color="#00DEFF"/>
<stop offset="1" stop-color="#00DEFF" stop-opacity="0"/>
</radialGradient>
<radialGradient id="paint19_radial" cx="0" cy="0" r="1" gradientUnits="userSpaceOnUse" gradientTransform="translate(318 324.141) rotate(180) scale(148.414 142.339)">
<stop stop-color="#00DEFF"/>
<stop offset="1" stop-color="#00DEFF" stop-opacity="0"/>
</radialGradient>
<radialGradient id="paint20_radial" cx="0" cy="0" r="1" gradientUnits="userSpaceOnUse" gradientTransform="translate(21.1719 20) scale(148.414 142.339)">
<stop stop-color="#00DEFF"/>
<stop offset="1" stop-color="#00DEFF" stop-opacity="0"/>
</radialGradient>
<radialGradient id="paint21_radial" cx="0" cy="0" r="1" gradientUnits="userSpaceOnUse" gradientTransform="translate(21.1719 20) scale(148.414 142.339)">
<stop stop-color="#00DEFF"/>
<stop offset="1" stop-color="#00DEFF" stop-opacity="0"/>
</radialGradient>
<radialGradient id="paint22_radial" cx="0" cy="0" r="1" gradientUnits="userSpaceOnUse" gradientTransform="translate(21.1719 20) scale(148.414 142.339)">
<stop stop-color="#00DEFF"/>
<stop offset="1" stop-color="#00DEFF" stop-opacity="0"/>
</radialGradient>
<radialGradient id="paint23_radial" cx="0" cy="0" r="1" gradientUnits="userSpaceOnUse" gradientTransform="translate(21.1719 20) scale(148.414 142.339)">
<stop stop-color="#00DEFF"/>
<stop offset="1" stop-color="#00DEFF" stop-opacity="0"/>
</radialGradient>
<radialGradient id="paint24_radial" cx="0" cy="0" r="1" gradientUnits="userSpaceOnUse" gradientTransform="translate(21.1719 20) scale(148.414 142.339)">
<stop stop-color="#00DEFF"/>
<stop offset="1" stop-color="#00DEFF" stop-opacity="0"/>
</radialGradient>
<radialGradient id="paint25_radial" cx="0" cy="0" r="1" gradientUnits="userSpaceOnUse" gradientTransform="translate(21.1719 20) scale(148.414 142.339)">
<stop stop-color="#00DEFF"/>
<stop offset="1" stop-color="#00DEFF" stop-opacity="0"/>
</radialGradient>
<radialGradient id="paint26_radial" cx="0" cy="0" r="1" gradientUnits="userSpaceOnUse" gradientTransform="translate(21.1719 20) scale(148.414 142.339)">
<stop stop-color="#00DEFF"/>
<stop offset="1" stop-color="#00DEFF" stop-opacity="0"/>
</radialGradient>
<radialGradient id="paint27_radial" cx="0" cy="0" r="1" gradientUnits="userSpaceOnUse" gradientTransform="translate(21.1719 20) scale(148.414 142.339)">
<stop stop-color="#00DEFF"/>
<stop offset="1" stop-color="#00DEFF" stop-opacity="0"/>
</radialGradient>
<radialGradient id="paint28_radial" cx="0" cy="0" r="1" gradientUnits="userSpaceOnUse" gradientTransform="translate(21.1719 20) scale(148.414 142.339)">
<stop stop-color="#00DEFF"/>
<stop offset="1" stop-color="#00DEFF" stop-opacity="0"/>
</radialGradient>
<radialGradient id="paint29_radial" cx="0" cy="0" r="1" gradientUnits="userSpaceOnUse" gradientTransform="translate(21.1719 20) scale(148.414 142.339)">
<stop stop-color="#00DEFF"/>
<stop offset="1" stop-color="#00DEFF" stop-opacity="0"/>
</radialGradient>
<radialGradient id="paint30_radial" cx="0" cy="0" r="1" gradientUnits="userSpaceOnUse" gradientTransform="translate(21.1719 20) scale(148.414 142.339)">
<stop stop-color="#00DEFF"/>
<stop offset="1" stop-color="#00DEFF" stop-opacity="0"/>
</radialGradient>
<radialGradient id="paint31_radial" cx="0" cy="0" r="1" gradientUnits="userSpaceOnUse" gradientTransform="translate(21.1719 20) scale(148.414 142.339)">
<stop stop-color="#00DEFF"/>
<stop offset="1" stop-color="#00DEFF" stop-opacity="0"/>
</radialGradient>
<radialGradient id="paint32_radial" cx="0" cy="0" r="1" gradientUnits="userSpaceOnUse" gradientTransform="translate(21.1719 20) scale(148.414 142.339)">
<stop stop-color="#00DEFF"/>
<stop offset="1" stop-color="#00DEFF" stop-opacity="0"/>
</radialGradient>
<radialGradient id="paint33_radial" cx="0" cy="0" r="1" gradientUnits="userSpaceOnUse" gradientTransform="translate(21.1719 20) scale(148.414 142.339)">
<stop stop-color="#00DEFF"/>
<stop offset="1" stop-color="#00DEFF" stop-opacity="0"/>
</radialGradient>
<radialGradient id="paint34_radial" cx="0" cy="0" r="1" gradientUnits="userSpaceOnUse" gradientTransform="translate(21.1719 20) scale(148.414 142.339)">
<stop stop-color="#00DEFF"/>
<stop offset="1" stop-color="#00DEFF" stop-opacity="0"/>
</radialGradient>
<radialGradient id="paint35_radial" cx="0" cy="0" r="1" gradientUnits="userSpaceOnUse" gradientTransform="translate(21.1719 20) scale(148.414 142.339)">
<stop stop-color="#00DEFF"/>
<stop offset="1" stop-color="#00DEFF" stop-opacity="0"/>
</radialGradient>
<radialGradient id="paint36_radial" cx="0" cy="0" r="1" gradientUnits="userSpaceOnUse" gradientTransform="translate(21.1719 20) scale(148.414 142.339)">
<stop stop-color="#00DEFF"/>
<stop offset="1" stop-color="#00DEFF" stop-opacity="0"/>
</radialGradient>
<radialGradient id="paint37_radial" cx="0" cy="0" r="1" gradientUnits="userSpaceOnUse" gradientTransform="translate(21.1719 20) scale(148.414 142.339)">
<stop stop-color="#00DEFF"/>
<stop offset="1" stop-color="#00DEFF" stop-opacity="0"/>
</radialGradient>
<radialGradient id="paint38_radial" cx="0" cy="0" r="1" gradientUnits="userSpaceOnUse" gradientTransform="translate(21.1719 20) scale(148.414 142.339)">
<stop stop-color="#00DEFF"/>
<stop offset="1" stop-color="#00DEFF" stop-opacity="0"/>
</radialGradient>
<radialGradient id="paint39_radial" cx="0" cy="0" r="1" gradientUnits="userSpaceOnUse" gradientTransform="translate(21.1719 20) scale(148.414 142.339)">
<stop stop-color="#00DEFF"/>
<stop offset="1" stop-color="#00DEFF" stop-opacity="0"/>
</radialGradient>
<linearGradient id="paint40_linear" x1="172.5" y1="42" x2="172.5" y2="298" gradientUnits="userSpaceOnUse">
<stop stop-color="#00DEFF"/>
<stop offset="0.510417" stop-opacity="0"/>
<stop offset="1" stop-color="#00DEFF"/>
</linearGradient>
<linearGradient id="paint41_linear" x1="89.9502" y1="50.9375" x2="255.05" y2="50.9375" gradientUnits="userSpaceOnUse">
<stop stop-opacity="0"/>
<stop offset="0.481327" stop-color="#00DEFF"/>
<stop offset="1" stop-color="#00272D" stop-opacity="0"/>
</linearGradient>
<linearGradient id="paint42_linear" x1="86.9484" y1="290.063" x2="258.051" y2="290.062" gradientUnits="userSpaceOnUse">
<stop stop-opacity="0"/>
<stop offset="0.473154" stop-color="#00DEFF"/>
<stop offset="1" stop-color="#00272D" stop-opacity="0"/>
</linearGradient>
</defs>
</svg>
