<svg width="320" height="240" viewBox="0 0 320 240" fill="none" xmlns="http://www.w3.org/2000/svg">
<path opacity="0.5" d="M234.254 63.6788L228.429 77.2701L234.254 80.1825L235.225 89.8905L238.138 85.0365L247.846 76.2993L254.642 79.2117V81.1533L271.146 77.2701L274.058 78.2409L276 82.1241L260.467 97.6569L258.525 98.6277L257.554 99.5985L258.525 101.54L249.788 110.277L265.321 145.226L255.613 152.993V156.876L250.758 160.759L249.788 158.818L228.429 174.35L203.188 169.496L200.275 168.526L202.217 167.555L219.692 154.934L215.808 153.964L209.013 151.051L206.1 147.168L203.188 149.109L197.363 150.08L180.858 159.788L169.208 164.642L156.588 169.496L151.733 174.35L116.783 186L103.192 180.175L96.3958 183.088L81.8333 184.058L72.125 181.146L56.5917 180.175L48.825 178.234L45.9125 175.321L43 172.409L82.8042 141.343L109.017 118.044L113.871 116.102L139.113 99.5985L132.317 98.6277L106.104 111.248L103.192 99.5985L117.754 92.8029L119.696 89.8905L174.062 64.6496L176.004 70.4745H178.917L184.742 66.5912L193.479 54.9416L200.275 58.8248L197.363 63.6788L217.75 53L232.312 58.8248L234.254 63.6788Z" fill="white" fill-opacity="0.1" stroke="white" stroke-opacity="0.5" stroke-linecap="round"/>
</svg>
