<svg width="20" height="20" viewBox="0 0 20 20" fill="none" xmlns="http://www.w3.org/2000/svg">
<path fill-rule="evenodd" clip-rule="evenodd" d="M2.19144 9.10128L4.27645 10.315L0 20H12.655L10.0522 14.9532L11.3061 12.1133C11.6803 12.2159 12.0724 12.2737 12.4785 12.2737C14.7897 12.2737 16.6992 10.5224 16.9799 8.2675H19.8573V0.827418H9.10128V2.54436H18.1546V6.55056H11.8985L8.16267 15.0111L9.85015 18.2831H2.62208L6.45565 9.60108L5.59701 9.10128H2.19144ZM12.0124 10.514C12.1644 10.5399 12.3193 10.5568 12.4785 10.5568C13.8491 10.5568 14.9957 9.57199 15.2593 8.2675H13.0043L12.0124 10.514Z" fill="#00DEFF"/>
<path d="M0 2.88834H7.94294V5.0546H0V2.88834Z" fill="#00DEFF"/>
<path d="M5.0546 9.46916e-08V7.94294H2.88834V0L5.0546 9.46916e-08Z" fill="#00DEFF"/>
</svg>
