<svg width="17" height="20" viewBox="0 0 17 20" fill="none" xmlns="http://www.w3.org/2000/svg">
<path d="M8.33333 3.74242H16.3333V5.92424H8.33333V3.74242Z" fill="#FECF06"/>
<path d="M13.4242 0.833333V8.83333H11.2424V0.833333L13.4242 0.833333Z" fill="#FECF06"/>
<path d="M8.33333 0.0189395L8.27586 0L0.628966 2.52C0.445937 2.58027 0.286716 2.69592 0.173839 2.85059C0.0609621 3.00525 0.000146478 3.1911 0 3.38182V10C0 13.6818 2.75862 17.0155 8.27586 20C13.7931 17.0155 16.5517 13.6818 16.5517 10V8.33333H14.7126V10C14.7126 11.4464 14.137 12.8091 13.0593 14.11C11.954 15.4445 10.3522 16.7027 8.27586 17.91C6.20046 16.7027 4.5977 15.4455 3.49149 14.11C2.48184 12.8891 1.91264 11.6155 1.84552 10.27L1.83908 10V4.03818L8.27586 1.91636L8.33333 1.93531V0.0189395Z" fill="#FECF06"/>
</svg>
