<svg width="20" height="20" viewBox="0 0 20 20" fill="none" xmlns="http://www.w3.org/2000/svg">
<path d="M2.25385 20H5.55799C5.94872 20 6.32669 19.8418 6.5985 19.5649L14.3089 11.7118C14.7123 11.3017 14.8249 10.7 14.5977 10.1753C14.4026 9.72668 13.9899 9.41307 13.5102 9.33333H10.0814C9.9539 9.71028 9.99235 10.1284 10.1978 10.4814C10.4547 10.9227 10.9347 11.1955 11.4528 11.1955H12.1493L5.35626 18.1158H2.97584L5.95509 11.2871C6.1462 10.8478 6.09948 10.3481 5.83192 9.95048C5.56436 9.55075 5.11206 9.31341 4.62578 9.31341H2.27933L5.94659 3.21749H9.33331V1.33333H5.67479C5.16515 1.33333 4.68737 1.6019 4.43042 2.03078L0.200444 9.06357C-0.0628684 9.50078 -0.0671154 10.0462 0.189826 10.4855C0.446768 10.9269 0.926675 11.1996 1.44481 11.1996H3.9038L0.924552 18.0284C0.733438 18.4677 0.780155 18.9674 1.04771 19.365C1.3174 19.7627 1.76757 20 2.25385 20Z" fill="#20CA8D"/>
<path d="M11.3333 2.90909H19.3333V5.09091H11.3333V2.90909Z" fill="#20CA8D"/>
<path d="M16.4242 9.5372e-08V8H14.2424V0L16.4242 9.5372e-08Z" fill="#20CA8D"/>
</svg>
