<svg width="10" height="12" viewBox="0 0 10 12" fill="none" xmlns="http://www.w3.org/2000/svg">
<path d="M3.19745 4.80255H1.59236V2.92994C1.59236 2.52229 1.67304 2.14225 1.83439 1.78981C1.99575 1.43737 2.21868 1.12739 2.50318 0.859873C2.78769 0.592357 3.12314 0.382166 3.50955 0.229299C3.89597 0.0764331 4.31847 -8.30182e-09 4.77707 0C5.18471 0 5.57749 0.0764331 5.95541 0.229299C6.33333 0.382166 6.66879 0.592357 6.96178 0.859873C7.25478 1.12739 7.48832 1.43737 7.66242 1.78981C7.83652 2.14225 7.92357 2.52229 7.92357 2.92994V4.80255H6.38216V3.28662C6.38216 2.75159 6.23354 2.33758 5.9363 2.04459C5.63906 1.75159 5.23567 1.6051 4.72611 1.6051C4.26752 1.6051 3.89809 1.75159 3.61783 2.04459C3.33758 2.33758 3.19745 2.75159 3.19745 3.28662V4.80255ZM8.6879 5.56688C8.9172 5.56688 9.11465 5.64968 9.28025 5.81529C9.44586 5.98089 9.52866 6.17834 9.52866 6.40764V10.3567C9.52866 10.586 9.48832 10.8004 9.40764 11C9.32696 11.1996 9.21656 11.3737 9.07643 11.5223C8.93631 11.6709 8.7707 11.7877 8.57962 11.8726C8.38853 11.9575 8.17834 12 7.94904 12H1.51592C1.28662 12 1.07856 11.9575 0.89172 11.8726C0.704883 11.7877 0.545647 11.6752 0.414013 11.535C0.282378 11.3949 0.180467 11.2314 0.10828 11.0446C0.0360933 10.8577 0 10.6582 0 10.4459V6.40764C0 6.17834 0.0806793 5.98089 0.242038 5.81529C0.403397 5.64968 0.598726 5.56688 0.828025 5.56688H1.59236H3.19745H6.38216H7.92357H8.6879Z" fill="white"/>
</svg>
