<svg width="32" height="33" viewBox="0 0 32 33" fill="none" xmlns="http://www.w3.org/2000/svg">
<path fill-rule="evenodd" clip-rule="evenodd" d="M12.1303 13.5688L11.6713 13.0879L14.4167 3.13588L24.3687 0.0473336C24.5931 -0.0157779 24.8306 -0.0157779 25.055 0.0473336L25.7413 1.07685L20.9369 5.88126L26.4277 11.372L31.2321 6.56761L31.9184 7.25395C31.9661 7.48024 31.9661 7.714 31.9184 7.94029L29.1731 17.5491L18.8779 20.6377L18.5746 20.3199L7.76976 31.125C6.10464 32.7912 3.20753 32.7144 1.41486 30.8199C-0.379949 29.023 -0.474063 26.1728 1.17193 24.5258L12.1303 13.5688ZM3.09947 29.2054C2.66203 28.7679 2.41628 28.1747 2.41628 27.556C2.41628 26.9374 2.66203 26.3441 3.09947 25.9067C3.5369 25.4692 4.13019 25.2235 4.74882 25.2235C5.36745 25.2235 5.96074 25.4692 6.39818 25.9067C6.83561 26.3441 7.08136 26.9374 7.08136 27.556C7.08136 28.1747 6.83561 28.7679 6.39818 29.2054C5.96074 29.6428 5.36745 29.8886 4.74882 29.8886C4.13019 29.8886 3.5369 29.6428 3.09947 29.2054Z" fill="white"/>
</svg>
