<svg width="86" height="50" viewBox="0 0 86 50" fill="none" xmlns="http://www.w3.org/2000/svg">
<path opacity="0.5" d="M70.0219 4.85401L67.9197 9.75912L70.0219 10.8102L70.3723 14.3139L71.4234 12.562L74.927 9.40876L77.3796 10.4599V11.1606L83.3358 9.75912L84.3869 10.1095L85.0876 11.5109L79.4818 17.1168L78.781 17.4672L78.4307 17.8175L78.781 18.5182L75.6277 21.6715L81.2336 34.2847L77.7299 37.0876V38.4891L75.9781 39.8905L75.6277 39.1898L67.9197 44.7956L58.8102 43.0438L57.7591 42.6934L58.4599 42.3431L64.7664 37.7883L63.365 37.438L60.9124 36.3869L59.8613 34.9854L58.8102 35.6861L56.708 36.0365L50.7518 39.5401L46.5474 41.292L41.9927 43.0438L40.2409 44.7956L27.6277 49L22.7226 46.8978L20.2701 47.9489L15.0146 48.2993L11.5109 47.2482L5.90511 46.8978L3.10219 46.1971L2.0511 45.146L1 44.0949L15.365 32.8832L24.8248 24.4745L26.5766 23.7737L35.6861 17.8175L33.2336 17.4672L23.7737 22.0219L22.7226 17.8175L27.9781 15.365L28.6788 14.3139L48.2993 5.20438L49 7.30657H50.0511L52.1533 5.90511L55.3066 1.70073L57.7591 3.10219L56.708 4.85401L64.0657 1L69.3212 3.10219L70.0219 4.85401Z" fill="white" fill-opacity="0.1" stroke="white" stroke-opacity="0.5" stroke-linecap="round"/>
</svg>
