<svg width="12" height="12" viewBox="0 0 12 12" fill="none" xmlns="http://www.w3.org/2000/svg">
<path d="M8.50468 0C8.88216 0 9.24589 0.070779 9.59586 0.212337C9.94582 0.353895 10.2565 0.548538 10.5278 0.796264C10.7991 1.04399 11.0173 1.33301 11.1825 1.66331C11.3476 1.99361 11.4302 2.34751 11.4302 2.72499V4.47088H10.0028V3.0553C10.0028 2.55984 9.86324 2.17449 9.58406 1.89924C9.30487 1.62399 8.92935 1.48636 8.45749 1.48636C8.03282 1.48636 7.69072 1.62399 7.43119 1.89924C7.17167 2.17449 7.04191 2.55984 7.04191 3.0553V4.49447H5.55555V2.72499C5.55555 2.34751 5.63026 1.99361 5.77968 1.66331C5.9291 1.33301 6.13554 1.04399 6.399 0.796264C6.66245 0.548538 6.9731 0.353895 7.33092 0.212337C7.68875 0.0707791 8.08 7.73378e-09 8.50468 0ZM8.48111 8.90931V9.92381V10.4783C8.48111 10.6906 8.44375 10.8911 8.36904 11.0799C8.29433 11.2686 8.1921 11.4298 8.06233 11.5635C7.93257 11.6972 7.77922 11.8034 7.60227 11.882C7.42532 11.9607 7.23068 12 7.01834 12H1.41557C1.20323 12 1.01056 11.9626 0.837543 11.8879C0.664527 11.8132 0.515105 11.711 0.389275 11.5812C0.263446 11.4515 0.167108 11.3001 0.100261 11.1271C0.033414 10.954 -9.49559e-06 10.7692 -9.48785e-06 10.5726V6.25421C-9.48785e-06 6.03401 0.0766678 5.8492 0.230022 5.69978C0.383377 5.55036 0.562291 5.47565 0.766764 5.47565H7.70254C7.92274 5.47565 8.10755 5.55036 8.25698 5.69978C8.4064 5.8492 8.48111 6.03401 8.48111 6.25421V8.90931Z" fill="white"/>
</svg>
